<svg width="498" height="678" viewBox="0 0 498 678" fill="none" xmlns="http://www.w3.org/2000/svg">
<path d="M495.315 661.462L495.315 16.4553C495.315 8.47186 488.844 2 480.86 2L16.4551 2C8.47162 2 1.99979 8.47187 1.99979 16.4553L1.99979 661.462C1.99979 669.446 8.47168 675.918 16.4551 675.918H480.86C488.844 675.918 495.315 669.446 495.315 661.462Z" fill="black" stroke="white" stroke-width="4"/>
<path d="M477.302 659.683L477.302 18.2346L20.0138 18.2346L20.0138 659.683H477.302Z" fill="#4584FF"/>
<path d="M51.77 592.364V85.5536C65.6616 71.6626 73.4439 63.8807 87.3355 49.9897H409.979C423.871 63.8807 431.653 71.6626 445.545 85.5536V592.357C431.653 606.248 423.871 614.03 409.979 627.921H87.3355C73.4439 614.03 65.6616 606.248 51.77 592.357V592.364Z" fill="#2B167D"/>
<path d="M91.7196 617.338L62.353 587.973V89.9374L91.7196 60.5723H405.595L434.962 89.9374V587.973L405.595 617.338H91.7196Z" fill="white"/>
<path d="M57.4982 158.19L40.6938 174.993V512.185L60.2989 492.581C60.2989 492.581 58.2451 158.19 57.4982 158.19Z" fill="#2B167D"/>
<path d="M20.0137 659.683V528.31C33.6588 514.99 41.3067 507.525 54.9443 494.212H442.371C456.016 507.532 463.664 514.997 477.301 528.31V659.683H20.0137Z" fill="#2B167D"/>
<path d="M435.09 74.2835H64.9094L20.0137 50.5167V18.2346H477.301V50.5167L435.075 74.2835H435.09Z" fill="#2B167D"/>
<path d="M150.264 53.6899H145.09V34.9236H155.229C156.107 34.9236 156.945 35.0409 157.745 35.2754C158.553 35.51 159.265 35.8662 159.882 36.3441C160.499 36.8132 160.99 37.4084 161.355 38.1295C161.728 38.8419 161.915 39.6803 161.915 40.6447C161.915 41.2529 161.828 41.8263 161.654 42.365C161.481 42.8949 161.237 43.3815 160.925 43.8246C160.62 44.2677 160.26 44.6673 159.843 45.0235C159.426 45.3797 158.97 45.6795 158.474 45.9228C157.979 46.166 157.454 46.3528 156.898 46.4831C156.35 46.6135 155.794 46.6786 155.229 46.6786H150.264V53.6899ZM156.676 40.6447C156.676 39.4371 156.368 38.4901 155.751 37.8037C155.143 37.1086 154.222 36.7611 152.988 36.7611H150.264V44.9062H152.988C153.648 44.9062 154.209 44.802 154.669 44.5935C155.138 44.3763 155.52 44.0765 155.816 43.6942C156.111 43.312 156.328 42.8645 156.467 42.3519C156.607 41.8306 156.676 41.2616 156.676 40.6447ZM168.6 53.6899H164.196V31.7046H165.89L168.6 36.2789V53.6899ZM187.432 53.6899H183.027V51.8915C182.506 52.6039 181.876 53.1339 181.137 53.4814C180.408 53.8203 179.604 53.9897 178.726 53.9897C177.58 53.9897 176.554 53.7855 175.651 53.3772C174.747 52.9688 173.983 52.4128 173.357 51.709C172.732 50.9966 172.254 50.1626 171.924 49.2069C171.594 48.2512 171.428 47.226 171.428 46.1313C171.428 45.0366 171.594 44.0114 171.924 43.0557C172.254 42.1 172.732 41.2703 173.357 40.5665C173.983 39.8541 174.747 39.2937 175.651 38.8854C176.554 38.477 177.58 38.2728 178.726 38.2728C179.309 38.2728 179.86 38.3597 180.382 38.5335C180.912 38.7073 181.394 38.9549 181.828 39.2763C182.271 39.5891 182.658 39.9714 182.988 40.4232C183.327 40.8663 183.592 41.3615 183.783 41.9088L185.738 38.6378H187.432V53.6899ZM183.001 46.1313C183.001 45.7403 182.979 45.3276 182.936 44.8932C182.901 44.4588 182.836 44.0287 182.74 43.603C182.645 43.1773 182.51 42.7733 182.336 42.391C182.171 42.0001 181.954 41.6569 181.685 41.3615C181.424 41.0574 181.107 40.8185 180.733 40.6447C180.36 40.4709 179.925 40.3841 179.43 40.3841C178.935 40.3841 178.505 40.4753 178.14 40.6577C177.775 40.8315 177.462 41.0704 177.202 41.3745C176.941 41.6699 176.724 42.0131 176.55 42.4041C176.385 42.795 176.255 43.2034 176.159 43.6291C176.064 44.0548 175.994 44.4849 175.951 44.9193C175.916 45.345 175.899 45.749 175.899 46.1313C175.899 46.5135 175.916 46.9219 175.951 47.3563C175.994 47.7907 176.064 48.2208 176.159 48.6465C176.255 49.0722 176.385 49.4805 176.55 49.8715C176.724 50.2625 176.941 50.61 177.202 50.9141C177.462 51.2095 177.775 51.4484 178.14 51.6309C178.505 51.8046 178.935 51.8915 179.43 51.8915C179.882 51.8915 180.282 51.8003 180.629 51.6178C180.985 51.4267 181.294 51.1747 181.554 50.862C181.824 50.5492 182.05 50.193 182.232 49.7933C182.415 49.3937 182.562 48.981 182.675 48.5553C182.788 48.1295 182.871 47.7082 182.923 47.2911C182.975 46.8654 183.001 46.4788 183.001 46.1313ZM204.595 38.6378L199.122 51.8785C198.496 53.3902 197.797 54.8846 197.024 56.3615C196.259 57.8472 195.429 59.2721 194.535 60.6361L192.814 59.5935C193.031 59.2026 193.288 58.7508 193.583 58.2382C193.879 57.7256 194.17 57.1956 194.456 56.6483C194.743 56.1009 195.008 55.5579 195.251 55.0192C195.495 54.4892 195.681 54.0027 195.812 53.5596L189.23 38.6378H193.635L198.105 48.8159L201.546 38.6378H204.595ZM209.704 46.5483C210.243 46.6699 210.781 46.7655 211.32 46.835C211.859 46.9045 212.402 46.9393 212.949 46.9393C213.522 46.9393 214.052 46.8871 214.539 46.7829C215.034 46.6699 215.46 46.4875 215.816 46.2355C216.181 45.9749 216.468 45.6317 216.676 45.206C216.885 44.7803 216.989 44.2503 216.989 43.6161C216.989 43.1035 216.92 42.6343 216.781 42.2086C216.642 41.7829 216.433 41.418 216.155 41.1139C215.886 40.8098 215.551 40.5752 215.151 40.4101C214.752 40.2364 214.287 40.1495 213.757 40.1495C213.262 40.1495 212.814 40.2407 212.415 40.4232C212.024 40.6056 211.676 40.8532 211.372 41.166C211.077 41.4701 210.82 41.8263 210.603 42.2346C210.395 42.643 210.221 43.0687 210.082 43.5118C209.943 43.9549 209.843 44.4023 209.782 44.8541C209.721 45.3059 209.691 45.7316 209.691 46.1313C209.691 46.2008 209.691 46.2703 209.691 46.3398C209.691 46.4093 209.695 46.4788 209.704 46.5483ZM220.56 43.577C220.56 44.1938 220.46 44.7455 220.26 45.232C220.06 45.7099 219.787 46.1313 219.439 46.4962C219.1 46.8611 218.705 47.1695 218.253 47.4215C217.801 47.6734 217.319 47.8819 216.807 48.047C216.294 48.2034 215.764 48.3163 215.217 48.3858C214.678 48.4553 214.152 48.4901 213.64 48.4901C212.988 48.4901 212.345 48.4467 211.711 48.3598C211.077 48.2642 210.451 48.1165 209.834 47.9167C209.93 48.4901 210.082 49.0374 210.29 49.5587C210.499 50.0713 210.777 50.5231 211.125 50.9141C211.472 51.2964 211.898 51.6004 212.402 51.8263C212.914 52.0522 213.518 52.1652 214.213 52.1652C214.674 52.1652 215.112 52.0957 215.529 51.9567C215.946 51.8176 216.329 51.6222 216.676 51.3702C217.024 51.1183 217.328 50.8185 217.589 50.471C217.858 50.1235 218.075 49.7368 218.24 49.3111L220.143 50.0149C219.856 50.7012 219.461 51.2964 218.957 51.8003C218.462 52.2955 217.897 52.7082 217.263 53.0383C216.637 53.3598 215.968 53.5987 215.256 53.7551C214.552 53.9115 213.853 53.9897 213.158 53.9897C212.011 53.9897 210.951 53.7985 209.978 53.4163C209.005 53.0253 208.166 52.4823 207.462 51.7872C206.759 51.0922 206.207 50.2625 205.807 49.2981C205.408 48.3337 205.208 47.2781 205.208 46.1313C205.208 44.9844 205.408 43.9288 205.807 42.9644C206.207 42.0001 206.759 41.1703 207.462 40.4753C208.166 39.7802 209.005 39.2416 209.978 38.8593C210.951 38.4683 212.011 38.2728 213.158 38.2728C213.714 38.2728 214.283 38.3119 214.865 38.3901C215.447 38.4683 216.012 38.5943 216.559 38.7681C217.106 38.9331 217.623 39.1504 218.11 39.4197C218.596 39.689 219.018 40.0235 219.374 40.4232C219.739 40.8141 220.026 41.2703 220.234 41.7915C220.451 42.3128 220.56 42.908 220.56 43.577ZM236.107 39.967L233.631 44.0722C233.527 43.7247 233.392 43.3337 233.227 42.8993C233.062 42.4649 232.858 42.0609 232.615 41.6873C232.371 41.305 232.08 40.9879 231.741 40.7359C231.403 40.4753 231.012 40.345 230.569 40.345C230.16 40.345 229.804 40.4492 229.5 40.6577C229.205 40.8663 228.953 41.1399 228.744 41.4788C228.536 41.8089 228.362 42.1869 228.223 42.6126C228.092 43.0296 227.988 43.4553 227.91 43.8897C227.841 44.3154 227.793 44.7281 227.767 45.1278C227.741 45.5188 227.728 45.8576 227.728 46.1443V53.6899H223.31V38.6378H225.004L226.789 42.1434C227.033 41.5787 227.311 41.0617 227.623 40.5926C227.936 40.1147 228.297 39.7064 228.705 39.3676C229.113 39.02 229.574 38.7507 230.086 38.5596C230.608 38.3684 231.194 38.2728 231.846 38.2728C232.185 38.2728 232.563 38.3033 232.98 38.3641C233.397 38.4162 233.805 38.5118 234.205 38.6508C234.604 38.7811 234.973 38.9549 235.312 39.1721C235.651 39.3893 235.916 39.6543 236.107 39.967ZM262.263 40.5665C262.263 41.3398 262.159 42.0087 261.95 42.5735C261.742 43.1295 261.459 43.6074 261.103 44.007C260.747 44.4067 260.325 44.7455 259.839 45.0235C259.361 45.2929 258.848 45.5318 258.301 45.7403C257.754 45.9488 257.185 46.1356 256.594 46.3007C256.012 46.4658 255.434 46.6395 254.861 46.822C254.287 47.0044 253.735 47.2129 253.206 47.4475C252.676 47.6821 252.198 47.9731 251.772 48.3207C251.346 48.6595 250.981 49.0722 250.677 49.5587C250.373 50.0366 250.165 50.6143 250.052 51.292H262.263V53.6899H244.487C244.678 52.491 244.952 51.4571 245.308 50.5883C245.664 49.7108 246.077 48.9593 246.546 48.3337C247.015 47.7082 247.523 47.1869 248.071 46.7698C248.627 46.3441 249.196 45.9879 249.778 45.7012C250.36 45.4058 250.947 45.1625 251.537 44.9714C252.128 44.7716 252.697 44.5804 253.245 44.398C253.792 44.2155 254.3 44.0244 254.769 43.8246C255.247 43.6161 255.66 43.3598 256.007 43.0557C256.364 42.7516 256.642 42.3823 256.841 41.9479C257.041 41.5048 257.141 40.9575 257.141 40.3059C257.141 39.7151 257.041 39.1981 256.841 38.755C256.642 38.3119 256.368 37.9427 256.02 37.6473C255.673 37.3519 255.26 37.1304 254.782 36.9827C254.313 36.835 253.809 36.7611 253.271 36.7611C252.706 36.7611 252.18 36.8654 251.694 37.0739C251.216 37.2824 250.782 37.5778 250.391 37.9601C250.008 38.3337 249.674 38.7854 249.387 39.3154C249.109 39.8454 248.896 40.4362 248.748 41.0878L244.748 38.8723C245.104 38.1425 245.608 37.5083 246.259 36.9696C246.92 36.431 247.649 35.9835 248.449 35.6273C249.248 35.2624 250.078 34.9931 250.938 34.8193C251.807 34.6369 252.628 34.5456 253.401 34.5456C254.148 34.5456 254.887 34.576 255.616 34.6369C256.346 34.6977 257.037 34.8106 257.689 34.9757C258.349 35.1408 258.957 35.3667 259.513 35.6534C260.069 35.9401 260.551 36.3093 260.96 36.7611C261.368 37.2042 261.685 37.7385 261.911 38.3641C262.146 38.9896 262.263 39.7238 262.263 40.5665ZM275.725 53.6899H273.327V34.9236H276.69L288.093 47.8124V34.9236H290.478V53.6899H287.115L275.725 40.8141V53.6899ZM309.309 53.6899H304.904V51.8915C304.383 52.6039 303.753 53.1339 303.015 53.4814C302.285 53.8203 301.481 53.9897 300.604 53.9897C299.457 53.9897 298.432 53.7855 297.528 53.3772C296.624 52.9688 295.86 52.4128 295.234 51.709C294.609 50.9966 294.131 50.1626 293.801 49.2069C293.471 48.2512 293.306 47.226 293.306 46.1313C293.306 45.0366 293.471 44.0114 293.801 43.0557C294.131 42.1 294.609 41.2703 295.234 40.5665C295.86 39.8541 296.624 39.2937 297.528 38.8854C298.432 38.477 299.457 38.2728 300.604 38.2728C301.186 38.2728 301.737 38.3597 302.259 38.5335C302.789 38.7073 303.271 38.9549 303.705 39.2763C304.148 39.5891 304.535 39.9714 304.865 40.4232C305.204 40.8663 305.469 41.3615 305.66 41.9088L307.615 38.6378H309.309V53.6899ZM304.878 46.1313C304.878 45.7403 304.856 45.3276 304.813 44.8932C304.778 44.4588 304.713 44.0287 304.618 43.603C304.522 43.1773 304.387 42.7733 304.214 42.391C304.048 42.0001 303.831 41.6569 303.562 41.3615C303.301 41.0574 302.984 40.8185 302.611 40.6447C302.237 40.4709 301.803 40.3841 301.307 40.3841C300.812 40.3841 300.382 40.4753 300.017 40.6577C299.652 40.8315 299.34 41.0704 299.079 41.3745C298.818 41.6699 298.601 42.0131 298.427 42.4041C298.262 42.795 298.132 43.2034 298.036 43.6291C297.941 44.0548 297.871 44.4849 297.828 44.9193C297.793 45.345 297.776 45.749 297.776 46.1313C297.776 46.5135 297.793 46.9219 297.828 47.3563C297.871 47.7907 297.941 48.2208 298.036 48.6465C298.132 49.0722 298.262 49.4805 298.427 49.8715C298.601 50.2625 298.818 50.61 299.079 50.9141C299.34 51.2095 299.652 51.4484 300.017 51.6309C300.382 51.8046 300.812 51.8915 301.307 51.8915C301.759 51.8915 302.159 51.8003 302.506 51.6178C302.863 51.4267 303.171 51.1747 303.432 50.862C303.701 50.5492 303.927 50.193 304.109 49.7933C304.292 49.3937 304.439 48.981 304.552 48.5553C304.665 48.1295 304.748 47.7082 304.8 47.2911C304.852 46.8654 304.878 46.4788 304.878 46.1313ZM336.286 44.9062C336.286 45.9401 336.164 47.0175 335.921 48.1382C335.678 49.259 335.334 50.3537 334.891 51.4223C334.457 52.4823 333.931 53.4858 333.314 54.4328C332.698 55.3798 332.011 56.2008 331.255 56.8959L329.6 55.9966C329.852 55.5449 330.082 55.0366 330.291 54.4719C330.499 53.9071 330.691 53.312 330.864 52.6865C331.038 52.0609 331.19 51.418 331.321 50.7577C331.451 50.0974 331.559 49.4414 331.646 48.7898C331.742 48.1295 331.811 47.491 331.855 46.8741C331.898 46.2572 331.92 45.6795 331.92 45.1408C331.92 44.8367 331.911 44.5066 331.894 44.1504C331.877 43.7942 331.837 43.4379 331.777 43.0817C331.725 42.7255 331.642 42.3867 331.529 42.0652C331.416 41.7351 331.26 41.444 331.06 41.1921C330.869 40.9314 330.625 40.7272 330.33 40.5795C330.043 40.4232 329.696 40.345 329.287 40.345C328.888 40.345 328.545 40.4536 328.258 40.6708C327.98 40.8793 327.741 41.153 327.541 41.4918C327.341 41.8306 327.181 42.2129 327.059 42.6386C326.946 43.0644 326.859 43.4944 326.798 43.9288C326.738 44.3545 326.694 44.7629 326.668 45.1539C326.651 45.5448 326.642 45.875 326.642 46.1443V53.6899H322.25V46.6786C322.25 46.3745 322.254 46.0096 322.263 45.5839C322.272 45.1495 322.259 44.6977 322.224 44.2286C322.198 43.7594 322.141 43.2946 322.055 42.8341C321.976 42.365 321.846 41.9479 321.664 41.583C321.49 41.2181 321.251 40.9227 320.947 40.6968C320.643 40.4623 320.261 40.345 319.8 40.345C319.409 40.345 319.079 40.4536 318.81 40.6708C318.549 40.888 318.327 41.1703 318.145 41.5179C317.971 41.8567 317.832 42.2433 317.728 42.6777C317.632 43.1035 317.559 43.5335 317.506 43.9679C317.463 44.3936 317.437 44.802 317.428 45.1929C317.419 45.5752 317.415 45.8923 317.415 46.1443V53.6899H312.997V38.6378H314.691L316.307 42.1434C316.672 40.9271 317.246 39.9801 318.028 39.3024C318.818 38.616 319.865 38.2728 321.168 38.2728C322.341 38.2728 323.314 38.5161 324.088 39.0027C324.861 39.4892 325.469 40.2798 325.912 41.3745C326.164 40.8967 326.442 40.4666 326.746 40.0843C327.059 39.702 327.402 39.3762 327.776 39.1069C328.158 38.8376 328.579 38.6334 329.04 38.4944C329.5 38.3467 330.009 38.2728 330.565 38.2728C331.59 38.2728 332.463 38.4423 333.184 38.7811C333.914 39.1113 334.509 39.5717 334.97 40.1625C335.43 40.7533 335.764 41.457 335.973 42.2737C336.182 43.0817 336.286 43.9592 336.286 44.9062ZM342.841 46.5483C343.38 46.6699 343.918 46.7655 344.457 46.835C344.996 46.9045 345.539 46.9393 346.086 46.9393C346.659 46.9393 347.189 46.8871 347.676 46.7829C348.171 46.6699 348.597 46.4875 348.953 46.2355C349.318 45.9749 349.605 45.6317 349.813 45.206C350.022 44.7803 350.126 44.2503 350.126 43.6161C350.126 43.1035 350.056 42.6343 349.917 42.2086C349.778 41.7829 349.57 41.418 349.292 41.1139C349.023 40.8098 348.688 40.5752 348.288 40.4101C347.889 40.2364 347.424 40.1495 346.894 40.1495C346.399 40.1495 345.951 40.2407 345.552 40.4232C345.161 40.6056 344.813 40.8532 344.509 41.166C344.214 41.4701 343.957 41.8263 343.74 42.2346C343.532 42.643 343.358 43.0687 343.219 43.5118C343.08 43.9549 342.98 44.4023 342.919 44.8541C342.858 45.3059 342.828 45.7316 342.828 46.1313C342.828 46.2008 342.828 46.2703 342.828 46.3398C342.828 46.4093 342.832 46.4788 342.841 46.5483ZM353.697 43.577C353.697 44.1938 353.597 44.7455 353.397 45.232C353.197 45.7099 352.924 46.1313 352.576 46.4962C352.237 46.8611 351.842 47.1695 351.39 47.4215C350.938 47.6734 350.456 47.8819 349.944 48.047C349.431 48.2034 348.901 48.3163 348.354 48.3858C347.815 48.4553 347.289 48.4901 346.777 48.4901C346.125 48.4901 345.482 48.4467 344.848 48.3598C344.214 48.2642 343.588 48.1165 342.971 47.9167C343.067 48.4901 343.219 49.0374 343.427 49.5587C343.636 50.0713 343.914 50.5231 344.261 50.9141C344.609 51.2964 345.035 51.6004 345.539 51.8263C346.051 52.0522 346.655 52.1652 347.35 52.1652C347.811 52.1652 348.249 52.0957 348.666 51.9567C349.083 51.8176 349.466 51.6222 349.813 51.3702C350.161 51.1183 350.465 50.8185 350.725 50.471C350.995 50.1235 351.212 49.7368 351.377 49.3111L353.28 50.0149C352.993 50.7012 352.598 51.2964 352.094 51.8003C351.599 52.2955 351.034 52.7082 350.4 53.0383C349.774 53.3598 349.105 53.5987 348.393 53.7551C347.689 53.9115 346.99 53.9897 346.295 53.9897C345.148 53.9897 344.088 53.7985 343.115 53.4163C342.142 53.0253 341.303 52.4823 340.599 51.7872C339.896 51.0922 339.344 50.2625 338.944 49.2981C338.545 48.3337 338.345 47.2781 338.345 46.1313C338.345 44.9844 338.545 43.9288 338.944 42.9644C339.344 42.0001 339.896 41.1703 340.599 40.4753C341.303 39.7802 342.142 39.2416 343.115 38.8593C344.088 38.4683 345.148 38.2728 346.295 38.2728C346.851 38.2728 347.42 38.3119 348.002 38.3901C348.584 38.4683 349.149 38.5943 349.696 38.7681C350.243 38.9331 350.76 39.1504 351.247 39.4197C351.733 39.689 352.155 40.0235 352.511 40.4232C352.876 40.8141 353.162 41.2703 353.371 41.7915C353.588 42.3128 353.697 42.908 353.697 43.577Z" fill="white"/>
<rect x="62.7178" y="511.999" width="371.88" height="120.105" fill="#B8B8B8"/>
<path d="M108.06 531.85H105.7V541.304H108.06V531.85Z" fill="#FF2968"/>
<path d="M110.428 529.482H108.06V531.849V543.664H110.428V529.482Z" fill="#FF2968"/>
<path d="M108.06 538.937H105.7V546.024H108.06V538.937Z" fill="#C40851"/>
<path d="M136.417 538.937H134.057V546.024H136.417V538.937Z" fill="#C40851"/>
<path d="M131.69 543.664H129.33V550.751H131.69V543.664Z" fill="#C40851"/>
<path d="M129.33 546.024H126.97V553.111H129.33V546.024Z" fill="#C40851"/>
<path d="M134.057 541.297H131.697V548.384H134.057V541.297Z" fill="#C40851"/>
<path d="M126.962 548.392H124.603V555.479H126.962V548.392Z" fill="#C40851"/>
<path d="M124.603 550.751H122.243V557.839H124.603V550.751Z" fill="#C40851"/>
<path d="M110.42 541.297H108.06V548.384H110.42V541.297Z" fill="#C40851"/>
<path d="M112.788 543.664H110.428V550.751H112.788V543.664Z" fill="#C40851"/>
<path d="M115.148 546.024H112.788V553.111H115.148V546.024Z" fill="#C40851"/>
<path d="M117.515 548.392H115.156V555.479H117.515V548.392Z" fill="#C40851"/>
<path d="M119.875 550.751H117.515V557.839H119.875V550.751Z" fill="#C40851"/>
<path d="M122.235 553.111H119.875V560.199H122.235V553.111Z" fill="#C40851"/>
<path d="M112.788 529.482H110.428V543.664H112.788V529.482Z" fill="#FF2968"/>
<path d="M136.417 531.85H134.057V538.937H136.417V531.85Z" fill="#FF2968"/>
<path d="M138.777 536.569H136.417V538.929H138.777V536.569Z" fill="#C40851"/>
<path d="M115.148 529.482H112.788V546.024H115.148V529.482Z" fill="#FF2968"/>
<path d="M134.057 529.482H131.697V541.297H134.057V529.482Z" fill="#FF2968"/>
<path d="M117.515 531.85H115.156V548.392H117.515V531.85Z" fill="#FF2968"/>
<path d="M131.69 529.482H129.33V543.664H131.69V529.482Z" fill="#FF2968"/>
<path d="M124.603 534.209H122.243V550.752H124.603V534.209Z" fill="#FF2968"/>
<path d="M119.875 550.752V534.21V531.85H117.515V550.752H119.875Z" fill="#FF2968"/>
<path d="M129.33 546.024V529.482H126.97V531.849V546.024H129.33Z" fill="#FF2968"/>
<path d="M122.235 536.569H119.875V553.111H122.235V536.569Z" fill="#FF2968"/>
<path d="M126.962 531.85H124.603V548.392H126.962V531.85Z" fill="#FF2968"/>
<path d="M115.148 527.122H108.061V529.482H115.148V527.122Z" fill="#07042D"/>
<path d="M134.058 527.122H126.97V529.482H134.058V527.122Z" fill="#07042D"/>
<path d="M117.516 529.482H115.156V531.842H117.516V529.482Z" fill="#07042D"/>
<path d="M126.963 529.482H124.603V531.842H126.963V529.482Z" fill="#07042D"/>
<path d="M103.333 536.569H100.973V541.297H103.333V536.569Z" fill="#07042D"/>
<path d="M105.693 536.569H103.333V538.929H105.693V536.569Z" fill="#C40851"/>
<path d="M105.693 538.937H103.333V541.297H105.693V538.937Z" fill="#C40851"/>
<path d="M138.777 538.937H136.417V541.297H138.777V538.937Z" fill="#C40851"/>
<path d="M115.148 553.111H112.788V555.471H115.148V553.111Z" fill="#07042D"/>
<path d="M112.788 550.751H110.428V553.111H112.788V550.751Z" fill="#07042D"/>
<path d="M108.06 546.024H105.7V548.384H108.06V546.024Z" fill="#07042D"/>
<path d="M110.42 548.392H108.061V550.752H110.42V548.392Z" fill="#07042D"/>
<path d="M105.693 541.297H103.333V546.024H105.693V541.297Z" fill="#07042D"/>
<path d="M105.693 531.85H103.333V536.577H105.693V531.85Z" fill="#07042D"/>
<path d="M108.06 529.482H105.7V531.842H108.06V529.482Z" fill="#07042D"/>
<path d="M119.875 531.85H117.515V534.21H119.875V531.85Z" fill="#07042D"/>
<path d="M122.235 534.209H119.875V536.569H122.235V534.209Z" fill="#07042D"/>
<path d="M124.603 531.85H122.243V534.21H124.603V531.85Z" fill="#07042D"/>
<path d="M141.145 536.569H138.785V541.297H141.145V536.569Z" fill="#07042D"/>
<path d="M136.425 546.032H138.785V541.304H136.425V546.032Z" fill="#07042D"/>
<path d="M136.425 536.569H138.785V531.842H136.425V536.569Z" fill="#07042D"/>
<path d="M134.058 531.85H136.417V529.49H134.058V531.85Z" fill="#07042D"/>
<path d="M122.235 560.207H119.875V562.566H122.235V560.207Z" fill="#07042D"/>
<path d="M117.516 555.479H115.156V557.839H117.516V555.479Z" fill="#07042D"/>
<path d="M129.33 553.111H126.97V555.471H129.33V553.111Z" fill="#07042D"/>
<path d="M131.69 550.751H129.33V553.111H131.69V550.751Z" fill="#07042D"/>
<path d="M134.057 548.392H131.698V550.752H134.057V548.392Z" fill="#07042D"/>
<path d="M136.418 546.024H134.058V548.384H136.418V546.024Z" fill="#07042D"/>
<path d="M126.963 555.479H124.603V557.839H126.963V555.479Z" fill="#07042D"/>
<path d="M119.875 557.839H117.515V560.199H119.875V557.839Z" fill="#07042D"/>
<path d="M124.603 557.839H122.243V560.199H124.603V557.839Z" fill="#07042D"/>
<path d="M110.42 534.209H108.061V538.937H110.42V534.209Z" fill="#FFEEFF"/>
<path d="M112.788 531.85H110.428V534.21H112.788V531.85Z" fill="#FFEEFF"/>
<path d="M121.21 601.245L121.21 603.49L123.455 603.49L123.455 601.245L121.21 601.245Z" fill="#07042D"/>
<path d="M118.958 603.483L118.958 605.728L121.203 605.728L121.203 603.483L118.958 603.483Z" fill="#07042D"/>
<path d="M123.455 598.994L123.455 601.238L125.699 601.238L125.699 598.994L123.455 598.994Z" fill="#07042D"/>
<path d="M125.699 596.749L125.699 598.994L127.944 598.994L127.944 596.749L125.699 596.749Z" fill="#07042D"/>
<path d="M127.951 594.498L127.951 596.742L130.195 596.742L130.195 594.498L127.951 594.498Z" fill="#07042D"/>
<path d="M130.195 592.253L130.195 594.498L132.44 594.498L132.44 592.253L130.195 592.253Z" fill="#07042D"/>
<path d="M132.447 590.001L132.447 592.246L134.692 592.246L134.692 590.001L132.447 590.001Z" fill="#07042D"/>
<path d="M134.691 587.756L134.691 590.001L136.936 590.001L136.936 587.756L134.691 587.756Z" fill="#07042D"/>
<path d="M136.943 585.512L136.943 587.757L139.188 587.757L139.188 585.512L136.943 585.512Z" fill="#07042D"/>
<path d="M139.188 583.26L139.188 585.505L141.433 585.505L141.433 583.26L139.188 583.26Z" fill="#07042D"/>
<path d="M114.462 594.504L114.462 596.749L116.706 596.749L116.706 594.504L114.462 594.504Z" fill="#07042D"/>
<path d="M112.21 596.742L112.21 598.986L114.455 598.986L114.455 596.742L112.21 596.742Z" fill="#07042D"/>
<path d="M116.707 592.253L116.707 594.498L118.951 594.498L118.951 592.253L116.707 592.253Z" fill="#07042D"/>
<path d="M118.958 590.001L118.958 592.246L121.203 592.246L121.203 590.001L118.958 590.001Z" fill="#07042D"/>
<path d="M121.203 587.756L121.203 590.001L123.448 590.001L123.448 587.756L121.203 587.756Z" fill="#07042D"/>
<path d="M123.455 585.505L123.455 587.75L125.699 587.75L125.699 585.505L123.455 585.505Z" fill="#07042D"/>
<path d="M125.699 583.26L125.699 585.505L127.944 585.505L127.944 583.26L125.699 583.26Z" fill="#07042D"/>
<path d="M121.21 610.231L123.455 610.231L123.455 607.986L121.21 607.986L121.21 610.231Z" fill="#07042D"/>
<path d="M123.455 614.727L125.699 614.727L125.699 610.231L123.455 610.231L123.455 614.727Z" fill="#07042D"/>
<path d="M118.959 607.979L121.203 607.979L121.203 605.734L118.959 605.734L118.959 607.979Z" fill="#07042D"/>
<path d="M116.714 605.734L118.958 605.734L118.958 603.49L116.714 603.49L116.714 605.734Z" fill="#07042D"/>
<path d="M114.469 603.483L116.714 603.483L116.714 601.238L114.469 601.238L114.469 603.483Z" fill="#07042D"/>
<path d="M112.217 601.238L114.462 601.238L114.462 598.994L112.217 598.994L112.217 601.238Z" fill="#07042D"/>
<path d="M109.973 598.994L112.218 598.994L112.218 596.749L109.973 596.749L109.973 598.994Z" fill="#07042D"/>
<path d="M107.721 596.742L109.966 596.742L109.966 594.498L107.721 594.498L107.721 596.742Z" fill="#07042D"/>
<path d="M103.225 594.498L107.721 594.498L107.721 592.253L103.225 592.253L103.225 594.498Z" fill="#07042D"/>
<path d="M121.21 614.727L123.455 614.727L123.455 612.482L121.21 612.482L121.21 614.727Z" fill="#07042D"/>
<path d="M112.217 610.231L114.462 610.231L114.462 607.986L112.217 607.986L112.217 610.231Z" fill="#07042D"/>
<path d="M109.973 612.476L112.218 612.476L112.218 610.231L109.973 610.231L109.973 612.476Z" fill="#07042D"/>
<path d="M103.225 614.727L105.469 614.727L105.469 612.482L103.225 612.482L103.225 614.727Z" fill="#07042D"/>
<path d="M105.477 616.972L107.721 616.972L107.721 614.727L105.477 614.727L105.477 616.972Z" fill="#07042D"/>
<path d="M100.98 612.476L103.225 612.476L103.225 610.231L100.98 610.231L100.98 612.476Z" fill="#07042D"/>
<path d="M107.721 616.972L109.966 616.972L109.966 612.475L107.721 612.475L107.721 616.972Z" fill="#07042D"/>
<path d="M105.477 607.979L107.721 607.979L107.721 605.734L105.477 605.734L105.477 607.979Z" fill="#07042D"/>
<path d="M100.973 610.231L105.469 610.231L105.469 607.986L100.973 607.986L100.973 610.231Z" fill="#07042D"/>
<path d="M107.721 605.734L109.966 605.734L109.966 603.49L107.721 603.49L107.721 605.734Z" fill="#07042D"/>
<path d="M103.225 596.742L105.469 596.742L105.469 594.498L103.225 594.498L103.225 596.742Z" fill="#07042D"/>
<path d="M118.959 612.476L121.203 612.476L121.203 610.231L118.959 610.231L118.959 612.476Z" fill="#07042D"/>
<path d="M116.714 610.231L118.958 610.231L118.958 607.986L116.714 607.986L116.714 610.231Z" fill="#07042D"/>
<path d="M114.469 607.979L116.714 607.979L116.714 605.734L114.469 605.734L114.469 607.979Z" fill="#07042D"/>
<path d="M112.217 605.734L114.462 605.734L114.462 603.49L112.217 603.49L112.217 605.734Z" fill="#07042D"/>
<path d="M109.973 603.483L112.218 603.483L112.218 601.238L109.973 601.238L109.973 603.483Z" fill="#07042D"/>
<path d="M107.721 601.238L109.966 601.238L109.966 598.994L107.721 598.994L107.721 601.238Z" fill="#07042D"/>
<path d="M105.477 598.994L107.721 598.994L107.721 596.749L105.477 596.749L105.477 598.994Z" fill="#07042D"/>
<path d="M127.944 581.016L127.944 583.26L130.188 583.26L130.188 581.016L127.944 581.016Z" fill="#07042D"/>
<path d="M130.195 578.771L130.195 581.016L132.44 581.016L132.44 578.771L130.195 578.771Z" fill="#07042D"/>
<path d="M132.44 576.52L132.44 578.764L134.685 578.764L134.685 576.52L132.44 576.52Z" fill="#07042D"/>
<path d="M134.685 574.275L134.685 576.52L143.677 576.52L143.677 574.275L134.685 574.275Z" fill="#07042D"/>
<path d="M141.433 576.519L141.433 583.26L143.677 583.26L143.677 576.519L141.433 576.519Z" fill="#07042D"/>
<path d="M107.721 612.476L109.966 612.476L109.966 605.735L107.721 605.735L107.721 612.476Z" fill="#C9704F"/>
<path d="M112.217 607.979L114.462 607.979L114.462 605.734L112.217 605.734L112.217 607.979Z" fill="#C9704F"/>
<path d="M103.225 612.476L105.469 612.476L105.469 610.231L103.225 610.231L103.225 612.476Z" fill="#C9704F"/>
<path d="M139.188 583.26L141.433 583.26L141.433 576.519L139.188 576.519L139.188 583.26Z" fill="#E5E5EC"/>
<path d="M114.469 601.238L116.714 601.238L116.714 596.742L114.469 596.742L114.469 601.238Z" fill="#ABABC3"/>
<path d="M136.943 585.505L139.188 585.505L139.188 576.512L136.943 576.512L136.943 585.505Z" fill="#ABABC3"/>
<path d="M134.691 587.75L136.936 587.75L136.936 576.512L134.691 576.512L134.691 587.75Z" fill="#ABABC3"/>
<path d="M132.447 590.001L134.691 590.001L134.691 578.764L132.447 578.764L132.447 590.001Z" fill="#ABABC3"/>
<path d="M130.203 592.246L132.447 592.246L132.447 581.008L130.203 581.008L130.203 592.246Z" fill="#ABABC3"/>
<path d="M127.951 594.498L130.195 594.498L130.195 583.26L127.951 583.26L127.951 594.498Z" fill="#ABABC3"/>
<path d="M125.706 596.742L127.951 596.742L127.951 585.505L125.706 585.505L125.706 596.742Z" fill="#ABABC3"/>
<path d="M123.455 598.994L125.699 598.994L125.699 587.757L123.455 587.757L123.455 598.994Z" fill="#ABABC3"/>
<path d="M121.21 601.238L123.455 601.238L123.455 590.001L121.21 590.001L121.21 601.238Z" fill="#ABABC3"/>
<path d="M118.959 603.483L121.203 603.483L121.203 592.246L118.959 592.246L118.959 603.483Z" fill="#ABABC3"/>
<path d="M116.714 603.483L118.958 603.483L118.958 594.49L116.714 594.49L116.714 603.483Z" fill="#ABABC3"/>
<path d="M116.714 598.994L116.714 601.238L118.958 601.238L118.958 598.994L116.714 598.994Z" fill="#60608D"/>
<path d="M121.21 610.231L121.21 612.476L123.454 612.476L123.454 610.231L121.21 610.231Z" fill="#BE523D"/>
<path d="M118.958 607.98L118.958 610.224L121.203 610.224L121.203 607.98L118.958 607.98Z" fill="#AF3F27"/>
<path d="M116.714 605.735L116.714 607.979L118.958 607.979L118.958 605.735L116.714 605.735Z" fill="#BE523D"/>
<path d="M114.462 603.49L114.462 605.735L116.706 605.735L116.706 603.49L114.462 603.49Z" fill="#AF3F27"/>
<path d="M112.218 601.238L112.218 603.483L114.462 603.483L114.462 601.238L112.218 601.238Z" fill="#BE523D"/>
<path d="M109.966 598.994L109.966 601.238L112.21 601.238L112.21 598.994L109.966 598.994Z" fill="#AF3F27"/>
<path d="M107.714 596.742L107.714 598.987L109.958 598.987L109.958 596.742L107.714 596.742Z" fill="#BE523D"/>
<path d="M109.973 603.49L109.973 610.231L112.217 610.231L112.217 603.49L109.973 603.49Z" fill="#AF3F27"/>
<path d="M105.477 607.979L105.477 614.72L107.721 614.72L107.721 607.979L105.477 607.979Z" fill="#AF3F27"/>
<path d="M105.477 594.498L105.477 596.742L107.721 596.742L107.721 594.498L105.477 594.498Z" fill="#AF3F27"/>
<path d="M118.958 596.742L118.958 598.987L121.203 598.987L121.203 596.742L118.958 596.742Z" fill="#60608D"/>
<path d="M121.21 594.498L121.21 596.742L123.454 596.742L123.454 594.498L121.21 594.498Z" fill="#60608D"/>
<path d="M123.455 592.253L123.455 594.498L125.699 594.498L125.699 592.253L123.455 592.253Z" fill="#60608D"/>
<path d="M125.706 590.008L125.706 592.253L127.951 592.253L127.951 590.008L125.706 590.008Z" fill="#60608D"/>
<path d="M127.951 587.757L127.951 590.001L130.195 590.001L130.195 587.757L127.951 587.757Z" fill="#60608D"/>
<path d="M130.203 585.512L130.203 587.757L132.447 587.757L132.447 585.512L130.203 585.512Z" fill="#60608D"/>
<path d="M132.447 583.26L132.447 585.505L134.691 585.505L134.691 583.26L132.447 583.26Z" fill="#60608D"/>
<path d="M134.691 581.009L134.691 583.253L136.936 583.253L136.936 581.009L134.691 581.009Z" fill="#60608D"/>
<path d="M134.692 578.764L141.433 578.764L141.433 576.52L134.692 576.52L134.692 578.764Z" fill="#E5E5EC"/>
<path d="M132.447 590.001L134.691 590.001L134.691 587.756L132.447 587.756L132.447 590.001Z" fill="#E5E5EC"/>
<path d="M130.203 592.246L132.447 592.246L132.447 590.001L130.203 590.001L130.203 592.246Z" fill="#E5E5EC"/>
<path d="M134.691 587.75L136.936 587.75L136.936 585.505L134.691 585.505L134.691 587.75Z" fill="#E5E5EC"/>
<path d="M136.943 585.505L139.188 585.505L139.188 583.26L136.943 583.26L136.943 585.505Z" fill="#E5E5EC"/>
<path d="M123.455 598.994L125.699 598.994L125.699 596.749L123.455 596.749L123.455 598.994Z" fill="#E5E5EC"/>
<path d="M121.21 601.238L123.455 601.238L123.455 598.994L121.21 598.994L121.21 601.238Z" fill="#E5E5EC"/>
<path d="M118.959 603.483L121.203 603.483L121.203 601.238L118.959 601.238L118.959 603.483Z" fill="#E5E5EC"/>
<path d="M118.959 594.498L121.203 594.498L121.203 592.253L118.959 592.253L118.959 594.498Z" fill="#E5E5EC"/>
<path d="M127.951 594.498L130.195 594.498L130.195 592.253L127.951 592.253L127.951 594.498Z" fill="#E5E5EC"/>
<path d="M125.706 596.742L127.951 596.742L127.951 594.498L125.706 594.498L125.706 596.742Z" fill="#E5E5EC"/>
<path d="M310.74 542.892C310.74 544.41 310.568 545.784 310.223 547.014C309.878 548.233 309.401 549.325 308.791 550.291C308.193 551.245 307.492 552.073 306.687 552.774C305.882 553.475 305.02 554.056 304.1 554.516C303.181 554.964 302.226 555.298 301.238 555.516C300.249 555.735 299.272 555.844 298.306 555.844C297.329 555.844 296.346 555.723 295.357 555.482C294.368 555.252 293.42 554.901 292.511 554.43C291.603 553.947 290.752 553.349 289.959 552.636C289.177 551.923 288.493 551.09 287.907 550.136C287.332 549.17 286.878 548.083 286.544 546.876C286.211 545.669 286.044 544.341 286.044 542.892C286.044 541.363 286.211 539.984 286.544 538.753C286.889 537.523 287.355 536.425 287.941 535.46C288.528 534.494 289.217 533.666 290.011 532.976C290.804 532.275 291.655 531.7 292.563 531.252C293.471 530.803 294.414 530.47 295.391 530.251C296.369 530.033 297.34 529.924 298.306 529.924C299.341 529.924 300.37 530.033 301.393 530.251C302.416 530.47 303.388 530.803 304.307 531.252C305.227 531.7 306.078 532.275 306.86 532.976C307.653 533.666 308.331 534.494 308.895 535.46C309.47 536.425 309.918 537.523 310.24 538.753C310.573 539.984 310.74 541.363 310.74 542.892ZM303.945 542.892C303.945 542.134 303.905 541.358 303.825 540.564C303.756 539.771 303.635 539.001 303.462 538.253C303.301 537.506 303.077 536.805 302.79 536.149C302.514 535.494 302.163 534.925 301.738 534.442C301.324 533.948 300.83 533.563 300.255 533.287C299.691 532.999 299.042 532.855 298.306 532.855C297.628 532.855 297.018 532.999 296.478 533.287C295.949 533.563 295.478 533.942 295.064 534.425C294.661 534.908 294.316 535.477 294.029 536.132C293.753 536.787 293.523 537.489 293.339 538.236C293.167 538.972 293.04 539.742 292.96 540.547C292.879 541.34 292.839 542.122 292.839 542.892C292.839 543.651 292.879 544.427 292.96 545.221C293.04 546.014 293.167 546.784 293.339 547.531C293.523 548.267 293.753 548.963 294.029 549.618C294.316 550.274 294.661 550.848 295.064 551.343C295.478 551.826 295.949 552.211 296.478 552.498C297.018 552.786 297.628 552.929 298.306 552.929C298.95 552.929 299.536 552.786 300.065 552.498C300.605 552.199 301.082 551.803 301.496 551.308C301.922 550.802 302.284 550.222 302.583 549.566C302.893 548.9 303.146 548.198 303.342 547.463C303.549 546.715 303.698 545.951 303.79 545.169C303.894 544.387 303.945 543.628 303.945 542.892ZM338.781 542.892C338.781 544.41 338.609 545.784 338.264 547.014C337.919 548.233 337.442 549.325 336.833 550.291C336.235 551.245 335.533 552.073 334.729 552.774C333.924 553.475 333.062 554.056 332.142 554.516C331.222 554.964 330.268 555.298 329.279 555.516C328.29 555.735 327.313 555.844 326.347 555.844C325.37 555.844 324.387 555.723 323.398 555.482C322.41 555.252 321.461 554.901 320.553 554.43C319.644 553.947 318.794 553.349 318 552.636C317.219 551.923 316.535 551.09 315.948 550.136C315.373 549.17 314.919 548.083 314.586 546.876C314.252 545.669 314.086 544.341 314.086 542.892C314.086 541.363 314.252 539.984 314.586 538.753C314.931 537.523 315.396 536.425 315.983 535.46C316.569 534.494 317.259 533.666 318.052 532.976C318.845 532.275 319.696 531.7 320.605 531.252C321.513 530.803 322.456 530.47 323.433 530.251C324.41 530.033 325.382 529.924 326.347 529.924C327.382 529.924 328.411 530.033 329.434 530.251C330.458 530.47 331.429 530.803 332.349 531.252C333.269 531.7 334.119 532.275 334.901 532.976C335.694 533.666 336.373 534.494 336.936 535.46C337.511 536.425 337.959 537.523 338.281 538.753C338.615 539.984 338.781 541.363 338.781 542.892ZM331.987 542.892C331.987 542.134 331.946 541.358 331.866 540.564C331.797 539.771 331.676 539.001 331.504 538.253C331.343 537.506 331.119 536.805 330.831 536.149C330.555 535.494 330.205 534.925 329.779 534.442C329.365 533.948 328.871 533.563 328.296 533.287C327.733 532.999 327.083 532.855 326.347 532.855C325.669 532.855 325.06 532.999 324.519 533.287C323.99 533.563 323.519 533.942 323.105 534.425C322.703 534.908 322.358 535.477 322.07 536.132C321.794 536.787 321.565 537.489 321.381 538.236C321.208 538.972 321.082 539.742 321.001 540.547C320.921 541.34 320.88 542.122 320.88 542.892C320.88 543.651 320.921 544.427 321.001 545.221C321.082 546.014 321.208 546.784 321.381 547.531C321.565 548.267 321.794 548.963 322.07 549.618C322.358 550.274 322.703 550.848 323.105 551.343C323.519 551.826 323.99 552.211 324.519 552.498C325.06 552.786 325.669 552.929 326.347 552.929C326.991 552.929 327.577 552.786 328.106 552.498C328.647 552.199 329.124 551.803 329.538 551.308C329.963 550.802 330.325 550.222 330.624 549.566C330.935 548.9 331.188 548.198 331.383 547.463C331.59 546.715 331.739 545.951 331.831 545.169C331.935 544.387 331.987 543.628 331.987 542.892ZM366.823 542.892C366.823 544.41 366.65 545.784 366.305 547.014C365.96 548.233 365.483 549.325 364.874 550.291C364.276 551.245 363.575 552.073 362.77 552.774C361.965 553.475 361.103 554.056 360.183 554.516C359.263 554.964 358.309 555.298 357.32 555.516C356.332 555.735 355.354 555.844 354.389 555.844C353.411 555.844 352.428 555.723 351.44 555.482C350.451 555.252 349.502 554.901 348.594 554.43C347.686 553.947 346.835 553.349 346.042 552.636C345.26 551.923 344.576 551.09 343.99 550.136C343.415 549.17 342.961 548.083 342.627 546.876C342.294 545.669 342.127 544.341 342.127 542.892C342.127 541.363 342.294 539.984 342.627 538.753C342.972 537.523 343.438 536.425 344.024 535.46C344.61 534.494 345.3 533.666 346.094 532.976C346.887 532.275 347.738 531.7 348.646 531.252C349.554 530.803 350.497 530.47 351.474 530.251C352.451 530.033 353.423 529.924 354.389 529.924C355.423 529.924 356.452 530.033 357.476 530.251C358.499 530.47 359.47 530.803 360.39 531.252C361.31 531.7 362.161 532.275 362.942 532.976C363.736 533.666 364.414 534.494 364.977 535.46C365.552 536.425 366.001 537.523 366.323 538.753C366.656 539.984 366.823 541.363 366.823 542.892ZM360.028 542.892C360.028 542.134 359.988 541.358 359.907 540.564C359.838 539.771 359.718 539.001 359.545 538.253C359.384 537.506 359.16 536.805 358.873 536.149C358.597 535.494 358.246 534.925 357.821 534.442C357.407 533.948 356.912 533.563 356.337 533.287C355.774 532.999 355.124 532.855 354.389 532.855C353.71 532.855 353.101 532.999 352.561 533.287C352.032 533.563 351.56 533.942 351.146 534.425C350.744 534.908 350.399 535.477 350.112 536.132C349.836 536.787 349.606 537.489 349.422 538.236C349.249 538.972 349.123 539.742 349.043 540.547C348.962 541.34 348.922 542.122 348.922 542.892C348.922 543.651 348.962 544.427 349.043 545.221C349.123 546.014 349.249 546.784 349.422 547.531C349.606 548.267 349.836 548.963 350.112 549.618C350.399 550.274 350.744 550.848 351.146 551.343C351.56 551.826 352.032 552.211 352.561 552.498C353.101 552.786 353.71 552.929 354.389 552.929C355.033 552.929 355.619 552.786 356.148 552.498C356.688 552.199 357.165 551.803 357.579 551.308C358.004 550.802 358.367 550.222 358.666 549.566C358.976 548.9 359.229 548.198 359.424 547.463C359.631 546.715 359.781 545.951 359.873 545.169C359.976 544.387 360.028 543.628 360.028 542.892ZM394.864 542.892C394.864 544.41 394.692 545.784 394.347 547.014C394.002 548.233 393.525 549.325 392.915 550.291C392.318 551.245 391.616 552.073 390.811 552.774C390.007 553.475 389.144 554.056 388.225 554.516C387.305 554.964 386.351 555.298 385.362 555.516C384.373 555.735 383.396 555.844 382.43 555.844C381.453 555.844 380.47 555.723 379.481 555.482C378.492 555.252 377.544 554.901 376.636 554.43C375.727 553.947 374.876 553.349 374.083 552.636C373.301 551.923 372.617 551.09 372.031 550.136C371.456 549.17 371.002 548.083 370.669 546.876C370.335 545.669 370.168 544.341 370.168 542.892C370.168 541.363 370.335 539.984 370.669 538.753C371.013 537.523 371.479 536.425 372.065 535.46C372.652 534.494 373.342 533.666 374.135 532.976C374.928 532.275 375.779 531.7 376.687 531.252C377.596 530.803 378.538 530.47 379.516 530.251C380.493 530.033 381.464 529.924 382.43 529.924C383.465 529.924 384.494 530.033 385.517 530.251C386.54 530.47 387.512 530.803 388.432 531.252C389.351 531.7 390.202 532.275 390.984 532.976C391.777 533.666 392.455 534.494 393.019 535.46C393.594 536.425 394.042 537.523 394.364 538.753C394.697 539.984 394.864 541.363 394.864 542.892ZM388.069 542.892C388.069 542.134 388.029 541.358 387.949 540.564C387.88 539.771 387.759 539.001 387.586 538.253C387.426 537.506 387.201 536.805 386.914 536.149C386.638 535.494 386.287 534.925 385.862 534.442C385.448 533.948 384.954 533.563 384.379 533.287C383.815 532.999 383.166 532.855 382.43 532.855C381.752 532.855 381.142 532.999 380.602 533.287C380.073 533.563 379.602 533.942 379.188 534.425C378.785 534.908 378.441 535.477 378.153 536.132C377.877 536.787 377.647 537.489 377.463 538.236C377.291 538.972 377.164 539.742 377.084 540.547C377.003 541.34 376.963 542.122 376.963 542.892C376.963 543.651 377.003 544.427 377.084 545.221C377.164 546.014 377.291 546.784 377.463 547.531C377.647 548.267 377.877 548.963 378.153 549.618C378.441 550.274 378.785 550.848 379.188 551.343C379.602 551.826 380.073 552.211 380.602 552.498C381.142 552.786 381.752 552.929 382.43 552.929C383.074 552.929 383.66 552.786 384.189 552.498C384.729 552.199 385.207 551.803 385.62 551.308C386.046 550.802 386.408 550.222 386.707 549.566C387.017 548.9 387.27 548.198 387.466 547.463C387.673 546.715 387.822 545.951 387.914 545.169C388.018 544.387 388.069 543.628 388.069 542.892Z" fill="#2B167D"/>
<path d="M310.947 597.162C310.947 598.68 310.774 600.053 310.429 601.284C310.085 602.502 309.607 603.595 308.998 604.56C308.4 605.515 307.699 606.342 306.894 607.044C306.089 607.745 305.227 608.326 304.307 608.785C303.387 609.234 302.433 609.567 301.444 609.786C300.456 610.004 299.478 610.113 298.513 610.113C297.535 610.113 296.552 609.993 295.564 609.751C294.575 609.521 293.626 609.171 292.718 608.699C291.81 608.216 290.959 607.619 290.166 606.906C289.384 606.193 288.7 605.359 288.114 604.405C287.539 603.439 287.085 602.353 286.751 601.146C286.418 599.938 286.251 598.611 286.251 597.162C286.251 595.633 286.418 594.253 286.751 593.023C287.096 591.793 287.562 590.695 288.148 589.729C288.734 588.763 289.424 587.936 290.218 587.246C291.011 586.544 291.862 585.97 292.77 585.521C293.678 585.073 294.621 584.739 295.598 584.521C296.575 584.302 297.547 584.193 298.513 584.193C299.547 584.193 300.576 584.302 301.6 584.521C302.623 584.739 303.594 585.073 304.514 585.521C305.434 585.97 306.285 586.544 307.067 587.246C307.86 587.936 308.538 588.763 309.102 589.729C309.676 590.695 310.125 591.793 310.447 593.023C310.78 594.253 310.947 595.633 310.947 597.162ZM304.152 597.162C304.152 596.403 304.112 595.627 304.031 594.834C303.962 594.04 303.842 593.27 303.669 592.523C303.508 591.776 303.284 591.074 302.997 590.419C302.721 589.764 302.37 589.194 301.945 588.712C301.531 588.217 301.036 587.832 300.461 587.556C299.898 587.269 299.249 587.125 298.513 587.125C297.834 587.125 297.225 587.269 296.685 587.556C296.156 587.832 295.684 588.211 295.271 588.694C294.868 589.177 294.523 589.746 294.236 590.402C293.96 591.057 293.73 591.758 293.546 592.506C293.374 593.241 293.247 594.012 293.167 594.817C293.086 595.61 293.046 596.392 293.046 597.162C293.046 597.921 293.086 598.697 293.167 599.49C293.247 600.283 293.374 601.054 293.546 601.801C293.73 602.537 293.96 603.232 294.236 603.888C294.523 604.543 294.868 605.118 295.271 605.612C295.684 606.095 296.156 606.48 296.685 606.768C297.225 607.055 297.834 607.199 298.513 607.199C299.157 607.199 299.743 607.055 300.272 606.768C300.812 606.469 301.289 606.072 301.703 605.578C302.129 605.072 302.491 604.491 302.79 603.836C303.1 603.169 303.353 602.468 303.548 601.732C303.755 600.985 303.905 600.22 303.997 599.438C304.1 598.657 304.152 597.898 304.152 597.162ZM338.988 597.162C338.988 598.68 338.816 600.053 338.471 601.284C338.126 602.502 337.649 603.595 337.039 604.56C336.442 605.515 335.74 606.342 334.935 607.044C334.131 607.745 333.268 608.326 332.349 608.785C331.429 609.234 330.475 609.567 329.486 609.786C328.497 610.004 327.52 610.113 326.554 610.113C325.577 610.113 324.594 609.993 323.605 609.751C322.616 609.521 321.668 609.171 320.76 608.699C319.851 608.216 319.001 607.619 318.207 606.906C317.425 606.193 316.741 605.359 316.155 604.405C315.58 603.439 315.126 602.353 314.793 601.146C314.459 599.938 314.292 598.611 314.292 597.162C314.292 595.633 314.459 594.253 314.793 593.023C315.137 591.793 315.603 590.695 316.189 589.729C316.776 588.763 317.466 587.936 318.259 587.246C319.052 586.544 319.903 585.97 320.811 585.521C321.72 585.073 322.662 584.739 323.64 584.521C324.617 584.302 325.588 584.193 326.554 584.193C327.589 584.193 328.618 584.302 329.641 584.521C330.664 584.739 331.636 585.073 332.556 585.521C333.475 585.97 334.326 586.544 335.108 587.246C335.901 587.936 336.58 588.763 337.143 589.729C337.718 590.695 338.166 591.793 338.488 593.023C338.821 594.253 338.988 595.633 338.988 597.162ZM332.193 597.162C332.193 596.403 332.153 595.627 332.073 594.834C332.004 594.04 331.883 593.27 331.711 592.523C331.55 591.776 331.325 591.074 331.038 590.419C330.762 589.764 330.411 589.194 329.986 588.712C329.572 588.217 329.078 587.832 328.503 587.556C327.939 587.269 327.29 587.125 326.554 587.125C325.876 587.125 325.266 587.269 324.726 587.556C324.197 587.832 323.726 588.211 323.312 588.694C322.91 589.177 322.565 589.746 322.277 590.402C322.001 591.057 321.771 591.758 321.587 592.506C321.415 593.241 321.288 594.012 321.208 594.817C321.127 595.61 321.087 596.392 321.087 597.162C321.087 597.921 321.127 598.697 321.208 599.49C321.288 600.283 321.415 601.054 321.587 601.801C321.771 602.537 322.001 603.232 322.277 603.888C322.565 604.543 322.91 605.118 323.312 605.612C323.726 606.095 324.197 606.48 324.726 606.768C325.266 607.055 325.876 607.199 326.554 607.199C327.198 607.199 327.784 607.055 328.313 606.768C328.853 606.469 329.331 606.072 329.745 605.578C330.17 605.072 330.532 604.491 330.831 603.836C331.141 603.169 331.394 602.468 331.59 601.732C331.797 600.985 331.946 600.22 332.038 599.438C332.142 598.657 332.193 597.898 332.193 597.162ZM367.03 597.162C367.03 598.68 366.857 600.053 366.512 601.284C366.167 602.502 365.69 603.595 365.081 604.56C364.483 605.515 363.782 606.342 362.977 607.044C362.172 607.745 361.31 608.326 360.39 608.785C359.47 609.234 358.516 609.567 357.527 609.786C356.538 610.004 355.561 610.113 354.595 610.113C353.618 610.113 352.635 609.993 351.646 609.751C350.658 609.521 349.709 609.171 348.801 608.699C347.893 608.216 347.042 607.619 346.249 606.906C345.467 606.193 344.783 605.359 344.196 604.405C343.621 603.439 343.167 602.353 342.834 601.146C342.501 599.938 342.334 598.611 342.334 597.162C342.334 595.633 342.501 594.253 342.834 593.023C343.179 591.793 343.644 590.695 344.231 589.729C344.817 588.763 345.507 587.936 346.3 587.246C347.094 586.544 347.944 585.97 348.853 585.521C349.761 585.073 350.704 584.739 351.681 584.521C352.658 584.302 353.63 584.193 354.595 584.193C355.63 584.193 356.659 584.302 357.682 584.521C358.706 584.739 359.677 585.073 360.597 585.521C361.517 585.97 362.367 586.544 363.149 587.246C363.943 587.936 364.621 588.763 365.184 589.729C365.759 590.695 366.208 591.793 366.529 593.023C366.863 594.253 367.03 595.633 367.03 597.162ZM360.235 597.162C360.235 596.403 360.195 595.627 360.114 594.834C360.045 594.04 359.924 593.27 359.752 592.523C359.591 591.776 359.367 591.074 359.079 590.419C358.803 589.764 358.453 589.194 358.027 588.712C357.613 588.217 357.119 587.832 356.544 587.556C355.981 587.269 355.331 587.125 354.595 587.125C353.917 587.125 353.308 587.269 352.767 587.556C352.239 587.832 351.767 588.211 351.353 588.694C350.951 589.177 350.606 589.746 350.319 590.402C350.043 591.057 349.813 591.758 349.629 592.506C349.456 593.241 349.33 594.012 349.249 594.817C349.169 595.61 349.129 596.392 349.129 597.162C349.129 597.921 349.169 598.697 349.249 599.49C349.33 600.283 349.456 601.054 349.629 601.801C349.813 602.537 350.043 603.232 350.319 603.888C350.606 604.543 350.951 605.118 351.353 605.612C351.767 606.095 352.239 606.48 352.767 606.768C353.308 607.055 353.917 607.199 354.595 607.199C355.239 607.199 355.826 607.055 356.355 606.768C356.895 606.469 357.372 606.072 357.786 605.578C358.211 605.072 358.573 604.491 358.872 603.836C359.183 603.169 359.436 602.468 359.631 601.732C359.838 600.985 359.988 600.22 360.08 599.438C360.183 598.657 360.235 597.898 360.235 597.162ZM395.071 597.162C395.071 598.68 394.898 600.053 394.554 601.284C394.209 602.502 393.732 603.595 393.122 604.56C392.524 605.515 391.823 606.342 391.018 607.044C390.213 607.745 389.351 608.326 388.431 608.785C387.512 609.234 386.557 609.567 385.569 609.786C384.58 610.004 383.603 610.113 382.637 610.113C381.66 610.113 380.677 609.993 379.688 609.751C378.699 609.521 377.751 609.171 376.842 608.699C375.934 608.216 375.083 607.619 374.29 606.906C373.508 606.193 372.824 605.359 372.238 604.405C371.663 603.439 371.209 602.353 370.875 601.146C370.542 599.938 370.375 598.611 370.375 597.162C370.375 595.633 370.542 594.253 370.875 593.023C371.22 591.793 371.686 590.695 372.272 589.729C372.859 588.763 373.548 587.936 374.342 587.246C375.135 586.544 375.986 585.97 376.894 585.521C377.802 585.073 378.745 584.739 379.722 584.521C380.7 584.302 381.671 584.193 382.637 584.193C383.672 584.193 384.701 584.302 385.724 584.521C386.747 584.739 387.719 585.073 388.638 585.521C389.558 585.97 390.409 586.544 391.191 587.246C391.984 587.936 392.662 588.763 393.226 589.729C393.8 590.695 394.249 591.793 394.571 593.023C394.904 594.253 395.071 595.633 395.071 597.162ZM388.276 597.162C388.276 596.403 388.236 595.627 388.155 594.834C388.086 594.04 387.966 593.27 387.793 592.523C387.632 591.776 387.408 591.074 387.121 590.419C386.845 589.764 386.494 589.194 386.069 588.712C385.655 588.217 385.16 587.832 384.586 587.556C384.022 587.269 383.373 587.125 382.637 587.125C381.958 587.125 381.349 587.269 380.809 587.556C380.28 587.832 379.809 588.211 379.395 588.694C378.992 589.177 378.647 589.746 378.36 590.402C378.084 591.057 377.854 591.758 377.67 592.506C377.498 593.241 377.371 594.012 377.291 594.817C377.21 595.61 377.17 596.392 377.17 597.162C377.17 597.921 377.21 598.697 377.291 599.49C377.371 600.283 377.498 601.054 377.67 601.801C377.854 602.537 378.084 603.232 378.36 603.888C378.647 604.543 378.992 605.118 379.395 605.612C379.809 606.095 380.28 606.48 380.809 606.768C381.349 607.055 381.958 607.199 382.637 607.199C383.281 607.199 383.867 607.055 384.396 606.768C384.936 606.469 385.413 606.072 385.827 605.578C386.253 605.072 386.615 604.491 386.914 603.836C387.224 603.169 387.477 602.468 387.673 601.732C387.879 600.985 388.029 600.22 388.121 599.438C388.224 598.657 388.276 597.898 388.276 597.162Z" fill="#2B167D"/>
</svg>
