<svg width="621" height="799" viewBox="0 0 621 799" fill="none" xmlns="http://www.w3.org/2000/svg">
<path d="M619 782.545V16.4553C619 8.47186 612.528 2 604.545 2L16.4553 2C8.47186 2 2 8.47188 2 16.4553V782.545C2 790.528 8.47186 797 16.4553 797H604.545C612.528 797 619 790.528 619 782.545Z" fill="black" stroke="white" stroke-width="4"/>
<path d="M599 656V23L23 23V656H599Z" fill="#E64A6F"/>
<path d="M52 628.501V122.507C70.0624 108.638 80.1812 100.869 98.2435 87H517.757C535.819 100.869 545.938 108.638 564 122.507V628.493C545.938 642.362 535.819 650.131 517.757 664H98.2435C80.1812 650.131 70.0624 642.362 52 628.493V628.501Z" fill="#2B167D"/>
<rect x="52" y="79" width="512" height="512" fill="white"/>
<path d="M23 775V624.382L52 591H564L599 624.382V775H23Z" fill="#2B167D"/>
<path d="M564.015 79H52L23 55.2539V23H599V55.2539L564 79H564.015Z" fill="#2B167D"/>
<path d="M215.321 59H210.147V40.2336H220.286C221.164 40.2336 222.002 40.3509 222.802 40.5855C223.61 40.8201 224.322 41.1763 224.939 41.6541C225.556 42.1233 226.047 42.7184 226.411 43.4396C226.785 44.152 226.972 44.9904 226.972 45.9548C226.972 46.5629 226.885 47.1364 226.711 47.675C226.537 48.205 226.294 48.6915 225.981 49.1346C225.677 49.5777 225.317 49.9774 224.9 50.3336C224.483 50.6898 224.027 50.9895 223.531 51.2328C223.036 51.4761 222.511 51.6629 221.954 51.7932C221.407 51.9235 220.851 51.9887 220.286 51.9887H215.321V59ZM221.733 45.9548C221.733 44.7471 221.424 43.8001 220.808 43.1137C220.199 42.4187 219.279 42.0712 218.045 42.0712H215.321V50.2163H218.045C218.705 50.2163 219.265 50.112 219.726 49.9035C220.195 49.6863 220.577 49.3866 220.873 49.0043C221.168 48.622 221.385 48.1746 221.524 47.662C221.663 47.1407 221.733 46.5716 221.733 45.9548ZM233.657 59H229.252V37.0147H230.947L233.657 41.589V59ZM252.489 59H248.084V57.2016C247.563 57.914 246.933 58.444 246.194 58.7915C245.465 59.1303 244.661 59.2997 243.783 59.2997C242.637 59.2997 241.611 59.0956 240.708 58.6872C239.804 58.2789 239.04 57.7228 238.414 57.0191C237.789 56.3067 237.311 55.4726 236.981 54.5169C236.65 53.5612 236.485 52.536 236.485 51.4413C236.485 50.3466 236.65 49.3214 236.981 48.3657C237.311 47.41 237.789 46.5803 238.414 45.8766C239.04 45.1641 239.804 44.6038 240.708 44.1954C241.611 43.7871 242.637 43.5829 243.783 43.5829C244.366 43.5829 244.917 43.6698 245.438 43.8436C245.968 44.0173 246.451 44.2649 246.885 44.5864C247.328 44.8992 247.715 45.2814 248.045 45.7332C248.384 46.1763 248.649 46.6715 248.84 47.2189L250.795 43.9478H252.489V59ZM248.058 51.4413C248.058 51.0504 248.036 50.6377 247.993 50.2033C247.958 49.7689 247.893 49.3388 247.797 48.9131C247.702 48.4874 247.567 48.0834 247.393 47.7011C247.228 47.3101 247.011 46.9669 246.742 46.6715C246.481 46.3675 246.164 46.1285 245.79 45.9548C245.417 45.781 244.982 45.6941 244.487 45.6941C243.992 45.6941 243.562 45.7853 243.197 45.9678C242.832 46.1416 242.519 46.3805 242.259 46.6846C241.998 46.98 241.781 47.3231 241.607 47.7141C241.442 48.1051 241.312 48.5134 241.216 48.9391C241.12 49.3649 241.051 49.7949 241.008 50.2293C240.973 50.655 240.955 51.059 240.955 51.4413C240.955 51.8236 240.973 52.2319 241.008 52.6664C241.051 53.1008 241.12 53.5308 241.216 53.9565C241.312 54.3823 241.442 54.7906 241.607 55.1816C241.781 55.5725 241.998 55.9201 242.259 56.2241C242.519 56.5195 242.832 56.7585 243.197 56.9409C243.562 57.1147 243.992 57.2016 244.487 57.2016C244.939 57.2016 245.339 57.1103 245.686 56.9279C246.042 56.7367 246.351 56.4848 246.611 56.172C246.881 55.8592 247.107 55.503 247.289 55.1034C247.472 54.7037 247.619 54.291 247.732 53.8653C247.845 53.4396 247.928 53.0182 247.98 52.6012C248.032 52.1755 248.058 51.7888 248.058 51.4413ZM269.652 43.9478L264.179 57.1885C263.553 58.7003 262.854 60.1946 262.081 61.6716C261.316 63.1573 260.486 64.5821 259.591 65.9462L257.871 64.9036C258.088 64.5126 258.345 64.0608 258.64 63.5482C258.936 63.0356 259.227 62.5057 259.513 61.9583C259.8 61.411 260.065 60.8679 260.308 60.3293C260.551 59.7993 260.738 59.3128 260.869 58.8697L254.287 43.9478H258.692L263.162 54.126L266.603 43.9478H269.652ZM274.761 51.8584C275.3 51.98 275.838 52.0756 276.377 52.1451C276.916 52.2146 277.459 52.2493 278.006 52.2493C278.579 52.2493 279.109 52.1972 279.596 52.0929C280.091 51.98 280.517 51.7975 280.873 51.5456C281.238 51.2849 281.525 50.9418 281.733 50.516C281.942 50.0903 282.046 49.5603 282.046 48.9261C282.046 48.4135 281.976 47.9444 281.837 47.5186C281.698 47.0929 281.49 46.728 281.212 46.4239C280.943 46.1198 280.608 45.8853 280.208 45.7202C279.809 45.5464 279.344 45.4595 278.814 45.4595C278.319 45.4595 277.871 45.5508 277.472 45.7332C277.081 45.9157 276.733 46.1633 276.429 46.4761C276.134 46.7801 275.877 47.1364 275.66 47.5447C275.452 47.953 275.278 48.3788 275.139 48.8219C275 49.2649 274.9 49.7124 274.839 50.1642C274.778 50.616 274.748 51.0417 274.748 51.4413C274.748 51.5108 274.748 51.5803 274.748 51.6498C274.748 51.7193 274.752 51.7888 274.761 51.8584ZM285.617 48.887C285.617 49.5039 285.517 50.0556 285.317 50.5421C285.117 51.0199 284.844 51.4413 284.496 51.8062C284.157 52.1711 283.762 52.4796 283.31 52.7315C282.858 52.9835 282.376 53.192 281.863 53.3571C281.351 53.5134 280.821 53.6264 280.274 53.6959C279.735 53.7654 279.209 53.8002 278.697 53.8002C278.045 53.8002 277.402 53.7567 276.768 53.6698C276.134 53.5743 275.508 53.4266 274.891 53.2267C274.987 53.8002 275.139 54.3475 275.347 54.8688C275.556 55.3814 275.834 55.8332 276.181 56.2241C276.529 56.6064 276.955 56.9105 277.459 57.1364C277.971 57.3623 278.575 57.4752 279.27 57.4752C279.731 57.4752 280.169 57.4057 280.586 57.2667C281.003 57.1277 281.386 56.9322 281.733 56.6803C282.081 56.4283 282.385 56.1286 282.645 55.781C282.915 55.4335 283.132 55.0469 283.297 54.6212L285.2 55.3249C284.913 56.0113 284.518 56.6064 284.014 57.1103C283.519 57.6056 282.954 58.0182 282.32 58.3484C281.694 58.6699 281.025 58.9088 280.313 59.0652C279.609 59.2215 278.91 59.2997 278.214 59.2997C277.068 59.2997 276.008 59.1086 275.035 58.7263C274.062 58.3354 273.223 57.7923 272.519 57.0973C271.816 56.4022 271.264 55.5725 270.864 54.6081C270.465 53.6438 270.265 52.5882 270.265 51.4413C270.265 50.2945 270.465 49.2389 270.864 48.2745C271.264 47.3101 271.816 46.4804 272.519 45.7853C273.223 45.0903 274.062 44.5516 275.035 44.1694C276.008 43.7784 277.068 43.5829 278.214 43.5829C278.771 43.5829 279.34 43.622 279.922 43.7002C280.504 43.7784 281.069 43.9044 281.616 44.0781C282.163 44.2432 282.68 44.4604 283.167 44.7297C283.653 44.9991 284.075 45.3336 284.431 45.7332C284.796 46.1242 285.082 46.5803 285.291 47.1016C285.508 47.6229 285.617 48.218 285.617 48.887ZM301.164 45.2771L298.688 49.3822C298.584 49.0347 298.449 48.6437 298.284 48.2093C298.119 47.7749 297.915 47.3709 297.672 46.9973C297.428 46.6151 297.137 46.2979 296.798 46.046C296.46 45.7853 296.069 45.655 295.625 45.655C295.217 45.655 294.861 45.7593 294.557 45.9678C294.261 46.1763 294.009 46.45 293.801 46.7888C293.592 47.119 293.419 47.4969 293.28 47.9226C293.149 48.3397 293.045 48.7654 292.967 49.1998C292.897 49.6255 292.85 50.0382 292.824 50.4378C292.798 50.8288 292.784 51.1676 292.784 51.4544V59H288.367V43.9478H290.061L291.846 47.4535C292.089 46.8887 292.367 46.3718 292.68 45.9026C292.993 45.4248 293.354 45.0164 293.762 44.6776C294.17 44.3301 294.631 44.0608 295.143 43.8696C295.665 43.6785 296.251 43.5829 296.903 43.5829C297.241 43.5829 297.619 43.6133 298.036 43.6741C298.453 43.7263 298.862 43.8218 299.261 43.9608C299.661 44.0912 300.03 44.2649 300.369 44.4821C300.708 44.6993 300.973 44.9643 301.164 45.2771ZM320.178 59H310V56.6151H312.502V42.6185H310V40.2336H317.676V56.6151H320.178V59ZM333.093 59H330.695V40.2336H334.057L345.461 53.1225V40.2336H347.846V59H344.483L333.093 46.1242V59ZM366.677 59H362.272V57.2016C361.751 57.914 361.121 58.444 360.382 58.7915C359.653 59.1303 358.849 59.2997 357.972 59.2997C356.825 59.2997 355.799 59.0956 354.896 58.6872C353.992 58.2789 353.228 57.7228 352.602 57.0191C351.977 56.3067 351.499 55.4726 351.169 54.5169C350.839 53.5612 350.673 52.536 350.673 51.4413C350.673 50.3466 350.839 49.3214 351.169 48.3657C351.499 47.41 351.977 46.5803 352.602 45.8766C353.228 45.1641 353.992 44.6038 354.896 44.1954C355.799 43.7871 356.825 43.5829 357.972 43.5829C358.554 43.5829 359.105 43.6698 359.627 43.8436C360.157 44.0173 360.639 44.2649 361.073 44.5864C361.516 44.8992 361.903 45.2814 362.233 45.7332C362.572 46.1763 362.837 46.6715 363.028 47.2189L364.983 43.9478H366.677V59ZM362.246 51.4413C362.246 51.0504 362.224 50.6377 362.181 50.2033C362.146 49.7689 362.081 49.3388 361.985 48.9131C361.89 48.4874 361.755 48.0834 361.581 47.7011C361.416 47.3101 361.199 46.9669 360.93 46.6715C360.669 46.3675 360.352 46.1285 359.978 45.9548C359.605 45.781 359.17 45.6941 358.675 45.6941C358.18 45.6941 357.75 45.7853 357.385 45.9678C357.02 46.1416 356.707 46.3805 356.447 46.6846C356.186 46.98 355.969 47.3231 355.795 47.7141C355.63 48.1051 355.5 48.5134 355.404 48.9391C355.309 49.3649 355.239 49.7949 355.196 50.2293C355.161 50.655 355.144 51.059 355.144 51.4413C355.144 51.8236 355.161 52.2319 355.196 52.6664C355.239 53.1008 355.309 53.5308 355.404 53.9565C355.5 54.3823 355.63 54.7906 355.795 55.1816C355.969 55.5725 356.186 55.9201 356.447 56.2241C356.707 56.5195 357.02 56.7585 357.385 56.9409C357.75 57.1147 358.18 57.2016 358.675 57.2016C359.127 57.2016 359.527 57.1103 359.874 56.9279C360.23 56.7367 360.539 56.4848 360.8 56.172C361.069 55.8592 361.295 55.503 361.477 55.1034C361.66 54.7037 361.807 54.291 361.92 53.8653C362.033 53.4396 362.116 53.0182 362.168 52.6012C362.22 52.1755 362.246 51.7888 362.246 51.4413ZM393.654 50.2163C393.654 51.2502 393.532 52.3275 393.289 53.4483C393.046 54.5691 392.702 55.6638 392.259 56.7324C391.825 57.7923 391.299 58.7958 390.682 59.7428C390.066 60.6898 389.379 61.5109 388.623 62.2059L386.968 61.3067C387.22 60.8549 387.45 60.3467 387.659 59.7819C387.867 59.2172 388.059 58.6221 388.232 57.9965C388.406 57.371 388.558 56.7281 388.688 56.0678C388.819 55.4075 388.927 54.7515 389.014 54.0999C389.11 53.4396 389.179 52.801 389.223 52.1842C389.266 51.5673 389.288 50.9895 389.288 50.4509C389.288 50.1468 389.279 49.8166 389.262 49.4604C389.244 49.1042 389.205 48.748 389.145 48.3918C389.092 48.0356 389.01 47.6967 388.897 47.3753C388.784 47.0451 388.628 46.7541 388.428 46.5021C388.237 46.2415 387.993 46.0373 387.698 45.8896C387.411 45.7332 387.064 45.655 386.655 45.655C386.256 45.655 385.913 45.7636 385.626 45.9808C385.348 46.1893 385.109 46.463 384.909 46.8019C384.709 47.1407 384.549 47.523 384.427 47.9487C384.314 48.3744 384.227 48.8045 384.166 49.2389C384.105 49.6646 384.062 50.0729 384.036 50.4639C384.019 50.8549 384.01 51.185 384.01 51.4544V59H379.618V51.9887C379.618 51.6846 379.622 51.3197 379.631 50.894C379.64 50.4596 379.627 50.0078 379.592 49.5386C379.566 49.0695 379.509 48.6046 379.423 48.1442C379.344 47.675 379.214 47.258 379.032 46.8931C378.858 46.5282 378.619 46.2328 378.315 46.0069C378.011 45.7723 377.628 45.655 377.168 45.655C376.777 45.655 376.447 45.7636 376.178 45.9808C375.917 46.198 375.695 46.4804 375.513 46.8279C375.339 47.1668 375.2 47.5534 375.096 47.9878C375 48.4135 374.926 48.8436 374.874 49.278C374.831 49.7037 374.805 50.112 374.796 50.503C374.787 50.8853 374.783 51.2024 374.783 51.4544V59H370.365V43.9478H372.059L373.675 47.4535C374.04 46.2371 374.614 45.2901 375.396 44.6125C376.186 43.9261 377.233 43.5829 378.536 43.5829C379.709 43.5829 380.682 43.8262 381.456 44.3127C382.229 44.7992 382.837 45.5899 383.28 46.6846C383.532 46.2067 383.81 45.7767 384.114 45.3944C384.427 45.0121 384.77 44.6863 385.144 44.417C385.526 44.1476 385.947 43.9435 386.408 43.8045C386.868 43.6568 387.377 43.5829 387.933 43.5829C388.958 43.5829 389.831 43.7523 390.552 44.0912C391.282 44.4213 391.877 44.8818 392.337 45.4726C392.798 46.0634 393.132 46.7671 393.341 47.5838C393.549 48.3918 393.654 49.2693 393.654 50.2163ZM400.209 51.8584C400.748 51.98 401.286 52.0756 401.825 52.1451C402.364 52.2146 402.907 52.2493 403.454 52.2493C404.027 52.2493 404.557 52.1972 405.044 52.0929C405.539 51.98 405.965 51.7975 406.321 51.5456C406.686 51.2849 406.973 50.9418 407.181 50.516C407.39 50.0903 407.494 49.5603 407.494 48.9261C407.494 48.4135 407.424 47.9444 407.285 47.5186C407.146 47.0929 406.938 46.728 406.66 46.4239C406.39 46.1198 406.056 45.8853 405.656 45.7202C405.257 45.5464 404.792 45.4595 404.262 45.4595C403.767 45.4595 403.319 45.5508 402.92 45.7332C402.529 45.9157 402.181 46.1633 401.877 46.4761C401.582 46.7801 401.325 47.1364 401.108 47.5447C400.9 47.953 400.726 48.3788 400.587 48.8219C400.448 49.2649 400.348 49.7124 400.287 50.1642C400.226 50.616 400.196 51.0417 400.196 51.4413C400.196 51.5108 400.196 51.5803 400.196 51.6498C400.196 51.7193 400.2 51.7888 400.209 51.8584ZM411.065 48.887C411.065 49.5039 410.965 50.0556 410.765 50.5421C410.565 51.0199 410.291 51.4413 409.944 51.8062C409.605 52.1711 409.21 52.4796 408.758 52.7315C408.306 52.9835 407.824 53.192 407.311 53.3571C406.799 53.5134 406.269 53.6264 405.722 53.6959C405.183 53.7654 404.657 53.8002 404.145 53.8002C403.493 53.8002 402.85 53.7567 402.216 53.6698C401.582 53.5743 400.956 53.4266 400.339 53.2267C400.435 53.8002 400.587 54.3475 400.795 54.8688C401.004 55.3814 401.282 55.8332 401.629 56.2241C401.977 56.6064 402.403 56.9105 402.907 57.1364C403.419 57.3623 404.023 57.4752 404.718 57.4752C405.179 57.4752 405.617 57.4057 406.034 57.2667C406.451 57.1277 406.834 56.9322 407.181 56.6803C407.529 56.4283 407.833 56.1286 408.093 55.781C408.363 55.4335 408.58 55.0469 408.745 54.6212L410.648 55.3249C410.361 56.0113 409.966 56.6064 409.462 57.1103C408.967 57.6056 408.402 58.0182 407.768 58.3484C407.142 58.6699 406.473 58.9088 405.761 59.0652C405.057 59.2215 404.357 59.2997 403.662 59.2997C402.516 59.2997 401.456 59.1086 400.483 58.7263C399.509 58.3354 398.671 57.7923 397.967 57.0973C397.264 56.4022 396.712 55.5725 396.312 54.6081C395.913 53.6438 395.713 52.5882 395.713 51.4413C395.713 50.2945 395.913 49.2389 396.312 48.2745C396.712 47.3101 397.264 46.4804 397.967 45.7853C398.671 45.0903 399.509 44.5516 400.483 44.1694C401.456 43.7784 402.516 43.5829 403.662 43.5829C404.218 43.5829 404.788 43.622 405.37 43.7002C405.952 43.7784 406.516 43.9044 407.064 44.0781C407.611 44.2432 408.128 44.4604 408.615 44.7297C409.101 44.9991 409.523 45.3336 409.879 45.7332C410.244 46.1242 410.53 46.5803 410.739 47.1016C410.956 47.6229 411.065 48.218 411.065 48.887Z" fill="white"/>
<g clip-path="url(#clip0_472_1677)">
<path d="M417.692 260.136H435.828V269.204H417.692V260.136Z" fill="#298941"/>
<path d="M453.996 278.305H463.064V332.746H453.996V278.305Z" fill="#298941"/>
<path d="M463.065 278.305H472.133V332.746H463.065V278.305Z" fill="#298941"/>
<path d="M472.133 287.373H481.201V332.746H472.133V287.373Z" fill="#298941"/>
<path d="M481.201 287.373H490.269V332.746H481.201V287.373Z" fill="#298941"/>
<path d="M490.301 296.441H499.369V332.746H490.301V296.441Z" fill="#298941"/>
<path d="M272.505 387.186H281.573V405.323H272.505V387.186Z" fill="#298941"/>
<path d="M263.438 396.254H272.506V414.391H263.438V396.254Z" fill="#298941"/>
<path d="M499.369 305.509H508.438V323.645H499.369V305.509Z" fill="#298941"/>
<path d="M317.878 287.373H326.946V296.441H317.878V287.373Z" fill="#298941"/>
<path d="M408.624 369.05H417.692V387.186H408.624V369.05Z" fill="#E8B714"/>
<path d="M390.488 387.186H399.556V405.323H390.488V387.186Z" fill="#246430"/>
<path d="M272.506 432.559V441.627H254.37V432.559H272.506Z" fill="#07042D"/>
<path d="M472.133 278.305H490.269V287.373H472.133V278.305Z" fill="#07042D"/>
<path d="M490.301 287.373H499.369V296.441H490.301V287.373Z" fill="#07042D"/>
<path d="M490.301 314.577H499.369V323.645H490.301V314.577Z" fill="#07042D"/>
<path d="M453.996 323.677H499.369V332.746H453.996V323.677Z" fill="#246430"/>
<path d="M499.369 314.577H508.438V323.645H499.369V314.577Z" fill="#246430"/>
<path d="M463.065 296.441H472.133V305.509H463.065V296.441Z" fill="#07042D"/>
<path d="M453.996 296.441H463.064V305.509H453.996V296.441Z" fill="#07042D"/>
<path d="M453.996 287.373H463.064V296.441H453.996V287.373Z" fill="#07042D"/>
<path d="M408.624 341.814H417.692V369.05H408.624V341.814Z" fill="#07042D"/>
<path d="M435.861 260.136H444.929V323.645H435.861V260.136Z" fill="#298941"/>
<path d="M426.76 278.305H435.828V332.746H426.76V278.305Z" fill="#298941"/>
<path d="M417.692 278.305H426.76V332.746H417.692V278.305Z" fill="#298941"/>
<path d="M408.624 287.373H417.692V341.814H408.624V287.373Z" fill="#298941"/>
<path d="M399.555 287.373H408.624V341.814H399.555V287.373Z" fill="#298941"/>
<path d="M390.488 287.373H399.556V359.95H390.488V287.373Z" fill="#298941"/>
<path d="M381.387 296.441H390.456V378.118H381.387V296.441Z" fill="#298941"/>
<path d="M236.201 251.068H245.269V323.645H236.201V251.068Z" fill="#298941"/>
<path d="M236.201 350.882H245.269V423.459H236.201V350.882Z" fill="#298941"/>
<path d="M227.133 251.068H236.201V314.577H227.133V251.068Z" fill="#298941"/>
<path d="M218.065 251.068H227.133V305.509H218.065V251.068Z" fill="#298941"/>
<path d="M208.997 251.068H218.065V296.441H208.997V251.068Z" fill="#298941"/>
<path d="M199.929 251.068H208.997V296.441H199.929V251.068Z" fill="#298941"/>
<path d="M190.861 251.068H199.929V287.373H190.861V251.068Z" fill="#298941"/>
<path d="M181.76 251.068H190.828V287.373H181.76V251.068Z" fill="#298941"/>
<path d="M172.692 251.068H181.76V278.305H172.692V251.068Z" fill="#298941"/>
<path d="M163.623 251.068H172.691V278.305H163.623V251.068Z" fill="#298941"/>
<path d="M154.556 251.068H163.624V269.204H154.556V251.068Z" fill="#298941"/>
<path d="M145.488 251.068H154.556V269.204H145.488V251.068Z" fill="#298941"/>
<path d="M154.556 369.05H163.624V396.287H154.556V369.05Z" fill="#298941"/>
<path d="M181.761 468.864H227.133V477.932H181.761V468.864Z" fill="#246430"/>
<path d="M190.828 459.763H236.201V468.831H190.828V459.763Z" fill="#298941"/>
<path d="M163.623 359.95H172.691V396.254H163.623V359.95Z" fill="#298941"/>
<path d="M172.692 350.882H181.76V396.254H172.692V350.882Z" fill="#298941"/>
<path d="M181.76 350.882H190.828V414.391H181.76V350.882Z" fill="#298941"/>
<path d="M190.861 341.814H199.929V414.391H190.861V341.814Z" fill="#298941"/>
<path d="M199.929 341.814H208.997V423.491H199.929V341.814Z" fill="#298941"/>
<path d="M208.997 332.746H218.065V423.491H208.997V332.746Z" fill="#298941"/>
<path d="M127.32 251.068H145.456V260.136H127.32V251.068Z" fill="#298941"/>
<path d="M227.133 323.677H236.201V423.491H227.133V323.677Z" fill="#298941"/>
<path d="M218.065 332.746H227.133V423.491H218.065V332.746Z" fill="#298941"/>
<path d="M372.319 296.441H381.387V396.254H372.319V296.441Z" fill="#298941"/>
<path d="M363.251 296.441H372.319V423.491H363.251V296.441Z" fill="#298941"/>
<path d="M354.184 305.509H363.252V432.559H354.184V305.509Z" fill="#298941"/>
<path d="M345.115 305.509H354.183V450.695H345.115V305.509Z" fill="#298941"/>
<path d="M336.014 314.577H345.083V441.627H336.014V314.577Z" fill="#298941"/>
<path d="M326.947 323.677H336.015V477.932H326.947V323.677Z" fill="#298941"/>
<path d="M317.878 314.577H326.946V477.9H317.878V314.577Z" fill="#298941"/>
<path d="M308.81 287.373H317.878V468.864H308.81V287.373Z" fill="#298941"/>
<path d="M299.742 405.323H308.811V468.831H299.742V405.323Z" fill="#298941"/>
<path d="M290.675 423.491H299.743V459.796H290.675V423.491Z" fill="#298941"/>
<path d="M281.574 432.559H290.642V441.627H281.574V432.559Z" fill="#298941"/>
<path d="M254.37 450.695H263.438V459.763H254.37V450.695Z" fill="#246430"/>
<path d="M245.302 459.763H254.37V468.831H245.302V459.763Z" fill="#246430"/>
<path d="M236.201 468.864H245.269V477.932H236.201V468.864Z" fill="#246430"/>
<path d="M299.742 278.305H308.811V359.982H299.742V278.305Z" fill="#298941"/>
<path d="M290.675 278.305H299.743V350.882H290.675V278.305Z" fill="#298941"/>
<path d="M281.574 269.237H290.642V359.982H281.574V269.237Z" fill="#298941"/>
<path d="M272.505 269.237H281.573V369.05H272.505V269.237Z" fill="#298941"/>
<path d="M263.438 260.136H272.506V396.254H263.438V260.136Z" fill="#298941"/>
<path d="M254.37 260.136H263.438V414.391H254.37V260.136Z" fill="#298941"/>
<path d="M245.302 251.068H254.37V423.491H245.302V251.068Z" fill="#298941"/>
<path d="M372.319 423.491H381.387V441.627H372.319V423.491Z" fill="#246430"/>
<path d="M381.387 441.627H390.456V477.932H381.387V441.627Z" fill="#298941"/>
<path d="M390.488 450.695H399.556V477.932H390.488V450.695Z" fill="#298941"/>
<path d="M399.555 450.695H408.624V477.932H399.555V450.695Z" fill="#298941"/>
<path d="M408.624 459.763H417.692V477.9H408.624V459.763Z" fill="#246430"/>
<path d="M363.251 459.763H372.319V477.9H363.251V459.763Z" fill="#246430"/>
<path d="M354.184 450.695H363.252V468.831H354.184V450.695Z" fill="#246430"/>
<path d="M345.115 450.695H354.183V477.932H345.115V450.695Z" fill="#298941"/>
<path d="M336.014 441.627H345.083V477.932H336.014V441.627Z" fill="#298941"/>
<path d="M381.387 468.864H426.76V477.932H381.387V468.864Z" fill="#246430"/>
<path d="M372.319 459.763H408.624V468.831H372.319V459.763Z" fill="#246430"/>
<path d="M317.878 468.864H381.387V477.932H317.878V468.864Z" fill="#246430"/>
<path d="M372.319 396.254H381.387V423.491H372.319V396.254Z" fill="#E8B714"/>
<path d="M354.151 441.627H390.456V450.695H354.151V441.627Z" fill="#246430"/>
<path d="M363.251 450.695H408.624V459.763H363.251V450.695Z" fill="#246430"/>
<path d="M444.928 269.237H453.996V323.677H444.928V269.237Z" fill="#298941"/>
<path d="M408.624 387.186H417.692V405.323H408.624V387.186Z" fill="#07042D"/>
<path d="M390.487 405.323H408.624V414.391H390.487V405.323Z" fill="#07042D"/>
<path d="M417.692 369.05H426.76V387.186H417.692V369.05Z" fill="#07042D"/>
<path d="M508.437 305.509H517.505V323.645H508.437V305.509Z" fill="#07042D"/>
<path d="M381.387 414.423H390.456V441.66H381.387V414.423Z" fill="#07042D"/>
<path d="M499.369 323.677H508.438V332.746H499.369V323.677Z" fill="#07042D"/>
<path d="M453.997 269.237H472.133V278.305H453.997V269.237Z" fill="#07042D"/>
<path d="M444.928 260.136H453.996V269.204H444.928V260.136Z" fill="#07042D"/>
<path d="M390.487 441.627H408.624V450.695H390.487V441.627Z" fill="#07042D"/>
<path d="M408.624 450.695H417.692V459.763H408.624V450.695Z" fill="#07042D"/>
<path d="M417.692 459.763H426.76V468.831H417.692V459.763Z" fill="#07042D"/>
<path d="M426.76 468.864H435.828V477.932H426.76V468.864Z" fill="#07042D"/>
<path d="M354.184 432.559H363.252V450.695H354.184V432.559Z" fill="#07042D"/>
<path d="M363.251 450.695H372.319V459.763H363.251V450.695Z" fill="#07042D"/>
<path d="M363.251 423.491H372.319V432.559H363.251V423.491Z" fill="#07042D"/>
<path d="M372.319 459.763H381.387V468.831H372.319V459.763Z" fill="#07042D"/>
<path d="M381.387 468.864H390.456V477.932H381.387V468.864Z" fill="#07042D"/>
<path d="M245.301 459.763V468.831H236.233V459.763H245.301Z" fill="#07042D"/>
<path d="M236.201 468.864V477.932H227.133V468.864H236.201Z" fill="#07042D"/>
<path d="M181.76 468.864V477.932H172.692V468.864H181.76Z" fill="#07042D"/>
<path d="M281.574 423.491H290.642V432.559H281.574V423.491Z" fill="#07042D"/>
<path d="M281.573 432.559V441.627H272.505V432.559H281.573Z" fill="#07042D"/>
<path d="M172.691 423.491V432.559H163.623V423.491H172.691Z" fill="#246430"/>
<path d="M181.793 414.423V423.491H163.657V414.423H181.793Z" fill="#246430"/>
<path d="M163.592 414.423V423.491H154.524V414.423H163.592Z" fill="#246430"/>
<path d="M172.691 405.355V414.423H154.555V405.355H172.691Z" fill="#246430"/>
<path d="M172.691 396.254V405.323H154.555V396.254H172.691Z" fill="#246430"/>
<path d="M163.592 423.491V432.559H154.524V423.491H163.592Z" fill="#07042D"/>
<path d="M172.691 432.559V441.627H163.623V432.559H172.691Z" fill="#07042D"/>
<path d="M190.828 441.627V450.695H172.692V441.627H190.828Z" fill="#07042D"/>
<path d="M199.929 414.391V423.459H181.793V414.391H199.929Z" fill="#07042D"/>
<path d="M272.506 441.627V450.695H254.37V441.627H272.506Z" fill="#07042D"/>
<path d="M254.337 450.695V459.763H190.828V450.695H254.337Z" fill="#07042D"/>
<path d="M254.37 423.491V432.559H199.929V423.491H254.37Z" fill="#07042D"/>
<path d="M281.573 414.423V432.559H272.505V414.423H281.573Z" fill="#246430"/>
<path d="M290.674 405.323V423.459H281.606V405.323H290.674Z" fill="#246430"/>
<path d="M299.743 387.219V405.355H290.675V387.219H299.743Z" fill="#246430"/>
<path d="M308.778 369.05V387.186H299.71V369.05H308.778Z" fill="#E8B714"/>
<path d="M299.71 359.982V378.118H290.642V359.982H299.71Z" fill="#E8B714"/>
<path d="M290.642 369.018V387.154H281.574V369.018H290.642Z" fill="#E8B714"/>
<path d="M272.506 432.559V441.627H254.37V432.559H272.506Z" fill="#246430"/>
<path d="M272.506 423.491V432.559H254.37V423.491H272.506Z" fill="#246430"/>
<path d="M254.37 432.559V441.627H190.861V432.559H254.37Z" fill="#246430"/>
<path d="M236.233 432.559V441.627H172.724V432.559H236.233Z" fill="#246430"/>
<path d="M254.337 441.627V450.695H190.828V441.627H254.337Z" fill="#246430"/>
<path d="M190.828 432.559V441.627H172.692V432.559H190.828Z" fill="#246430"/>
<path d="M199.896 423.491V432.559H172.659V423.491H199.896Z" fill="#246430"/>
<path d="M281.606 405.323V414.391H272.538V405.323H281.606Z" fill="#07042D"/>
<path d="M254.37 414.423H272.506V423.491H254.37V414.423Z" fill="#07042D"/>
<path d="M272.506 450.695V459.763H263.438V450.695H272.506Z" fill="#07042D"/>
<path d="M263.438 459.796V468.864H254.37V459.796H263.438Z" fill="#07042D"/>
<path d="M254.337 468.864V477.932H245.269V468.864H254.337Z" fill="#07042D"/>
<path d="M263.438 477.932V487H254.37V477.932H263.438Z" fill="#07042D"/>
<path d="M190.86 450.695V468.831H181.792V450.695H190.86Z" fill="#07042D"/>
<path d="M245.301 477.932V487H181.792V477.932H245.301Z" fill="#07042D"/>
<path d="M299.742 468.864H317.878V477.932H299.742V468.864Z" fill="#07042D"/>
<path d="M290.675 459.763H299.743V468.831H290.675V459.763Z" fill="#07042D"/>
<path d="M281.574 441.627H290.642V459.763H281.574V441.627Z" fill="#07042D"/>
<path d="M435.861 323.677H444.929V332.746H435.861V323.677Z" fill="#07042D"/>
<path d="M390.456 278.305H417.692V287.373H390.456V278.305Z" fill="#07042D"/>
<path d="M417.692 269.237H435.828V278.305H417.692V269.237Z" fill="#07042D"/>
<path d="M408.624 260.136H417.692V269.204H408.624V260.136Z" fill="#07042D"/>
<path d="M363.219 287.373H390.456V296.441H363.219V287.373Z" fill="#07042D"/>
<path d="M345.116 296.441H363.252V305.509H345.116V296.441Z" fill="#07042D"/>
<path d="M336.014 305.509H345.083V314.577H336.014V305.509Z" fill="#07042D"/>
<path d="M326.947 314.577H336.015V323.645H326.947V314.577Z" fill="#07042D"/>
<path d="M208.997 323.677H227.133V332.746H208.997V323.677Z" fill="#07042D"/>
<path d="M190.861 332.746H208.997V341.814H190.861V332.746Z" fill="#07042D"/>
<path d="M172.692 341.814H190.828V350.882H172.692V341.814Z" fill="#07042D"/>
<path d="M163.623 350.882H172.691V359.95H163.623V350.882Z" fill="#07042D"/>
<path d="M154.556 359.95H163.624V369.018H154.556V359.95Z" fill="#07042D"/>
<path d="M145.488 369.05H154.556V423.491H145.488V369.05Z" fill="#07042D"/>
<path d="M290.675 405.323H299.743V423.459H290.675V405.323Z" fill="#07042D"/>
<path d="M290.675 350.882H299.743V359.95H290.675V350.882Z" fill="#07042D"/>
<path d="M299.743 359.95H308.811V369.018H299.743V359.95Z" fill="#07042D"/>
<path d="M299.743 387.186H308.811V405.323H299.743V387.186Z" fill="#07042D"/>
<path d="M281.575 387.186H290.643V405.323H281.575V387.186Z" fill="#07042D"/>
<path d="M290.675 378.118H299.743V387.186H290.675V378.118Z" fill="#07042D"/>
<path d="M281.575 359.95H290.643V369.018H281.575V359.95Z" fill="#07042D"/>
<path d="M308.811 369.05H317.879V387.186H308.811V369.05Z" fill="#07042D"/>
<path d="M272.507 369.05H281.575V387.186H272.507V369.05Z" fill="#07042D"/>
<path d="M172.692 396.254H181.76V414.391H172.692V396.254Z" fill="#07042D"/>
<path d="M326.947 287.373H336.015V296.441H326.947V287.373Z" fill="#07042D"/>
<path d="M317.878 296.441H326.946V314.577H317.878V296.441Z" fill="#07042D"/>
<path d="M227.133 314.577H236.201V323.645H227.133V314.577Z" fill="#07042D"/>
<path d="M218.065 305.509H227.133V314.577H218.065V305.509Z" fill="#07042D"/>
<path d="M199.929 296.441H218.065V305.509H199.929V296.441Z" fill="#07042D"/>
<path d="M181.793 287.373H199.929V296.441H181.793V287.373Z" fill="#07042D"/>
<path d="M163.624 278.305H181.76V287.373H163.624V278.305Z" fill="#07042D"/>
<path d="M145.488 269.237H163.624V278.305H145.488V269.237Z" fill="#07042D"/>
<path d="M127.32 260.136H145.456V269.204H127.32V260.136Z" fill="#07042D"/>
<path d="M109.183 251.068H127.32V260.136H109.183V251.068Z" fill="#07042D"/>
<path d="M236.201 323.677H245.269V350.914H236.201V323.677Z" fill="#07042D"/>
<path d="M308.81 278.305H326.946V287.373H308.81V278.305Z" fill="#07042D"/>
<path d="M290.674 269.237H308.811V278.305H290.674V269.237Z" fill="#07042D"/>
<path d="M272.505 260.136H290.642V269.204H272.505V260.136Z" fill="#07042D"/>
<path d="M254.37 251.068H272.506V260.136H254.37V251.068Z" fill="#07042D"/>
<path d="M127.319 242H254.37V251.068H127.319V242Z" fill="#07042D"/>
<path d="M508.405 305.509H499.337V296.441H508.405V305.509Z" fill="#07042D"/>
<path d="M399.556 251.068H444.929V260.136H399.556V251.068Z" fill="#07042D"/>
<path d="M317.879 477.932H426.76V487H317.879V477.932Z" fill="#07042D"/>
<path d="M417.692 332.746H435.828V341.814H417.692V332.746Z" fill="#07042D"/>
<path d="M444.928 332.746H499.369V341.814H444.928V332.746Z" fill="#07042D"/>
<path d="M426.793 314.577H444.929V323.645H426.793V314.577Z" fill="#246430"/>
<path d="M417.692 323.677H435.828V332.746H417.692V323.677Z" fill="#246430"/>
<path d="M417.692 260.136H435.828V269.204H417.692V260.136Z" fill="#246430"/>
<path d="M435.861 269.237H444.929V278.305H435.861V269.237Z" fill="#246430"/>
<path d="M444.928 287.373H453.996V296.441H444.928V287.373Z" fill="#246430"/>
<path d="M345.115 332.746H354.183V341.814H345.115V332.746Z" fill="#246430"/>
<path d="M354.184 323.677H363.252V332.746H354.184V323.677Z" fill="#246430"/>
<path d="M326.947 387.186H336.015V396.254H326.947V387.186Z" fill="#246430"/>
<path d="M336.014 378.118H345.083V387.186H336.014V378.118Z" fill="#246430"/>
<path d="M272.505 323.677H281.573V332.746H272.505V323.677Z" fill="#246430"/>
<path d="M218.064 278.305H227.132V287.373H218.064V278.305Z" fill="#246430"/>
<path d="M181.76 359.95H190.828V369.018H181.76V359.95Z" fill="#246430"/>
<path d="M363.251 359.95H372.319V369.018H363.251V359.95Z" fill="#246430"/>
<path d="M308.81 432.559H317.878V441.627H308.81V432.559Z" fill="#246430"/>
<path d="M281.574 332.746H290.642V341.814H281.574V332.746Z" fill="#246430"/>
<path d="M227.134 387.186H236.202V396.254H227.134V387.186Z" fill="#246430"/>
<path d="M236.202 396.254H245.27V405.323H236.202V396.254Z" fill="#246430"/>
<path d="M390.488 296.441H399.556V305.509H390.488V296.441Z" fill="#246430"/>
<path d="M399.555 305.509H408.624V314.577H399.555V305.509Z" fill="#246430"/>
<path d="M463.065 287.373H472.133V296.441H463.065V287.373Z" fill="#246430"/>
<path d="M399.556 332.746H417.692V341.814H399.556V332.746Z" fill="#246430"/>
<path d="M399.555 341.814H408.624V405.323H399.555V341.814Z" fill="#E8B714"/>
<path d="M390.488 359.95H399.556V405.323H390.488V359.95Z" fill="#E8B714"/>
<path d="M381.387 378.118H390.456V414.423H381.387V378.118Z" fill="#E8B714"/>
<path d="M363.251 396.254H372.319V423.491H363.251V396.254Z" fill="#246430"/>
<path d="M372.319 378.118H381.387V396.254H372.319V378.118Z" fill="#246430"/>
<path d="M381.387 359.95H390.456V378.086H381.387V359.95Z" fill="#246430"/>
<path d="M390.488 341.814H399.556V359.95H390.488V341.814Z" fill="#246430"/>
<path d="M354.184 423.491H363.252V432.559H354.184V423.491Z" fill="#246430"/>
<path d="M363.251 432.559H372.319V441.627H363.251V432.559Z" fill="#246430"/>
<path d="M245.269 260.136H272.506V269.204H245.269V260.136Z" fill="#246430"/>
<path d="M263.405 269.237H290.642V278.305H263.405V269.237Z" fill="#246430"/>
<path d="M281.574 278.305H308.811V287.373H281.574V278.305Z" fill="#246430"/>
<path d="M299.71 287.373H326.946V296.441H299.71V287.373Z" fill="#246430"/>
<path d="M145.455 260.136H172.691V269.204H145.455V260.136Z" fill="#246430"/>
<path d="M227.133 323.677H236.201V350.914H227.133V323.677Z" fill="#246430"/>
<path d="M154.556 387.186H163.624V396.254H154.556V387.186Z" fill="#246430"/>
<path d="M308.81 296.441H317.878V314.577H308.81V296.441Z" fill="#246430"/>
<path d="M127.319 251.068H254.37V260.136H127.319V251.068Z" fill="#246430"/>
<path d="M444.928 314.577H453.996V332.713H444.928V314.577Z" fill="#246430"/>
</g>
<rect x="90" y="631" width="446" height="120" fill="#A3F9FF"/>
<path d="M141.087 650.637H138.727V660.092H141.087V650.637Z" fill="#FF2968"/>
<path d="M143.455 648.27H141.087V650.637V662.452H143.455V648.27Z" fill="#FF2968"/>
<path d="M141.087 657.724H138.727V664.812H141.087V657.724Z" fill="#C40851"/>
<path d="M169.444 657.724H167.084V664.812H169.444V657.724Z" fill="#C40851"/>
<path d="M164.717 662.452H162.357V669.539H164.717V662.452Z" fill="#C40851"/>
<path d="M162.357 664.812H159.997V671.899H162.357V664.812Z" fill="#C40851"/>
<path d="M167.084 660.084H164.724V667.172H167.084V660.084Z" fill="#C40851"/>
<path d="M159.99 667.179H157.63V674.267H159.99V667.179Z" fill="#C40851"/>
<path d="M157.63 669.539H155.27V676.627H157.63V669.539Z" fill="#C40851"/>
<path d="M143.447 660.084H141.087V667.172H143.447V660.084Z" fill="#C40851"/>
<path d="M145.815 662.452H143.455V669.539H145.815V662.452Z" fill="#C40851"/>
<path d="M148.175 664.812H145.815V671.899H148.175V664.812Z" fill="#C40851"/>
<path d="M150.542 667.179H148.182V674.267H150.542V667.179Z" fill="#C40851"/>
<path d="M152.902 669.539H150.542V676.627H152.902V669.539Z" fill="#C40851"/>
<path d="M155.262 671.899H152.902V678.986H155.262V671.899Z" fill="#C40851"/>
<path d="M145.815 648.27H143.455V662.452H145.815V648.27Z" fill="#FF2968"/>
<path d="M169.444 650.637H167.084V657.724H169.444V650.637Z" fill="#FF2968"/>
<path d="M171.804 655.357H169.444V657.717H171.804V655.357Z" fill="#C40851"/>
<path d="M148.175 648.27H145.815V664.812H148.175V648.27Z" fill="#FF2968"/>
<path d="M167.084 648.27H164.724V660.084H167.084V648.27Z" fill="#FF2968"/>
<path d="M150.542 650.637H148.182V667.179H150.542V650.637Z" fill="#FF2968"/>
<path d="M164.717 648.27H162.357V662.452H164.717V648.27Z" fill="#FF2968"/>
<path d="M157.63 652.997H155.27V669.539H157.63V652.997Z" fill="#FF2968"/>
<path d="M152.902 669.539V652.997V650.637H150.542V669.539H152.902Z" fill="#FF2968"/>
<path d="M162.357 664.812V648.27H159.997V650.637V664.812H162.357Z" fill="#FF2968"/>
<path d="M155.262 655.357H152.902V671.899H155.262V655.357Z" fill="#FF2968"/>
<path d="M159.99 650.637H157.63V667.179H159.99V650.637Z" fill="#FF2968"/>
<path d="M148.175 645.91H141.087V648.27H148.175V645.91Z" fill="#07042D"/>
<path d="M167.084 645.91H159.997V648.27H167.084V645.91Z" fill="#07042D"/>
<path d="M150.542 648.27H148.182V650.63H150.542V648.27Z" fill="#07042D"/>
<path d="M159.99 648.27H157.63V650.63H159.99V648.27Z" fill="#07042D"/>
<path d="M136.36 655.357H134V660.084H136.36V655.357Z" fill="#07042D"/>
<path d="M138.72 655.357H136.36V657.717H138.72V655.357Z" fill="#C40851"/>
<path d="M138.72 657.724H136.36V660.084H138.72V657.724Z" fill="#C40851"/>
<path d="M171.804 657.724H169.444V660.084H171.804V657.724Z" fill="#C40851"/>
<path d="M148.175 671.899H145.815V674.259H148.175V671.899Z" fill="#07042D"/>
<path d="M145.815 669.539H143.455V671.899H145.815V669.539Z" fill="#07042D"/>
<path d="M141.087 664.812H138.727V667.172H141.087V664.812Z" fill="#07042D"/>
<path d="M143.447 667.179H141.087V669.539H143.447V667.179Z" fill="#07042D"/>
<path d="M138.72 660.084H136.36V664.812H138.72V660.084Z" fill="#07042D"/>
<path d="M138.72 650.637H136.36V655.364H138.72V650.637Z" fill="#07042D"/>
<path d="M141.087 648.27H138.727V650.63H141.087V648.27Z" fill="#07042D"/>
<path d="M152.902 650.637H150.542V652.997H152.902V650.637Z" fill="#07042D"/>
<path d="M155.262 652.997H152.902V655.357H155.262V652.997Z" fill="#07042D"/>
<path d="M157.63 650.637H155.27V652.997H157.63V650.637Z" fill="#07042D"/>
<path d="M174.172 655.357H171.812V660.084H174.172V655.357Z" fill="#07042D"/>
<path d="M169.452 664.819H171.812V660.092H169.452V664.819Z" fill="#07042D"/>
<path d="M169.452 655.357H171.812V650.63H169.452V655.357Z" fill="#07042D"/>
<path d="M167.084 650.637H169.444V648.277H167.084V650.637Z" fill="#07042D"/>
<path d="M155.262 678.994H152.902V681.354H155.262V678.994Z" fill="#07042D"/>
<path d="M150.542 674.267H148.182V676.626H150.542V674.267Z" fill="#07042D"/>
<path d="M162.357 671.899H159.997V674.259H162.357V671.899Z" fill="#07042D"/>
<path d="M164.717 669.539H162.357V671.899H164.717V669.539Z" fill="#07042D"/>
<path d="M167.084 667.179H164.724V669.539H167.084V667.179Z" fill="#07042D"/>
<path d="M169.444 664.812H167.084V667.172H169.444V664.812Z" fill="#07042D"/>
<path d="M159.99 674.267H157.63V676.626H159.99V674.267Z" fill="#07042D"/>
<path d="M152.902 676.626H150.542V678.986H152.902V676.626Z" fill="#07042D"/>
<path d="M157.63 676.626H155.27V678.986H157.63V676.626Z" fill="#07042D"/>
<path d="M143.447 652.997H141.087V657.724H143.447V652.997Z" fill="#FFEEFF"/>
<path d="M145.815 650.637H143.455V652.997H145.815V650.637Z" fill="#FFEEFF"/>
<path d="M154.237 720.033L154.237 722.278L156.481 722.278L156.481 720.033L154.237 720.033Z" fill="#07042D"/>
<path d="M151.985 722.271L151.985 724.515L154.23 724.515L154.23 722.271L151.985 722.271Z" fill="#07042D"/>
<path d="M156.481 717.781L156.481 720.026L158.726 720.026L158.726 717.781L156.481 717.781Z" fill="#07042D"/>
<path d="M158.726 715.537L158.726 717.781L160.971 717.781L160.971 715.537L158.726 715.537Z" fill="#07042D"/>
<path d="M160.978 713.285L160.978 715.53L163.222 715.53L163.222 713.285L160.978 713.285Z" fill="#07042D"/>
<path d="M163.222 711.041L163.222 713.285L165.467 713.285L165.467 711.041L163.222 711.041Z" fill="#07042D"/>
<path d="M165.474 708.789L165.474 711.033L167.719 711.033L167.719 708.789L165.474 708.789Z" fill="#07042D"/>
<path d="M167.718 706.544L167.718 708.789L169.963 708.789L169.963 706.544L167.718 706.544Z" fill="#07042D"/>
<path d="M169.97 704.3L169.97 706.544L172.215 706.544L172.215 704.3L169.97 704.3Z" fill="#07042D"/>
<path d="M172.215 702.048L172.215 704.293L174.46 704.293L174.46 702.048L172.215 702.048Z" fill="#07042D"/>
<path d="M147.489 713.292L147.489 715.537L149.733 715.537L149.733 713.292L147.489 713.292Z" fill="#07042D"/>
<path d="M145.237 715.53L145.237 717.774L147.482 717.774L147.482 715.53L145.237 715.53Z" fill="#07042D"/>
<path d="M149.733 711.041L149.733 713.285L151.978 713.285L151.978 711.041L149.733 711.041Z" fill="#07042D"/>
<path d="M151.985 708.789L151.985 711.033L154.23 711.033L154.23 708.789L151.985 708.789Z" fill="#07042D"/>
<path d="M154.23 706.544L154.23 708.789L156.474 708.789L156.474 706.544L154.23 706.544Z" fill="#07042D"/>
<path d="M156.481 704.293L156.481 706.537L158.726 706.537L158.726 704.293L156.481 704.293Z" fill="#07042D"/>
<path d="M158.726 702.048L158.726 704.293L160.971 704.293L160.971 702.048L158.726 702.048Z" fill="#07042D"/>
<path d="M154.237 729.018L156.481 729.018L156.481 726.774L154.237 726.774L154.237 729.018Z" fill="#07042D"/>
<path d="M156.481 733.515L158.726 733.515L158.726 729.018L156.481 729.018L156.481 733.515Z" fill="#07042D"/>
<path d="M151.985 726.767L154.23 726.767L154.23 724.522L151.985 724.522L151.985 726.767Z" fill="#07042D"/>
<path d="M149.741 724.522L151.985 724.522L151.985 722.278L149.741 722.278L149.741 724.522Z" fill="#07042D"/>
<path d="M147.496 722.271L149.74 722.271L149.74 720.026L147.496 720.026L147.496 722.271Z" fill="#07042D"/>
<path d="M145.244 720.026L147.489 720.026L147.489 717.781L145.244 717.781L145.244 720.026Z" fill="#07042D"/>
<path d="M143 717.781L145.244 717.781L145.244 715.537L143 715.537L143 717.781Z" fill="#07042D"/>
<path d="M140.748 715.53L142.992 715.53L142.992 713.285L140.748 713.285L140.748 715.53Z" fill="#07042D"/>
<path d="M136.252 713.285L140.748 713.285L140.748 711.041L136.252 711.041L136.252 713.285Z" fill="#07042D"/>
<path d="M154.237 733.515L156.481 733.515L156.481 731.27L154.237 731.27L154.237 733.515Z" fill="#07042D"/>
<path d="M145.244 729.018L147.489 729.018L147.489 726.774L145.244 726.774L145.244 729.018Z" fill="#07042D"/>
<path d="M143 731.263L145.244 731.263L145.244 729.018L143 729.018L143 731.263Z" fill="#07042D"/>
<path d="M136.252 733.515L138.496 733.515L138.496 731.27L136.252 731.27L136.252 733.515Z" fill="#07042D"/>
<path d="M138.503 735.759L140.748 735.759L140.748 733.515L138.503 733.515L138.503 735.759Z" fill="#07042D"/>
<path d="M134.007 731.263L136.252 731.263L136.252 729.018L134.007 729.018L134.007 731.263Z" fill="#07042D"/>
<path d="M140.748 735.759L142.992 735.759L142.992 731.263L140.748 731.263L140.748 735.759Z" fill="#07042D"/>
<path d="M138.503 726.767L140.748 726.767L140.748 724.522L138.503 724.522L138.503 726.767Z" fill="#07042D"/>
<path d="M134 729.018L138.496 729.018L138.496 726.774L134 726.774L134 729.018Z" fill="#07042D"/>
<path d="M140.748 724.522L142.992 724.522L142.992 722.278L140.748 722.278L140.748 724.522Z" fill="#07042D"/>
<path d="M136.252 715.53L138.496 715.53L138.496 713.285L136.252 713.285L136.252 715.53Z" fill="#07042D"/>
<path d="M151.985 731.263L154.23 731.263L154.23 729.018L151.985 729.018L151.985 731.263Z" fill="#07042D"/>
<path d="M149.741 729.018L151.985 729.018L151.985 726.774L149.741 726.774L149.741 729.018Z" fill="#07042D"/>
<path d="M147.496 726.767L149.74 726.767L149.74 724.522L147.496 724.522L147.496 726.767Z" fill="#07042D"/>
<path d="M145.244 724.522L147.489 724.522L147.489 722.278L145.244 722.278L145.244 724.522Z" fill="#07042D"/>
<path d="M143 722.271L145.244 722.271L145.244 720.026L143 720.026L143 722.271Z" fill="#07042D"/>
<path d="M140.748 720.026L142.992 720.026L142.992 717.781L140.748 717.781L140.748 720.026Z" fill="#07042D"/>
<path d="M138.503 717.781L140.748 717.781L140.748 715.537L138.503 715.537L138.503 717.781Z" fill="#07042D"/>
<path d="M160.97 699.803L160.97 702.048L163.215 702.048L163.215 699.803L160.97 699.803Z" fill="#07042D"/>
<path d="M163.222 697.559L163.222 699.803L165.467 699.803L165.467 697.559L163.222 697.559Z" fill="#07042D"/>
<path d="M165.467 695.307L165.467 697.552L167.711 697.552L167.711 695.307L165.467 695.307Z" fill="#07042D"/>
<path d="M167.711 693.063L167.711 695.307L176.704 695.307L176.704 693.063L167.711 693.063Z" fill="#07042D"/>
<path d="M174.459 695.307L174.459 702.048L176.704 702.048L176.704 695.307L174.459 695.307Z" fill="#07042D"/>
<path d="M140.748 731.263L142.992 731.263L142.992 724.522L140.748 724.522L140.748 731.263Z" fill="#C9704F"/>
<path d="M145.244 726.767L147.489 726.767L147.489 724.522L145.244 724.522L145.244 726.767Z" fill="#C9704F"/>
<path d="M136.252 731.263L138.496 731.263L138.496 729.018L136.252 729.018L136.252 731.263Z" fill="#C9704F"/>
<path d="M172.215 702.048L174.459 702.048L174.459 695.307L172.215 695.307L172.215 702.048Z" fill="#E5E5EC"/>
<path d="M147.496 720.026L149.74 720.026L149.74 715.53L147.496 715.53L147.496 720.026Z" fill="#ABABC3"/>
<path d="M169.971 704.293L172.215 704.293L172.215 695.3L169.971 695.3L169.971 704.293Z" fill="#ABABC3"/>
<path d="M167.719 706.537L169.963 706.537L169.963 695.3L167.719 695.3L167.719 706.537Z" fill="#ABABC3"/>
<path d="M165.474 708.789L167.718 708.789L167.718 697.552L165.474 697.552L165.474 708.789Z" fill="#ABABC3"/>
<path d="M163.23 711.033L165.474 711.033L165.474 699.796L163.23 699.796L163.23 711.033Z" fill="#ABABC3"/>
<path d="M160.978 713.285L163.222 713.285L163.222 702.048L160.978 702.048L160.978 713.285Z" fill="#ABABC3"/>
<path d="M158.733 715.53L160.978 715.53L160.978 704.293L158.733 704.293L158.733 715.53Z" fill="#ABABC3"/>
<path d="M156.481 717.781L158.726 717.781L158.726 706.544L156.482 706.544L156.481 717.781Z" fill="#ABABC3"/>
<path d="M154.237 720.026L156.481 720.026L156.481 708.789L154.237 708.789L154.237 720.026Z" fill="#ABABC3"/>
<path d="M151.985 722.271L154.23 722.271L154.23 711.033L151.985 711.033L151.985 722.271Z" fill="#ABABC3"/>
<path d="M149.741 722.271L151.985 722.271L151.985 713.278L149.741 713.278L149.741 722.271Z" fill="#ABABC3"/>
<path d="M149.741 717.781L149.741 720.026L151.985 720.026L151.985 717.781L149.741 717.781Z" fill="#60608D"/>
<path d="M154.237 729.018L154.237 731.263L156.482 731.263L156.482 729.018L154.237 729.018Z" fill="#BE523D"/>
<path d="M151.985 726.767L151.985 729.011L154.23 729.011L154.23 726.767L151.985 726.767Z" fill="#AF3F27"/>
<path d="M149.741 724.522L149.741 726.767L151.985 726.767L151.985 724.522L149.741 724.522Z" fill="#BE523D"/>
<path d="M147.489 722.278L147.489 724.522L149.733 724.522L149.733 722.278L147.489 722.278Z" fill="#AF3F27"/>
<path d="M145.244 720.026L145.244 722.271L147.489 722.271L147.489 720.026L145.244 720.026Z" fill="#BE523D"/>
<path d="M142.992 717.781L142.992 720.026L145.237 720.026L145.237 717.781L142.992 717.781Z" fill="#AF3F27"/>
<path d="M140.741 715.53L140.741 717.774L142.986 717.774L142.986 715.53L140.741 715.53Z" fill="#BE523D"/>
<path d="M143 722.278L143 729.018L145.245 729.018L145.245 722.278L143 722.278Z" fill="#AF3F27"/>
<path d="M138.504 726.767L138.504 733.508L140.748 733.508L140.748 726.767L138.504 726.767Z" fill="#AF3F27"/>
<path d="M138.504 713.285L138.504 715.53L140.748 715.53L140.748 713.285L138.504 713.285Z" fill="#AF3F27"/>
<path d="M151.985 715.53L151.985 717.774L154.23 717.774L154.23 715.53L151.985 715.53Z" fill="#60608D"/>
<path d="M154.237 713.285L154.237 715.53L156.482 715.53L156.482 713.285L154.237 713.285Z" fill="#60608D"/>
<path d="M156.481 711.041L156.481 713.285L158.726 713.285L158.726 711.041L156.481 711.041Z" fill="#60608D"/>
<path d="M158.733 708.796L158.733 711.04L160.978 711.04L160.978 708.796L158.733 708.796Z" fill="#60608D"/>
<path d="M160.978 706.544L160.978 708.789L163.222 708.789L163.222 706.544L160.978 706.544Z" fill="#60608D"/>
<path d="M163.229 704.3L163.229 706.544L165.474 706.544L165.474 704.3L163.229 704.3Z" fill="#60608D"/>
<path d="M165.474 702.048L165.474 704.293L167.719 704.293L167.719 702.048L165.474 702.048Z" fill="#60608D"/>
<path d="M167.718 699.796L167.718 702.041L169.963 702.041L169.963 699.796L167.718 699.796Z" fill="#60608D"/>
<path d="M167.719 697.552L174.459 697.552L174.459 695.307L167.719 695.307L167.719 697.552Z" fill="#E5E5EC"/>
<path d="M165.474 708.789L167.718 708.789L167.718 706.544L165.474 706.544L165.474 708.789Z" fill="#E5E5EC"/>
<path d="M163.23 711.033L165.474 711.033L165.474 708.789L163.23 708.789L163.23 711.033Z" fill="#E5E5EC"/>
<path d="M167.719 706.537L169.963 706.537L169.963 704.293L167.719 704.293L167.719 706.537Z" fill="#E5E5EC"/>
<path d="M169.971 704.293L172.215 704.293L172.215 702.048L169.971 702.048L169.971 704.293Z" fill="#E5E5EC"/>
<path d="M156.481 717.781L158.726 717.781L158.726 715.537L156.481 715.537L156.481 717.781Z" fill="#E5E5EC"/>
<path d="M154.237 720.026L156.481 720.026L156.481 717.781L154.237 717.781L154.237 720.026Z" fill="#E5E5EC"/>
<path d="M151.985 722.271L154.23 722.271L154.23 720.026L151.985 720.026L151.985 722.271Z" fill="#E5E5EC"/>
<path d="M151.985 713.285L154.23 713.285L154.23 711.041L151.985 711.041L151.985 713.285Z" fill="#E5E5EC"/>
<path d="M160.978 713.285L163.222 713.285L163.222 711.041L160.978 711.041L160.978 713.285Z" fill="#E5E5EC"/>
<path d="M158.733 715.53L160.978 715.53L160.978 713.285L158.733 713.285L158.733 715.53Z" fill="#E5E5EC"/>
<path d="M393.455 666.624C393.455 667.739 393.265 668.716 392.886 669.555C392.518 670.395 392.018 671.113 391.385 671.711C390.764 672.309 390.034 672.803 389.195 673.194C388.367 673.585 387.494 673.895 386.574 674.125C385.654 674.355 384.717 674.516 383.763 674.608C382.808 674.7 381.9 674.746 381.038 674.746C380.015 674.746 378.905 674.626 377.71 674.384C376.514 674.154 375.353 673.804 374.226 673.332C373.099 672.849 372.076 672.251 371.156 671.539C370.236 670.826 369.541 669.986 369.069 669.021L375.226 666.106C375.226 666.9 375.387 667.647 375.709 668.348C376.042 669.038 376.479 669.642 377.02 670.159C377.56 670.676 378.175 671.084 378.865 671.383C379.566 671.682 380.291 671.832 381.038 671.832C381.751 671.832 382.446 671.711 383.125 671.47C383.803 671.217 384.401 670.86 384.918 670.4C385.447 669.94 385.872 669.394 386.194 668.762C386.516 668.118 386.677 667.405 386.677 666.624C386.677 665.761 386.528 665.003 386.229 664.347C385.941 663.692 385.539 663.151 385.022 662.726C384.516 662.289 383.918 661.962 383.228 661.743C382.55 661.525 381.82 661.415 381.038 661.415C379.221 661.415 377.652 661.49 376.33 661.64C375.008 661.778 373.915 661.933 373.053 662.105C372.041 662.312 371.196 662.542 370.518 662.795L373.105 649.412H391.403V652.586H378.744L377.52 658.639C378.026 658.593 378.566 658.558 379.141 658.535C379.727 658.501 380.36 658.484 381.038 658.484C382.567 658.484 383.935 658.604 385.142 658.846C386.361 659.087 387.43 659.415 388.35 659.829C389.27 660.231 390.052 660.703 390.695 661.243C391.339 661.783 391.862 662.358 392.265 662.968C392.679 663.565 392.978 664.18 393.162 664.813C393.357 665.434 393.455 666.037 393.455 666.624ZM420.979 661.795C420.979 663.312 420.806 664.686 420.461 665.917C420.117 667.135 419.639 668.227 419.03 669.193C418.432 670.147 417.731 670.975 416.926 671.677C416.121 672.378 415.259 672.958 414.339 673.418C413.419 673.867 412.465 674.2 411.476 674.419C410.488 674.637 409.51 674.746 408.545 674.746C407.567 674.746 406.584 674.626 405.596 674.384C404.607 674.154 403.658 673.804 402.75 673.332C401.842 672.849 400.991 672.251 400.198 671.539C399.416 670.826 398.732 669.992 398.146 669.038C397.571 668.072 397.117 666.986 396.783 665.779C396.45 664.571 396.283 663.243 396.283 661.795C396.283 660.266 396.45 658.886 396.783 657.656C397.128 656.426 397.594 655.328 398.18 654.362C398.766 653.396 399.456 652.568 400.25 651.879C401.043 651.177 401.894 650.602 402.802 650.154C403.71 649.706 404.653 649.372 405.63 649.154C406.607 648.935 407.579 648.826 408.545 648.826C409.579 648.826 410.608 648.935 411.632 649.154C412.655 649.372 413.626 649.706 414.546 650.154C415.466 650.602 416.317 651.177 417.099 651.879C417.892 652.568 418.57 653.396 419.134 654.362C419.708 655.328 420.157 656.426 420.479 657.656C420.812 658.886 420.979 660.266 420.979 661.795ZM414.184 661.795C414.184 661.036 414.144 660.26 414.063 659.467C413.994 658.673 413.874 657.903 413.701 657.156C413.54 656.408 413.316 655.707 413.029 655.052C412.753 654.396 412.402 653.827 411.977 653.344C411.563 652.85 411.068 652.465 410.493 652.189C409.93 651.902 409.281 651.758 408.545 651.758C407.866 651.758 407.257 651.902 406.717 652.189C406.188 652.465 405.716 652.844 405.303 653.327C404.9 653.81 404.555 654.379 404.268 655.035C403.992 655.69 403.762 656.391 403.578 657.139C403.405 657.874 403.279 658.645 403.199 659.449C403.118 660.243 403.078 661.025 403.078 661.795C403.078 662.554 403.118 663.33 403.199 664.123C403.279 664.916 403.405 665.687 403.578 666.434C403.762 667.17 403.992 667.865 404.268 668.521C404.555 669.176 404.9 669.751 405.303 670.245C405.716 670.728 406.188 671.113 406.717 671.401C407.257 671.688 407.866 671.832 408.545 671.832C409.189 671.832 409.775 671.688 410.304 671.401C410.844 671.102 411.321 670.705 411.735 670.211C412.161 669.705 412.523 669.124 412.822 668.469C413.132 667.802 413.385 667.101 413.58 666.365C413.787 665.618 413.937 664.853 414.029 664.071C414.132 663.289 414.184 662.531 414.184 661.795ZM449.02 661.795C449.02 663.312 448.848 664.686 448.503 665.917C448.158 667.135 447.681 668.227 447.071 669.193C446.474 670.147 445.772 670.975 444.967 671.677C444.163 672.378 443.3 672.958 442.381 673.418C441.461 673.867 440.507 674.2 439.518 674.419C438.529 674.637 437.552 674.746 436.586 674.746C435.609 674.746 434.626 674.626 433.637 674.384C432.648 674.154 431.7 673.804 430.792 673.332C429.883 672.849 429.032 672.251 428.239 671.539C427.457 670.826 426.773 669.992 426.187 669.038C425.612 668.072 425.158 666.986 424.825 665.779C424.491 664.571 424.324 663.243 424.324 661.795C424.324 660.266 424.491 658.886 424.825 657.656C425.169 656.426 425.635 655.328 426.221 654.362C426.808 653.396 427.498 652.568 428.291 651.879C429.084 651.177 429.935 650.602 430.843 650.154C431.752 649.706 432.694 649.372 433.672 649.154C434.649 648.935 435.62 648.826 436.586 648.826C437.621 648.826 438.65 648.935 439.673 649.154C440.696 649.372 441.668 649.706 442.588 650.154C443.507 650.602 444.358 651.177 445.14 651.879C445.933 652.568 446.612 653.396 447.175 654.362C447.75 655.328 448.198 656.426 448.52 657.656C448.853 658.886 449.02 660.266 449.02 661.795ZM442.225 661.795C442.225 661.036 442.185 660.26 442.105 659.467C442.036 658.673 441.915 657.903 441.743 657.156C441.582 656.408 441.357 655.707 441.07 655.052C440.794 654.396 440.443 653.827 440.018 653.344C439.604 652.85 439.11 652.465 438.535 652.189C437.971 651.902 437.322 651.758 436.586 651.758C435.908 651.758 435.298 651.902 434.758 652.189C434.229 652.465 433.758 652.844 433.344 653.327C432.941 653.81 432.597 654.379 432.309 655.035C432.033 655.69 431.803 656.391 431.619 657.139C431.447 657.874 431.32 658.645 431.24 659.449C431.159 660.243 431.119 661.025 431.119 661.795C431.119 662.554 431.159 663.33 431.24 664.123C431.32 664.916 431.447 665.687 431.619 666.434C431.803 667.17 432.033 667.865 432.309 668.521C432.597 669.176 432.941 669.751 433.344 670.245C433.758 670.728 434.229 671.113 434.758 671.401C435.298 671.688 435.908 671.832 436.586 671.832C437.23 671.832 437.816 671.688 438.345 671.401C438.885 671.102 439.363 670.705 439.777 670.211C440.202 669.705 440.564 669.124 440.863 668.469C441.173 667.802 441.426 667.101 441.622 666.365C441.829 665.618 441.978 664.853 442.07 664.071C442.174 663.289 442.225 662.531 442.225 661.795ZM477.062 661.795C477.062 663.312 476.889 664.686 476.544 665.917C476.199 667.135 475.722 668.227 475.113 669.193C474.515 670.147 473.814 670.975 473.009 671.677C472.204 672.378 471.342 672.958 470.422 673.418C469.502 673.867 468.548 674.2 467.559 674.419C466.57 674.637 465.593 674.746 464.627 674.746C463.65 674.746 462.667 674.626 461.678 674.384C460.69 674.154 459.741 673.804 458.833 673.332C457.925 672.849 457.074 672.251 456.281 671.539C455.499 670.826 454.815 669.992 454.228 669.038C453.653 668.072 453.199 666.986 452.866 665.779C452.533 664.571 452.366 663.243 452.366 661.795C452.366 660.266 452.533 658.886 452.866 657.656C453.211 656.426 453.676 655.328 454.263 654.362C454.849 653.396 455.539 652.568 456.332 651.879C457.126 651.177 457.976 650.602 458.885 650.154C459.793 649.706 460.736 649.372 461.713 649.154C462.69 648.935 463.662 648.826 464.627 648.826C465.662 648.826 466.691 648.935 467.714 649.154C468.738 649.372 469.709 649.706 470.629 650.154C471.549 650.602 472.399 651.177 473.181 651.879C473.975 652.568 474.653 653.396 475.216 654.362C475.791 655.328 476.239 656.426 476.561 657.656C476.895 658.886 477.062 660.266 477.062 661.795ZM470.267 661.795C470.267 661.036 470.227 660.26 470.146 659.467C470.077 658.673 469.956 657.903 469.784 657.156C469.623 656.408 469.399 655.707 469.111 655.052C468.835 654.396 468.485 653.827 468.059 653.344C467.645 652.85 467.151 652.465 466.576 652.189C466.013 651.902 465.363 651.758 464.627 651.758C463.949 651.758 463.34 651.902 462.799 652.189C462.271 652.465 461.799 652.844 461.385 653.327C460.983 653.81 460.638 654.379 460.351 655.035C460.075 655.69 459.845 656.391 459.661 657.139C459.488 657.874 459.362 658.645 459.281 659.449C459.201 660.243 459.161 661.025 459.161 661.795C459.161 662.554 459.201 663.33 459.281 664.123C459.362 664.916 459.488 665.687 459.661 666.434C459.845 667.17 460.075 667.865 460.351 668.521C460.638 669.176 460.983 669.751 461.385 670.245C461.799 670.728 462.271 671.113 462.799 671.401C463.34 671.688 463.949 671.832 464.627 671.832C465.271 671.832 465.858 671.688 466.386 671.401C466.927 671.102 467.404 670.705 467.818 670.211C468.243 669.705 468.605 669.124 468.904 668.469C469.215 667.802 469.468 667.101 469.663 666.365C469.87 665.618 470.02 664.853 470.112 664.071C470.215 663.289 470.267 662.531 470.267 661.795ZM505.103 661.795C505.103 663.312 504.93 664.686 504.586 665.917C504.241 667.135 503.763 668.227 503.154 669.193C502.556 670.147 501.855 670.975 501.05 671.677C500.245 672.378 499.383 672.958 498.463 673.418C497.544 673.867 496.589 674.2 495.601 674.419C494.612 674.637 493.635 674.746 492.669 674.746C491.692 674.746 490.709 674.626 489.72 674.384C488.731 674.154 487.783 673.804 486.874 673.332C485.966 672.849 485.115 672.251 484.322 671.539C483.54 670.826 482.856 669.992 482.27 669.038C481.695 668.072 481.241 666.986 480.907 665.779C480.574 664.571 480.407 663.243 480.407 661.795C480.407 660.266 480.574 658.886 480.907 657.656C481.252 656.426 481.718 655.328 482.304 654.362C482.891 653.396 483.58 652.568 484.374 651.879C485.167 651.177 486.018 650.602 486.926 650.154C487.834 649.706 488.777 649.372 489.754 649.154C490.732 648.935 491.703 648.826 492.669 648.826C493.704 648.826 494.733 648.935 495.756 649.154C496.779 649.372 497.751 649.706 498.67 650.154C499.59 650.602 500.441 651.177 501.223 651.879C502.016 652.568 502.694 653.396 503.258 654.362C503.832 655.328 504.281 656.426 504.603 657.656C504.936 658.886 505.103 660.266 505.103 661.795ZM498.308 661.795C498.308 661.036 498.268 660.26 498.187 659.467C498.118 658.673 497.998 657.903 497.825 657.156C497.664 656.408 497.44 655.707 497.153 655.052C496.877 654.396 496.526 653.827 496.101 653.344C495.687 652.85 495.192 652.465 494.618 652.189C494.054 651.902 493.405 651.758 492.669 651.758C491.99 651.758 491.381 651.902 490.841 652.189C490.312 652.465 489.841 652.844 489.427 653.327C489.024 653.81 488.679 654.379 488.392 655.035C488.116 655.69 487.886 656.391 487.702 657.139C487.53 657.874 487.403 658.645 487.323 659.449C487.242 660.243 487.202 661.025 487.202 661.795C487.202 662.554 487.242 663.33 487.323 664.123C487.403 664.916 487.53 665.687 487.702 666.434C487.886 667.17 488.116 667.865 488.392 668.521C488.679 669.176 489.024 669.751 489.427 670.245C489.841 670.728 490.312 671.113 490.841 671.401C491.381 671.688 491.99 671.832 492.669 671.832C493.313 671.832 493.899 671.688 494.428 671.401C494.968 671.102 495.445 670.705 495.859 670.211C496.285 669.705 496.647 669.124 496.946 668.469C497.256 667.802 497.509 667.101 497.705 666.365C497.911 665.618 498.061 664.853 498.153 664.071C498.256 663.289 498.308 662.531 498.308 661.795Z" fill="#2B167D"/>
<path d="M366.138 728.401H352.669V725.245H355.98V706.723H352.669V703.567H362.827V725.245H366.138V728.401ZM393.144 715.949C393.144 717.467 392.972 718.841 392.627 720.071C392.282 721.29 391.805 722.382 391.196 723.348C390.598 724.302 389.897 725.13 389.092 725.831C388.287 726.532 387.425 727.113 386.505 727.573C385.585 728.021 384.631 728.355 383.642 728.573C382.653 728.791 381.676 728.901 380.71 728.901C379.733 728.901 378.75 728.78 377.761 728.539C376.773 728.309 375.824 727.958 374.916 727.487C374.008 727.004 373.157 726.406 372.363 725.693C371.582 724.98 370.898 724.147 370.311 723.192C369.736 722.227 369.282 721.14 368.949 719.933C368.615 718.726 368.449 717.398 368.449 715.949C368.449 714.42 368.615 713.04 368.949 711.81C369.294 710.58 369.759 709.482 370.346 708.516C370.932 707.551 371.622 706.723 372.415 706.033C373.209 705.332 374.059 704.757 374.968 704.308C375.876 703.86 376.819 703.527 377.796 703.308C378.773 703.09 379.745 702.981 380.71 702.981C381.745 702.981 382.774 703.09 383.797 703.308C384.821 703.527 385.792 703.86 386.712 704.308C387.632 704.757 388.482 705.332 389.264 706.033C390.057 706.723 390.736 707.551 391.299 708.516C391.874 709.482 392.322 710.58 392.644 711.81C392.978 713.04 393.144 714.42 393.144 715.949ZM386.35 715.949C386.35 715.19 386.309 714.414 386.229 713.621C386.16 712.828 386.039 712.057 385.867 711.31C385.706 710.563 385.482 709.862 385.194 709.206C384.918 708.551 384.568 707.982 384.142 707.499C383.728 707.004 383.234 706.619 382.659 706.343C382.096 706.056 381.446 705.912 380.71 705.912C380.032 705.912 379.423 706.056 378.882 706.343C378.353 706.619 377.882 706.999 377.468 707.482C377.066 707.964 376.721 708.534 376.433 709.189C376.158 709.844 375.928 710.546 375.744 711.293C375.571 712.029 375.445 712.799 375.364 713.604C375.284 714.397 375.243 715.179 375.243 715.949C375.243 716.708 375.284 717.484 375.364 718.277C375.445 719.071 375.571 719.841 375.744 720.588C375.928 721.324 376.158 722.02 376.433 722.675C376.721 723.33 377.066 723.905 377.468 724.4C377.882 724.882 378.353 725.268 378.882 725.555C379.423 725.842 380.032 725.986 380.71 725.986C381.354 725.986 381.941 725.842 382.469 725.555C383.01 725.256 383.487 724.859 383.901 724.365C384.326 723.859 384.688 723.279 384.987 722.623C385.298 721.956 385.551 721.255 385.746 720.519C385.953 719.772 386.102 719.007 386.194 718.226C386.298 717.444 386.35 716.685 386.35 715.949ZM421.186 715.949C421.186 717.467 421.013 718.841 420.668 720.071C420.324 721.29 419.846 722.382 419.237 723.348C418.639 724.302 417.938 725.13 417.133 725.831C416.328 726.532 415.466 727.113 414.546 727.573C413.626 728.021 412.672 728.355 411.683 728.573C410.695 728.791 409.717 728.901 408.752 728.901C407.774 728.901 406.791 728.78 405.803 728.539C404.814 728.309 403.865 727.958 402.957 727.487C402.049 727.004 401.198 726.406 400.405 725.693C399.623 724.98 398.939 724.147 398.353 723.192C397.778 722.227 397.324 721.14 396.99 719.933C396.657 718.726 396.49 717.398 396.49 715.949C396.49 714.42 396.657 713.04 396.99 711.81C397.335 710.58 397.801 709.482 398.387 708.516C398.973 707.551 399.663 706.723 400.457 706.033C401.25 705.332 402.101 704.757 403.009 704.308C403.917 703.86 404.86 703.527 405.837 703.308C406.814 703.09 407.786 702.981 408.752 702.981C409.786 702.981 410.815 703.09 411.839 703.308C412.862 703.527 413.833 703.86 414.753 704.308C415.673 704.757 416.524 705.332 417.306 706.033C418.099 706.723 418.777 707.551 419.341 708.516C419.915 709.482 420.364 710.58 420.686 711.81C421.019 713.04 421.186 714.42 421.186 715.949ZM414.391 715.949C414.391 715.19 414.351 714.414 414.27 713.621C414.201 712.828 414.081 712.057 413.908 711.31C413.747 710.563 413.523 709.862 413.236 709.206C412.96 708.551 412.609 707.982 412.184 707.499C411.77 707.004 411.275 706.619 410.7 706.343C410.137 706.056 409.488 705.912 408.752 705.912C408.073 705.912 407.464 706.056 406.924 706.343C406.395 706.619 405.923 706.999 405.51 707.482C405.107 707.964 404.762 708.534 404.475 709.189C404.199 709.844 403.969 710.546 403.785 711.293C403.613 712.029 403.486 712.799 403.406 713.604C403.325 714.397 403.285 715.179 403.285 715.949C403.285 716.708 403.325 717.484 403.406 718.277C403.486 719.071 403.613 719.841 403.785 720.588C403.969 721.324 404.199 722.02 404.475 722.675C404.762 723.33 405.107 723.905 405.51 724.4C405.923 724.882 406.395 725.268 406.924 725.555C407.464 725.842 408.073 725.986 408.752 725.986C409.396 725.986 409.982 725.842 410.511 725.555C411.051 725.256 411.528 724.859 411.942 724.365C412.368 723.859 412.73 723.279 413.029 722.623C413.339 721.956 413.592 721.255 413.787 720.519C413.994 719.772 414.144 719.007 414.236 718.226C414.339 717.444 414.391 716.685 414.391 715.949ZM449.227 715.949C449.227 717.467 449.055 718.841 448.71 720.071C448.365 721.29 447.888 722.382 447.278 723.348C446.681 724.302 445.979 725.13 445.174 725.831C444.37 726.532 443.507 727.113 442.588 727.573C441.668 728.021 440.714 728.355 439.725 728.573C438.736 728.791 437.759 728.901 436.793 728.901C435.816 728.901 434.833 728.78 433.844 728.539C432.855 728.309 431.907 727.958 430.999 727.487C430.09 727.004 429.24 726.406 428.446 725.693C427.664 724.98 426.98 724.147 426.394 723.192C425.819 722.227 425.365 721.14 425.032 719.933C424.698 718.726 424.531 717.398 424.531 715.949C424.531 714.42 424.698 713.04 425.032 711.81C425.376 710.58 425.842 709.482 426.428 708.516C427.015 707.551 427.705 706.723 428.498 706.033C429.291 705.332 430.142 704.757 431.05 704.308C431.959 703.86 432.901 703.527 433.879 703.308C434.856 703.09 435.827 702.981 436.793 702.981C437.828 702.981 438.857 703.09 439.88 703.308C440.903 703.527 441.875 703.86 442.795 704.308C443.714 704.757 444.565 705.332 445.347 706.033C446.14 706.723 446.819 707.551 447.382 708.516C447.957 709.482 448.405 710.58 448.727 711.81C449.06 713.04 449.227 714.42 449.227 715.949ZM442.432 715.949C442.432 715.19 442.392 714.414 442.312 713.621C442.243 712.828 442.122 712.057 441.95 711.31C441.789 710.563 441.564 709.862 441.277 709.206C441.001 708.551 440.65 707.982 440.225 707.499C439.811 707.004 439.317 706.619 438.742 706.343C438.178 706.056 437.529 705.912 436.793 705.912C436.115 705.912 435.505 706.056 434.965 706.343C434.436 706.619 433.965 706.999 433.551 707.482C433.149 707.964 432.804 708.534 432.516 709.189C432.24 709.844 432.01 710.546 431.826 711.293C431.654 712.029 431.527 712.799 431.447 713.604C431.366 714.397 431.326 715.179 431.326 715.949C431.326 716.708 431.366 717.484 431.447 718.277C431.527 719.071 431.654 719.841 431.826 720.588C432.01 721.324 432.24 722.02 432.516 722.675C432.804 723.33 433.149 723.905 433.551 724.4C433.965 724.882 434.436 725.268 434.965 725.555C435.505 725.842 436.115 725.986 436.793 725.986C437.437 725.986 438.023 725.842 438.552 725.555C439.093 725.256 439.57 724.859 439.984 724.365C440.409 723.859 440.771 723.279 441.07 722.623C441.38 721.956 441.633 721.255 441.829 720.519C442.036 719.772 442.185 719.007 442.277 718.226C442.381 717.444 442.432 716.685 442.432 715.949ZM477.269 715.949C477.269 717.467 477.096 718.841 476.751 720.071C476.406 721.29 475.929 722.382 475.32 723.348C474.722 724.302 474.021 725.13 473.216 725.831C472.411 726.532 471.549 727.113 470.629 727.573C469.709 728.021 468.755 728.355 467.766 728.573C466.777 728.791 465.8 728.901 464.834 728.901C463.857 728.901 462.874 728.78 461.885 728.539C460.897 728.309 459.948 727.958 459.04 727.487C458.132 727.004 457.281 726.406 456.488 725.693C455.706 724.98 455.022 724.147 454.435 723.192C453.861 722.227 453.406 721.14 453.073 719.933C452.74 718.726 452.573 717.398 452.573 715.949C452.573 714.42 452.74 713.04 453.073 711.81C453.418 710.58 453.884 709.482 454.47 708.516C455.056 707.551 455.746 706.723 456.539 706.033C457.333 705.332 458.183 704.757 459.092 704.308C460 703.86 460.943 703.527 461.92 703.308C462.897 703.09 463.869 702.981 464.834 702.981C465.869 702.981 466.898 703.09 467.921 703.308C468.945 703.527 469.916 703.86 470.836 704.308C471.756 704.757 472.606 705.332 473.388 706.033C474.182 706.723 474.86 707.551 475.423 708.516C475.998 709.482 476.447 710.58 476.768 711.81C477.102 713.04 477.269 714.42 477.269 715.949ZM470.474 715.949C470.474 715.19 470.434 714.414 470.353 713.621C470.284 712.828 470.163 712.057 469.991 711.31C469.83 710.563 469.606 709.862 469.318 709.206C469.042 708.551 468.692 707.982 468.266 707.499C467.852 707.004 467.358 706.619 466.783 706.343C466.22 706.056 465.57 705.912 464.834 705.912C464.156 705.912 463.547 706.056 463.006 706.343C462.478 706.619 462.006 706.999 461.592 707.482C461.19 707.964 460.845 708.534 460.558 709.189C460.282 709.844 460.052 710.546 459.868 711.293C459.695 712.029 459.569 712.799 459.488 713.604C459.408 714.397 459.368 715.179 459.368 715.949C459.368 716.708 459.408 717.484 459.488 718.277C459.569 719.071 459.695 719.841 459.868 720.588C460.052 721.324 460.282 722.02 460.558 722.675C460.845 723.33 461.19 723.905 461.592 724.4C462.006 724.882 462.478 725.268 463.006 725.555C463.547 725.842 464.156 725.986 464.834 725.986C465.478 725.986 466.065 725.842 466.594 725.555C467.134 725.256 467.611 724.859 468.025 724.365C468.45 723.859 468.812 723.279 469.111 722.623C469.422 721.956 469.675 721.255 469.87 720.519C470.077 719.772 470.227 719.007 470.319 718.226C470.422 717.444 470.474 716.685 470.474 715.949ZM505.31 715.949C505.31 717.467 505.137 718.841 504.793 720.071C504.448 721.29 503.971 722.382 503.361 723.348C502.763 724.302 502.062 725.13 501.257 725.831C500.452 726.532 499.59 727.113 498.67 727.573C497.751 728.021 496.796 728.355 495.808 728.573C494.819 728.791 493.842 728.901 492.876 728.901C491.899 728.901 490.916 728.78 489.927 728.539C488.938 728.309 487.99 727.958 487.081 727.487C486.173 727.004 485.322 726.406 484.529 725.693C483.747 724.98 483.063 724.147 482.477 723.192C481.902 722.227 481.448 721.14 481.114 719.933C480.781 718.726 480.614 717.398 480.614 715.949C480.614 714.42 480.781 713.04 481.114 711.81C481.459 710.58 481.925 709.482 482.511 708.516C483.098 707.551 483.787 706.723 484.581 706.033C485.374 705.332 486.225 704.757 487.133 704.308C488.041 703.86 488.984 703.527 489.961 703.308C490.939 703.09 491.91 702.981 492.876 702.981C493.911 702.981 494.94 703.09 495.963 703.308C496.986 703.527 497.958 703.86 498.877 704.308C499.797 704.757 500.648 705.332 501.43 706.033C502.223 706.723 502.901 707.551 503.465 708.516C504.039 709.482 504.488 710.58 504.81 711.81C505.143 713.04 505.31 714.42 505.31 715.949ZM498.515 715.949C498.515 715.19 498.475 714.414 498.394 713.621C498.325 712.828 498.205 712.057 498.032 711.31C497.871 710.563 497.647 709.862 497.36 709.206C497.084 708.551 496.733 707.982 496.308 707.499C495.894 707.004 495.399 706.619 494.825 706.343C494.261 706.056 493.612 705.912 492.876 705.912C492.198 705.912 491.588 706.056 491.048 706.343C490.519 706.619 490.048 706.999 489.634 707.482C489.231 707.964 488.886 708.534 488.599 709.189C488.323 709.844 488.093 710.546 487.909 711.293C487.737 712.029 487.61 712.799 487.53 713.604C487.449 714.397 487.409 715.179 487.409 715.949C487.409 716.708 487.449 717.484 487.53 718.277C487.61 719.071 487.737 719.841 487.909 720.588C488.093 721.324 488.323 722.02 488.599 722.675C488.886 723.33 489.231 723.905 489.634 724.4C490.048 724.882 490.519 725.268 491.048 725.555C491.588 725.842 492.198 725.986 492.876 725.986C493.52 725.986 494.106 725.842 494.635 725.555C495.175 725.256 495.652 724.859 496.066 724.365C496.492 723.859 496.854 723.279 497.153 722.623C497.463 721.956 497.716 721.255 497.912 720.519C498.118 719.772 498.268 719.007 498.36 718.226C498.463 717.444 498.515 716.685 498.515 715.949Z" fill="#2B167D"/>
<defs>
<clipPath id="clip0_472_1677">
<rect width="408.323" height="245" fill="white" transform="matrix(-1 0 0 1 517.505 242)"/>
</clipPath>
</defs>
</svg>
