<svg width="109" height="92" viewBox="0 0 109 92" fill="none" xmlns="http://www.w3.org/2000/svg">
<path d="M91.1706 75.7467H99.5732V50.508H91.1706V75.7467Z" fill="#BCAC17"/>
<path d="M91.1707 67.3441H82.7681V84.1801H91.1707V67.3441Z" fill="#BCAC17"/>
<path d="M49.0663 84.1493H82.7383V75.7466H49.0663V84.1493Z" fill="#BCAC17"/>
<path d="M16.0394 8.40259H7.63672V16.8053H16.0394V8.40259Z" fill="white"/>
<path d="M92.0002 0H15.3335V9.2H92.0002V0Z" fill="white"/>
<path d="M7.63542 84.1801H16.0381V75.7774H7.63542L7.63542 84.1801Z" fill="white"/>
<path d="M-0.000292778 79.7333H9.19971L9.19971 15.3333H-0.000292778L-0.000292778 79.7333Z" fill="white"/>
<path d="M98.9299 79.7333H108.13L108.13 15.3333H98.9299V79.7333Z" fill="white"/>
<path d="M92.0002 82.8H15.3335V92H92.0002V82.8Z" fill="white"/>
<path d="M99.574 75.7467H91.1714V84.1494H99.574V75.7467Z" fill="white"/>
<path d="M99.574 8.40259H91.1714V16.8053H99.574V8.40259Z" fill="white"/>
<path d="M16.0394 16.8359H7.63672V75.7466H16.0394V16.8359Z" fill="#E2C426"/>
<path d="M99.574 16.8359H91.1714V75.7466H99.574V16.8359Z" fill="#E2C426"/>
<path d="M24.4408 8.40259H16.0381V84.1493H24.4408V8.40259Z" fill="#E2C426"/>
<path d="M32.8743 8.40259H24.4717V84.1493H32.8743V8.40259Z" fill="#E2C426"/>
<path d="M41.2777 8.40259H32.875V84.1493H41.2777V8.40259Z" fill="#E2C426"/>
<path d="M49.7108 8.40259H41.3081V84.1493H49.7108V8.40259Z" fill="#E2C426"/>
<path d="M58.1126 8.40259H49.71V84.1493H58.1126V8.40259Z" fill="#E2C426"/>
<path d="M66.5467 8.40259H58.144V84.1493H66.5467V8.40259Z" fill="#E2C426"/>
<path d="M74.9798 8.40259H66.5771V84.1493H74.9798V8.40259Z" fill="#E2C426"/>
<path d="M83.3817 8.40259H74.979V84.1493H83.3817V8.40259Z" fill="#E2C426"/>
<path d="M91.7845 8.40259H83.3818V84.1493H91.7845V8.40259Z" fill="#E2C426"/>
<path d="M57.4691 8.40259H49.0664V84.1493H57.4691V8.40259Z" fill="#E2C426"/>
<path d="M91.1707 8.40259H82.7681V84.1493H91.1707V8.40259Z" fill="#E2C426"/>
<path d="M7.63542 75.7467H16.0381L16.0381 50.508H7.63542L7.63542 75.7467Z" fill="#BCAC17"/>
<path d="M91.1706 75.7467H99.5732V50.508H91.1706V75.7467Z" fill="#BCAC17"/>
<path d="M16.069 84.1493H24.4717L24.4717 67.3133H16.069V84.1493Z" fill="#BCAC17"/>
<path d="M24.4723 84.1801H32.875V75.7774H24.4723V84.1801Z" fill="#BCAC17"/>
<path d="M16.069 25.2386H24.4717V16.836H16.069V25.2386Z" fill="#EEE853"/>
<path d="M91.1706 25.2386H99.5732V16.836H91.1706V25.2386Z" fill="#EEE853"/>
<path d="M65.9023 75.7467H82.7383V67.344H65.9023V75.7467Z" fill="#EEE853"/>
<path d="M82.7687 75.7467H91.1714V67.344H82.7687V75.7467Z" fill="#BCAC17"/>
<path d="M24.4721 16.8359L41.3081 16.8359V8.43327L24.4721 8.43327V16.8359Z" fill="#EEE853"/>
<path d="M31.3828 36L77.3828 36V28L31.3828 28V36Z" fill="white"/>
<path d="M31.3828 50L77.3828 50V42L31.3828 42V50Z" fill="white"/>
<path d="M31.3828 64L77.3828 64V56L31.3828 56V64Z" fill="white"/>
</svg>
