<svg width="109" height="92" viewBox="0 0 109 92" fill="none" xmlns="http://www.w3.org/2000/svg">
<path d="M91.7878 75.7467H100.19V50.508H91.7878V75.7467Z" fill="#702989"/>
<path d="M91.7879 67.3441H83.3853V84.1801H91.7879V67.3441Z" fill="#702989"/>
<path d="M49.6835 84.1493H83.3555V75.7466H49.6835V84.1493Z" fill="#702989"/>
<path d="M16.6566 8.40259H8.25391V16.8053H16.6566V8.40259Z" fill="white"/>
<path d="M92.6173 0H15.9507V9.2H92.6173V0Z" fill="white"/>
<path d="M8.25261 84.1801H16.6553V75.7774H8.25261L8.25261 84.1801Z" fill="white"/>
<path d="M0.616895 79.7333H9.81689L9.81689 15.3333H0.616895L0.616895 79.7333Z" fill="white"/>
<path d="M99.5471 79.7333H108.747L108.747 15.3333H99.5471V79.7333Z" fill="white"/>
<path d="M92.6173 82.8H15.9507V92H92.6173V82.8Z" fill="white"/>
<path d="M100.191 75.7467H91.7886V84.1494H100.191V75.7467Z" fill="white"/>
<path d="M100.191 8.40259H91.7886V16.8053H100.191V8.40259Z" fill="white"/>
<path d="M16.6566 16.8359H8.25391V75.7466H16.6566V16.8359Z" fill="#9B47B9"/>
<path d="M100.191 16.8359H91.7886V75.7466H100.191V16.8359Z" fill="#9B47B9"/>
<path d="M25.0579 8.40259H16.6553V84.1493H25.0579V8.40259Z" fill="#9B47B9"/>
<path d="M33.4915 8.40259H25.0889V84.1493H33.4915V8.40259Z" fill="#9B47B9"/>
<path d="M41.8948 8.40259H33.4922V84.1493H41.8948V8.40259Z" fill="#9B47B9"/>
<path d="M50.328 8.40259H41.9253V84.1493H50.328V8.40259Z" fill="#9B47B9"/>
<path d="M58.7298 8.40259H50.3271V84.1493H58.7298V8.40259Z" fill="#9B47B9"/>
<path d="M67.1639 8.40259H58.7612V84.1493H67.1639V8.40259Z" fill="#9B47B9"/>
<path d="M75.597 8.40259H67.1943V84.1493H75.597V8.40259Z" fill="#9B47B9"/>
<path d="M83.9989 8.40259H75.5962V84.1493H83.9989V8.40259Z" fill="#9B47B9"/>
<path d="M92.4017 8.40259H83.999V84.1493H92.4017V8.40259Z" fill="#9B47B9"/>
<path d="M58.0863 8.40259H49.6836V84.1493H58.0863V8.40259Z" fill="#9B47B9"/>
<path d="M91.7879 8.40259H83.3853V84.1493H91.7879V8.40259Z" fill="#9B47B9"/>
<path d="M8.25261 75.7467H16.6553L16.6553 50.508H8.25261L8.25261 75.7467Z" fill="#702989"/>
<path d="M91.7878 75.7467H100.19V50.508H91.7878V75.7467Z" fill="#702989"/>
<path d="M16.6862 84.1493H25.0889L25.0889 67.3133H16.6862V84.1493Z" fill="#702989"/>
<path d="M25.0895 84.1801H33.4922V75.7774H25.0895V84.1801Z" fill="#702989"/>
<path d="M16.6862 25.2386H25.0889V16.836H16.6862V25.2386Z" fill="white"/>
<path d="M91.7878 25.2386H100.19V16.836H91.7878V25.2386Z" fill="#D661E0"/>
<path d="M83.3859 67.3441H91.7886V58.9414H83.3859V67.3441Z" fill="#D661E0"/>
<path d="M66.5195 75.7467H83.3555V67.344H66.5195V75.7467Z" fill="#D661E0"/>
<path d="M83.3859 75.7467H91.7886V67.344H83.3859V75.7467Z" fill="#702989"/>
<path d="M25.0893 16.8359L41.9253 16.8359V8.43327L25.0893 8.43327V16.8359Z" fill="white"/>
<g clip-path="url(#clip0_431_718)">
<path d="M30.5273 31.1716V28.2343H27.59V31.1716H30.5273Z" fill="#07042D"/>
<path d="M30.5273 42.9396V40.0023H27.59V42.9396H30.5273Z" fill="#07042D"/>
<path d="M27.5804 31.1809H24.6431V40.0022H27.5804V31.1809Z" fill="#07042D"/>
<path d="M36.4113 25.2969H30.5273V28.2343H36.4113V25.2969Z" fill="#07042D"/>
<path d="M36.4113 31.1809H30.5273V34.1182H36.4113V31.1809Z" fill="#07042D"/>
<path d="M36.4113 37.0649H30.5273V40.0023H36.4113V37.0649Z" fill="#07042D"/>
<path d="M33.4647 34.1183H30.5273V40.0023H33.4647V34.1183Z" fill="#07042D"/>
<path d="M36.4113 28.2343H30.5273V31.1716H36.4113V28.2343Z" fill="#FFD91D"/>
<path d="M39.3487 40.0023H30.5273V42.9396H39.3487V40.0023Z" fill="#FFD91D"/>
<path d="M27.5801 31.1809V40.0023H30.5174V31.1809H27.5801Z" fill="#FFD91D"/>
<path d="M68.7681 22.3503V34.1183H71.7054V22.3503H68.7681Z" fill="#FFD91D"/>
<path d="M39.3487 42.9396H30.5273V45.8769H39.3487V42.9396Z" fill="#07042D"/>
<path d="M83.4746 31.1716V28.2343H80.5373V31.1716H83.4746Z" fill="#07042D"/>
<path d="M83.4644 42.9396V40.0023H80.527V42.9396H83.4644Z" fill="#07042D"/>
<path d="M86.4017 31.1809H83.4644V40.0022H86.4017V31.1809Z" fill="#07042D"/>
<path d="M74.6429 28.2343H80.5269V25.2969H74.6429V28.2343Z" fill="#07042D"/>
<path d="M80.5271 31.1809H74.6431V34.1182H80.5271V31.1809Z" fill="#07042D"/>
<path d="M80.5271 37.0649H74.6431V40.0023H80.5271V37.0649Z" fill="#07042D"/>
<path d="M80.5277 34.1183H77.5903V40.0023H80.5277V34.1183Z" fill="#07042D"/>
<path d="M74.6429 31.1809H80.5269V28.2436H74.6429V31.1809Z" fill="#FFD91D"/>
<path d="M71.7055 42.9396H80.5269V40.0022H71.7055V42.9396Z" fill="#FFD91D"/>
<path d="M80.5269 31.1809V40.0023H83.4642V31.1809H80.5269Z" fill="#FFD91D"/>
<path d="M71.7055 45.8863H80.5269V42.949H71.7055V45.8863Z" fill="#07042D"/>
<path d="M51.1167 54.7076V51.7703H45.2327V54.7076H51.1167Z" fill="#07042D"/>
<path d="M45.2319 51.7702V48.8329H42.2946V51.7702H45.2319Z" fill="#07042D"/>
<path d="M42.2954 48.8236V40.0023H39.3581V48.8236H42.2954Z" fill="#07042D"/>
<path d="M39.3491 40.0022V22.3503H36.4118V40.0022H39.3491Z" fill="#07042D"/>
<path d="M51.1167 66.4662V63.5289H42.2954V66.4662H51.1167Z" fill="#07042D"/>
<path d="M68.7583 66.4756V63.5383H59.937V66.4756H68.7583Z" fill="#07042D"/>
<path d="M39.3491 22.3504V40.0023H42.2865V22.3504H39.3491Z" fill="#FFD91D"/>
<path d="M42.2856 22.3503V48.8236H45.223V22.3503H42.2856Z" fill="#FFD91D"/>
<path d="M45.2319 22.3504V51.761H48.1693V22.3504H45.2319Z" fill="#FFD91D"/>
<path d="M42.2954 28.2436V37.0649H45.2327V28.2436H42.2954Z" fill="#FBFBFB"/>
<path d="M48.1792 22.3597V51.7703H51.1165V22.3597H48.1792Z" fill="#FFD91D"/>
<path d="M51.1167 22.3503V54.7076H54.054V22.3503H51.1167Z" fill="#FFD91D"/>
<path d="M54.0537 22.3504V51.761H56.991V22.3504H54.0537Z" fill="#FFD91D"/>
<path d="M51.1167 63.5289V69.4129H54.054V63.5289H51.1167Z" fill="#FFD91D"/>
<path d="M54.0537 63.5289V69.4129H56.991V63.5289H54.0537Z" fill="#FFD91D"/>
<path d="M51.1077 66.4756H48.1704V69.4129H51.1077V66.4756Z" fill="#FFD91D"/>
<path d="M45.2327 66.4756H42.2954V69.4129H45.2327V66.4756Z" fill="#FFFFC9"/>
<path d="M68.7593 66.4756H59.938V69.4129H68.7593V66.4756Z" fill="#E8B714"/>
<path d="M51.1167 66.4756H42.2954V69.4129H51.1167V66.4756Z" fill="#E8B714"/>
<path d="M56.9907 63.5289V66.4662H59.9281V63.5289H56.9907Z" fill="#E8B714"/>
<path d="M51.1074 63.5383V66.4756H54.0448V63.5383H51.1074Z" fill="#E8B714"/>
<path d="M57.0005 66.4756V69.4129H59.9378V66.4756H57.0005Z" fill="#FFD91D"/>
<path d="M56.991 51.7703H54.0537V63.5382H56.991V51.7703Z" fill="#E8B714"/>
<path d="M57.0005 22.3503V48.8236H59.9378V22.3503H57.0005Z" fill="#FFD91D"/>
<path d="M59.938 22.3597V45.8863H62.8753V22.3597H59.938Z" fill="#FFD91D"/>
<path d="M62.8838 42.9489V51.7703H65.8211V42.9489H62.8838Z" fill="#E8B714"/>
<path d="M59.9468 45.8863V51.7703H62.8841V45.8863H59.9468Z" fill="#E8B714"/>
<path d="M57.0005 48.8236V54.7076H59.9378V48.8236H57.0005Z" fill="#E8B714"/>
<path d="M62.8838 22.3596V42.9489H65.8211V22.3596H62.8838Z" fill="#FFD91D"/>
<path d="M65.8223 37.0556V48.8236H68.7596V37.0556H65.8223Z" fill="#E8B714"/>
<path d="M65.8223 22.3596V37.0649H68.7596V22.3596H65.8223Z" fill="#FFD91D"/>
<path d="M68.7681 34.1183V40.0023H71.7054V34.1183H68.7681Z" fill="#E8B714"/>
<path d="M45.2319 42.9397V51.761H48.1693V42.9397H45.2319Z" fill="#E8B714"/>
<path d="M48.1792 45.877V51.761H51.1165V45.877H48.1792Z" fill="#E8B714"/>
<path d="M51.1167 48.8236V54.7076H54.054V48.8236H51.1167Z" fill="#E8B714"/>
<path d="M42.2954 37.0649V48.8329H45.2327V37.0649H42.2954Z" fill="#E8B714"/>
<path d="M39.3491 34.1183V40.0023H42.2865V34.1183H39.3491Z" fill="#E8B714"/>
<path d="M65.8223 54.7076V51.7703H59.9383V54.7076H65.8223Z" fill="#07042D"/>
<path d="M68.7681 51.7609V48.8236H65.8307V51.7609H68.7681Z" fill="#07042D"/>
<path d="M71.6956 40.0023H68.7583V48.8236H71.6956V40.0023Z" fill="#07042D"/>
<path d="M71.7056 22.3504V40.0023H74.6429V22.3504H71.7056Z" fill="#07042D"/>
<path d="M71.7064 69.4129H39.3491V72.3502H71.7064V69.4129Z" fill="#07042D"/>
<path d="M39.3491 19.4223V22.3596L71.7064 22.3596V19.4223H39.3491Z" fill="#07042D"/>
<path d="M39.3491 66.4756V69.4129H42.2864V66.4756H39.3491Z" fill="#07042D"/>
<path d="M68.7681 66.4849V69.4222H71.7054V66.4849H68.7681Z" fill="#07042D"/>
<path d="M51.1167 54.717V63.5383H54.054V54.717H51.1167Z" fill="#07042D"/>
<path d="M57.0005 54.717V63.5383H59.9378V54.717H57.0005Z" fill="#07042D"/>
<path d="M45.2319 37.065V42.949H48.1693V37.065H45.2319Z" fill="#FBFBFB"/>
<path d="M48.1704 42.949V45.8863H51.1077V42.949H48.1704Z" fill="#FBFBFB"/>
<path d="M42.2858 25.297L56.9072 25.297V22.3597H42.2858V25.297Z" fill="#FBFBFB"/>
</g>
<defs>
<clipPath id="clip0_431_718">
<rect width="61.7679" height="52.9465" fill="white" transform="translate(24.6431 19.413)"/>
</clipPath>
</defs>
</svg>
