<svg width="621" height="799" viewBox="0 0 621 799" fill="none" xmlns="http://www.w3.org/2000/svg">
<path d="M619 782.545V16.4553C619 8.47186 612.528 2 604.545 2L16.4553 2C8.47186 2 2 8.47188 2 16.4553V782.545C2 790.528 8.47186 797 16.4553 797H604.545C612.528 797 619 790.528 619 782.545Z" fill="black" stroke="white" stroke-width="4"/>
<path d="M599 656V23L23 23V656H599Z" fill="#E64A6F"/>
<path d="M52 628.501V122.507C70.0624 108.638 80.1812 100.869 98.2435 87H517.757C535.819 100.869 545.938 108.638 564 122.507V628.493C545.938 642.362 535.819 650.131 517.757 664H98.2435C80.1812 650.131 70.0624 642.362 52 628.493V628.501Z" fill="#2B167D"/>
<rect x="52" y="79" width="512" height="512" fill="white"/>
<path d="M23 775V624.382L52 591H564L599 624.382V775H23Z" fill="#2B167D"/>
<path d="M564.015 79H52L23 55.2539V23H599V55.2539L564 79H564.015Z" fill="#2B167D"/>
<rect x="90" y="631" width="446" height="120" fill="#A3F9FF"/>
<path d="M141.087 650.637H138.727V660.092H141.087V650.637Z" fill="#FF2968"/>
<path d="M143.455 648.27H141.087V650.637V662.452H143.455V648.27Z" fill="#FF2968"/>
<path d="M141.087 657.724H138.727V664.812H141.087V657.724Z" fill="#C40851"/>
<path d="M169.444 657.724H167.084V664.812H169.444V657.724Z" fill="#C40851"/>
<path d="M164.717 662.452H162.357V669.539H164.717V662.452Z" fill="#C40851"/>
<path d="M162.357 664.812H159.997V671.899H162.357V664.812Z" fill="#C40851"/>
<path d="M167.084 660.084H164.724V667.172H167.084V660.084Z" fill="#C40851"/>
<path d="M159.99 667.179H157.63V674.267H159.99V667.179Z" fill="#C40851"/>
<path d="M157.63 669.539H155.27V676.627H157.63V669.539Z" fill="#C40851"/>
<path d="M143.447 660.084H141.087V667.172H143.447V660.084Z" fill="#C40851"/>
<path d="M145.815 662.452H143.455V669.539H145.815V662.452Z" fill="#C40851"/>
<path d="M148.175 664.812H145.815V671.899H148.175V664.812Z" fill="#C40851"/>
<path d="M150.542 667.179H148.182V674.267H150.542V667.179Z" fill="#C40851"/>
<path d="M152.902 669.539H150.542V676.627H152.902V669.539Z" fill="#C40851"/>
<path d="M155.262 671.899H152.902V678.986H155.262V671.899Z" fill="#C40851"/>
<path d="M145.815 648.27H143.455V662.452H145.815V648.27Z" fill="#FF2968"/>
<path d="M169.444 650.637H167.084V657.724H169.444V650.637Z" fill="#FF2968"/>
<path d="M171.804 655.357H169.444V657.717H171.804V655.357Z" fill="#C40851"/>
<path d="M148.175 648.27H145.815V664.812H148.175V648.27Z" fill="#FF2968"/>
<path d="M167.084 648.27H164.724V660.084H167.084V648.27Z" fill="#FF2968"/>
<path d="M150.542 650.637H148.182V667.179H150.542V650.637Z" fill="#FF2968"/>
<path d="M164.717 648.27H162.357V662.452H164.717V648.27Z" fill="#FF2968"/>
<path d="M157.63 652.997H155.27V669.539H157.63V652.997Z" fill="#FF2968"/>
<path d="M152.902 669.539V652.997V650.637H150.542V669.539H152.902Z" fill="#FF2968"/>
<path d="M162.357 664.812V648.27H159.997V650.637V664.812H162.357Z" fill="#FF2968"/>
<path d="M155.262 655.357H152.902V671.899H155.262V655.357Z" fill="#FF2968"/>
<path d="M159.99 650.637H157.63V667.179H159.99V650.637Z" fill="#FF2968"/>
<path d="M148.175 645.91H141.087V648.27H148.175V645.91Z" fill="#07042D"/>
<path d="M167.084 645.91H159.997V648.27H167.084V645.91Z" fill="#07042D"/>
<path d="M150.542 648.27H148.182V650.63H150.542V648.27Z" fill="#07042D"/>
<path d="M159.99 648.27H157.63V650.63H159.99V648.27Z" fill="#07042D"/>
<path d="M136.36 655.357H134V660.084H136.36V655.357Z" fill="#07042D"/>
<path d="M138.72 655.357H136.36V657.717H138.72V655.357Z" fill="#C40851"/>
<path d="M138.72 657.724H136.36V660.084H138.72V657.724Z" fill="#C40851"/>
<path d="M171.804 657.724H169.444V660.084H171.804V657.724Z" fill="#C40851"/>
<path d="M148.175 671.899H145.815V674.259H148.175V671.899Z" fill="#07042D"/>
<path d="M145.815 669.539H143.455V671.899H145.815V669.539Z" fill="#07042D"/>
<path d="M141.087 664.812H138.727V667.172H141.087V664.812Z" fill="#07042D"/>
<path d="M143.447 667.179H141.087V669.539H143.447V667.179Z" fill="#07042D"/>
<path d="M138.72 660.084H136.36V664.812H138.72V660.084Z" fill="#07042D"/>
<path d="M138.72 650.637H136.36V655.364H138.72V650.637Z" fill="#07042D"/>
<path d="M141.087 648.27H138.727V650.63H141.087V648.27Z" fill="#07042D"/>
<path d="M152.902 650.637H150.542V652.997H152.902V650.637Z" fill="#07042D"/>
<path d="M155.262 652.997H152.902V655.357H155.262V652.997Z" fill="#07042D"/>
<path d="M157.63 650.637H155.27V652.997H157.63V650.637Z" fill="#07042D"/>
<path d="M174.172 655.357H171.812V660.084H174.172V655.357Z" fill="#07042D"/>
<path d="M169.452 664.819H171.812V660.092H169.452V664.819Z" fill="#07042D"/>
<path d="M169.452 655.357H171.812V650.63H169.452V655.357Z" fill="#07042D"/>
<path d="M167.084 650.637H169.444V648.277H167.084V650.637Z" fill="#07042D"/>
<path d="M155.262 678.994H152.902V681.354H155.262V678.994Z" fill="#07042D"/>
<path d="M150.542 674.267H148.182V676.626H150.542V674.267Z" fill="#07042D"/>
<path d="M162.357 671.899H159.997V674.259H162.357V671.899Z" fill="#07042D"/>
<path d="M164.717 669.539H162.357V671.899H164.717V669.539Z" fill="#07042D"/>
<path d="M167.084 667.179H164.724V669.539H167.084V667.179Z" fill="#07042D"/>
<path d="M169.444 664.812H167.084V667.172H169.444V664.812Z" fill="#07042D"/>
<path d="M159.99 674.267H157.63V676.626H159.99V674.267Z" fill="#07042D"/>
<path d="M152.902 676.626H150.542V678.986H152.902V676.626Z" fill="#07042D"/>
<path d="M157.63 676.626H155.27V678.986H157.63V676.626Z" fill="#07042D"/>
<path d="M143.447 652.997H141.087V657.724H143.447V652.997Z" fill="#FFEEFF"/>
<path d="M145.815 650.637H143.455V652.997H145.815V650.637Z" fill="#FFEEFF"/>
<path d="M154.237 720.033L154.237 722.278L156.481 722.278L156.481 720.033L154.237 720.033Z" fill="#07042D"/>
<path d="M151.985 722.271L151.985 724.515L154.23 724.515L154.23 722.271L151.985 722.271Z" fill="#07042D"/>
<path d="M156.481 717.781L156.481 720.026L158.726 720.026L158.726 717.781L156.481 717.781Z" fill="#07042D"/>
<path d="M158.726 715.537L158.726 717.781L160.971 717.781L160.971 715.537L158.726 715.537Z" fill="#07042D"/>
<path d="M160.978 713.285L160.978 715.53L163.222 715.53L163.222 713.285L160.978 713.285Z" fill="#07042D"/>
<path d="M163.222 711.041L163.222 713.285L165.467 713.285L165.467 711.041L163.222 711.041Z" fill="#07042D"/>
<path d="M165.474 708.789L165.474 711.033L167.719 711.033L167.719 708.789L165.474 708.789Z" fill="#07042D"/>
<path d="M167.718 706.544L167.718 708.789L169.963 708.789L169.963 706.544L167.718 706.544Z" fill="#07042D"/>
<path d="M169.97 704.3L169.97 706.544L172.215 706.544L172.215 704.3L169.97 704.3Z" fill="#07042D"/>
<path d="M172.215 702.048L172.215 704.293L174.46 704.293L174.46 702.048L172.215 702.048Z" fill="#07042D"/>
<path d="M147.489 713.292L147.489 715.537L149.733 715.537L149.733 713.292L147.489 713.292Z" fill="#07042D"/>
<path d="M145.237 715.53L145.237 717.774L147.482 717.774L147.482 715.53L145.237 715.53Z" fill="#07042D"/>
<path d="M149.733 711.041L149.733 713.285L151.978 713.285L151.978 711.041L149.733 711.041Z" fill="#07042D"/>
<path d="M151.985 708.789L151.985 711.033L154.23 711.033L154.23 708.789L151.985 708.789Z" fill="#07042D"/>
<path d="M154.23 706.544L154.23 708.789L156.474 708.789L156.474 706.544L154.23 706.544Z" fill="#07042D"/>
<path d="M156.481 704.293L156.481 706.537L158.726 706.537L158.726 704.293L156.481 704.293Z" fill="#07042D"/>
<path d="M158.726 702.048L158.726 704.293L160.971 704.293L160.971 702.048L158.726 702.048Z" fill="#07042D"/>
<path d="M154.237 729.018L156.481 729.018L156.481 726.774L154.237 726.774L154.237 729.018Z" fill="#07042D"/>
<path d="M156.481 733.515L158.726 733.515L158.726 729.018L156.481 729.018L156.481 733.515Z" fill="#07042D"/>
<path d="M151.985 726.767L154.23 726.767L154.23 724.522L151.985 724.522L151.985 726.767Z" fill="#07042D"/>
<path d="M149.741 724.522L151.985 724.522L151.985 722.278L149.741 722.278L149.741 724.522Z" fill="#07042D"/>
<path d="M147.496 722.271L149.74 722.271L149.74 720.026L147.496 720.026L147.496 722.271Z" fill="#07042D"/>
<path d="M145.244 720.026L147.489 720.026L147.489 717.781L145.244 717.781L145.244 720.026Z" fill="#07042D"/>
<path d="M143 717.781L145.244 717.781L145.244 715.537L143 715.537L143 717.781Z" fill="#07042D"/>
<path d="M140.748 715.53L142.992 715.53L142.992 713.285L140.748 713.285L140.748 715.53Z" fill="#07042D"/>
<path d="M136.252 713.285L140.748 713.285L140.748 711.041L136.252 711.041L136.252 713.285Z" fill="#07042D"/>
<path d="M154.237 733.515L156.481 733.515L156.481 731.27L154.237 731.27L154.237 733.515Z" fill="#07042D"/>
<path d="M145.244 729.018L147.489 729.018L147.489 726.774L145.244 726.774L145.244 729.018Z" fill="#07042D"/>
<path d="M143 731.263L145.244 731.263L145.244 729.018L143 729.018L143 731.263Z" fill="#07042D"/>
<path d="M136.252 733.515L138.496 733.515L138.496 731.27L136.252 731.27L136.252 733.515Z" fill="#07042D"/>
<path d="M138.503 735.759L140.748 735.759L140.748 733.515L138.503 733.515L138.503 735.759Z" fill="#07042D"/>
<path d="M134.007 731.263L136.252 731.263L136.252 729.018L134.007 729.018L134.007 731.263Z" fill="#07042D"/>
<path d="M140.748 735.759L142.992 735.759L142.992 731.263L140.748 731.263L140.748 735.759Z" fill="#07042D"/>
<path d="M138.503 726.767L140.748 726.767L140.748 724.522L138.503 724.522L138.503 726.767Z" fill="#07042D"/>
<path d="M134 729.018L138.496 729.018L138.496 726.774L134 726.774L134 729.018Z" fill="#07042D"/>
<path d="M140.748 724.522L142.992 724.522L142.992 722.278L140.748 722.278L140.748 724.522Z" fill="#07042D"/>
<path d="M136.252 715.53L138.496 715.53L138.496 713.285L136.252 713.285L136.252 715.53Z" fill="#07042D"/>
<path d="M151.985 731.263L154.23 731.263L154.23 729.018L151.985 729.018L151.985 731.263Z" fill="#07042D"/>
<path d="M149.741 729.018L151.985 729.018L151.985 726.774L149.741 726.774L149.741 729.018Z" fill="#07042D"/>
<path d="M147.496 726.767L149.74 726.767L149.74 724.522L147.496 724.522L147.496 726.767Z" fill="#07042D"/>
<path d="M145.244 724.522L147.489 724.522L147.489 722.278L145.244 722.278L145.244 724.522Z" fill="#07042D"/>
<path d="M143 722.271L145.244 722.271L145.244 720.026L143 720.026L143 722.271Z" fill="#07042D"/>
<path d="M140.748 720.026L142.992 720.026L142.992 717.781L140.748 717.781L140.748 720.026Z" fill="#07042D"/>
<path d="M138.503 717.781L140.748 717.781L140.748 715.537L138.503 715.537L138.503 717.781Z" fill="#07042D"/>
<path d="M160.97 699.803L160.97 702.048L163.215 702.048L163.215 699.803L160.97 699.803Z" fill="#07042D"/>
<path d="M163.222 697.559L163.222 699.803L165.467 699.803L165.467 697.559L163.222 697.559Z" fill="#07042D"/>
<path d="M165.467 695.307L165.467 697.552L167.711 697.552L167.711 695.307L165.467 695.307Z" fill="#07042D"/>
<path d="M167.711 693.063L167.711 695.307L176.704 695.307L176.704 693.063L167.711 693.063Z" fill="#07042D"/>
<path d="M174.459 695.307L174.459 702.048L176.704 702.048L176.704 695.307L174.459 695.307Z" fill="#07042D"/>
<path d="M140.748 731.263L142.992 731.263L142.992 724.522L140.748 724.522L140.748 731.263Z" fill="#C9704F"/>
<path d="M145.244 726.767L147.489 726.767L147.489 724.522L145.244 724.522L145.244 726.767Z" fill="#C9704F"/>
<path d="M136.252 731.263L138.496 731.263L138.496 729.018L136.252 729.018L136.252 731.263Z" fill="#C9704F"/>
<path d="M172.215 702.048L174.459 702.048L174.459 695.307L172.215 695.307L172.215 702.048Z" fill="#E5E5EC"/>
<path d="M147.496 720.026L149.74 720.026L149.74 715.53L147.496 715.53L147.496 720.026Z" fill="#ABABC3"/>
<path d="M169.971 704.293L172.215 704.293L172.215 695.3L169.971 695.3L169.971 704.293Z" fill="#ABABC3"/>
<path d="M167.719 706.537L169.963 706.537L169.963 695.3L167.719 695.3L167.719 706.537Z" fill="#ABABC3"/>
<path d="M165.474 708.789L167.718 708.789L167.718 697.552L165.474 697.552L165.474 708.789Z" fill="#ABABC3"/>
<path d="M163.23 711.033L165.474 711.033L165.474 699.796L163.23 699.796L163.23 711.033Z" fill="#ABABC3"/>
<path d="M160.978 713.285L163.222 713.285L163.222 702.048L160.978 702.048L160.978 713.285Z" fill="#ABABC3"/>
<path d="M158.733 715.53L160.978 715.53L160.978 704.293L158.733 704.293L158.733 715.53Z" fill="#ABABC3"/>
<path d="M156.481 717.781L158.726 717.781L158.726 706.544L156.482 706.544L156.481 717.781Z" fill="#ABABC3"/>
<path d="M154.237 720.026L156.481 720.026L156.481 708.789L154.237 708.789L154.237 720.026Z" fill="#ABABC3"/>
<path d="M151.985 722.271L154.23 722.271L154.23 711.033L151.985 711.033L151.985 722.271Z" fill="#ABABC3"/>
<path d="M149.741 722.271L151.985 722.271L151.985 713.278L149.741 713.278L149.741 722.271Z" fill="#ABABC3"/>
<path d="M149.741 717.781L149.741 720.026L151.985 720.026L151.985 717.781L149.741 717.781Z" fill="#60608D"/>
<path d="M154.237 729.018L154.237 731.263L156.482 731.263L156.482 729.018L154.237 729.018Z" fill="#BE523D"/>
<path d="M151.985 726.767L151.985 729.011L154.23 729.011L154.23 726.767L151.985 726.767Z" fill="#AF3F27"/>
<path d="M149.741 724.522L149.741 726.767L151.985 726.767L151.985 724.522L149.741 724.522Z" fill="#BE523D"/>
<path d="M147.489 722.278L147.489 724.522L149.733 724.522L149.733 722.278L147.489 722.278Z" fill="#AF3F27"/>
<path d="M145.244 720.026L145.244 722.271L147.489 722.271L147.489 720.026L145.244 720.026Z" fill="#BE523D"/>
<path d="M142.992 717.781L142.992 720.026L145.237 720.026L145.237 717.781L142.992 717.781Z" fill="#AF3F27"/>
<path d="M140.741 715.53L140.741 717.774L142.986 717.774L142.986 715.53L140.741 715.53Z" fill="#BE523D"/>
<path d="M143 722.278L143 729.018L145.245 729.018L145.245 722.278L143 722.278Z" fill="#AF3F27"/>
<path d="M138.504 726.767L138.504 733.508L140.748 733.508L140.748 726.767L138.504 726.767Z" fill="#AF3F27"/>
<path d="M138.504 713.285L138.504 715.53L140.748 715.53L140.748 713.285L138.504 713.285Z" fill="#AF3F27"/>
<path d="M151.985 715.53L151.985 717.774L154.23 717.774L154.23 715.53L151.985 715.53Z" fill="#60608D"/>
<path d="M154.237 713.285L154.237 715.53L156.482 715.53L156.482 713.285L154.237 713.285Z" fill="#60608D"/>
<path d="M156.481 711.041L156.481 713.285L158.726 713.285L158.726 711.041L156.481 711.041Z" fill="#60608D"/>
<path d="M158.733 708.796L158.733 711.04L160.978 711.04L160.978 708.796L158.733 708.796Z" fill="#60608D"/>
<path d="M160.978 706.544L160.978 708.789L163.222 708.789L163.222 706.544L160.978 706.544Z" fill="#60608D"/>
<path d="M163.229 704.3L163.229 706.544L165.474 706.544L165.474 704.3L163.229 704.3Z" fill="#60608D"/>
<path d="M165.474 702.048L165.474 704.293L167.719 704.293L167.719 702.048L165.474 702.048Z" fill="#60608D"/>
<path d="M167.718 699.796L167.718 702.041L169.963 702.041L169.963 699.796L167.718 699.796Z" fill="#60608D"/>
<path d="M167.719 697.552L174.459 697.552L174.459 695.307L167.719 695.307L167.719 697.552Z" fill="#E5E5EC"/>
<path d="M165.474 708.789L167.718 708.789L167.718 706.544L165.474 706.544L165.474 708.789Z" fill="#E5E5EC"/>
<path d="M163.23 711.033L165.474 711.033L165.474 708.789L163.23 708.789L163.23 711.033Z" fill="#E5E5EC"/>
<path d="M167.719 706.537L169.963 706.537L169.963 704.293L167.719 704.293L167.719 706.537Z" fill="#E5E5EC"/>
<path d="M169.971 704.293L172.215 704.293L172.215 702.048L169.971 702.048L169.971 704.293Z" fill="#E5E5EC"/>
<path d="M156.481 717.781L158.726 717.781L158.726 715.537L156.481 715.537L156.481 717.781Z" fill="#E5E5EC"/>
<path d="M154.237 720.026L156.481 720.026L156.481 717.781L154.237 717.781L154.237 720.026Z" fill="#E5E5EC"/>
<path d="M151.985 722.271L154.23 722.271L154.23 720.026L151.985 720.026L151.985 722.271Z" fill="#E5E5EC"/>
<path d="M151.985 713.285L154.23 713.285L154.23 711.041L151.985 711.041L151.985 713.285Z" fill="#E5E5EC"/>
<path d="M160.978 713.285L163.222 713.285L163.222 711.041L160.978 711.041L160.978 713.285Z" fill="#E5E5EC"/>
<path d="M158.733 715.53L160.978 715.53L160.978 713.285L158.733 713.285L158.733 715.53Z" fill="#E5E5EC"/>
</svg>
