<svg width="621" height="799" viewBox="0 0 621 799" fill="none" xmlns="http://www.w3.org/2000/svg">
<path d="M619 782.545V16.4553C619 8.47186 612.528 2 604.545 2L16.4553 2C8.47186 2 2 8.47188 2 16.4553V782.545C2 790.528 8.47186 797 16.4553 797H604.545C612.528 797 619 790.528 619 782.545Z" fill="black" stroke="white" stroke-width="4"/>
<path d="M599 656V23L23 23V656H599Z" fill="#4584FF"/>
<path d="M52 628.501V122.507C70.0624 108.638 80.1812 100.869 98.2435 87H517.757C535.819 100.869 545.938 108.638 564 122.507V628.493C545.938 642.362 535.819 650.131 517.757 664H98.2435C80.1812 650.131 70.0624 642.362 52 628.493V628.501Z" fill="#2B167D"/>
<rect x="52" y="79" width="512" height="512" fill="white"/>
<g clip-path="url(#clip0_472_1678)">
<path d="M381.224 185.745H373.773V193.196H381.224V185.745Z" fill="#FF2968"/>
<path d="M343.94 297.596H336.489V334.879H343.94V297.596Z" fill="#07042D"/>
<path d="M396.154 275.241H388.702V297.622H396.154V275.241Z" fill="#ABABC3"/>
<path d="M403.604 282.693H396.153V297.596H403.604V282.693Z" fill="#ABABC3"/>
<path d="M411.056 282.693H403.605V297.596H411.056V282.693Z" fill="#ABABC3"/>
<path d="M381.223 364.711H373.771V387.092H381.223V364.711Z" fill="#ABABC3"/>
<path d="M388.676 372.163H381.224V394.543H388.676V372.163Z" fill="#ABABC3"/>
<path d="M373.771 312.525H366.32V334.906H373.771V312.525Z" fill="#C7C7D7"/>
<path d="M418.508 312.525H411.057V334.906H418.508V312.525Z" fill="#C7C7D7"/>
<path d="M411.056 364.711H403.605V387.092H411.056V364.711Z" fill="#ABABC3"/>
<path d="M403.604 372.163H396.153V394.543H403.604V372.163Z" fill="#ABABC3"/>
<path d="M396.154 379.614H388.702V401.995H396.154V379.614Z" fill="#ABABC3"/>
<path d="M373.771 349.782H366.32V379.614H373.771V349.782Z" fill="#ABABC3"/>
<path d="M381.223 305.047H373.771V349.782H381.223V305.047Z" fill="#C7C7D7"/>
<path d="M411.056 305.047H403.605V349.782H411.056V305.047Z" fill="#C7C7D7"/>
<path d="M388.676 305.047H381.224V364.685H388.676V305.047Z" fill="#C7C7D7"/>
<path d="M403.604 305.047H396.153V364.685H403.604V305.047Z" fill="#C7C7D7"/>
<path d="M396.154 305.047H388.702V372.163H396.154V305.047Z" fill="#C7C7D7"/>
<path d="M418.508 349.782H411.057V379.614H418.508V349.782Z" fill="#ABABC3"/>
<path d="M381.223 282.693H373.771V297.596H381.223V282.693Z" fill="#ABABC3"/>
<path d="M373.771 290.144H366.32V305.047H373.771V290.144Z" fill="#ABABC3"/>
<path d="M418.508 290.144H411.057V305.047H418.508V290.144Z" fill="#ABABC3"/>
<path d="M366.321 290.144H358.87V364.711H366.321V290.144Z" fill="#ABABC3"/>
<path d="M425.958 290.144H418.507V364.711H425.958V290.144Z" fill="#ABABC3"/>
<path d="M358.869 297.596H351.417V349.782H358.869V297.596Z" fill="#ABABC3"/>
<path d="M433.41 297.596H425.959V349.782H433.41V297.596Z" fill="#ABABC3"/>
<path d="M351.391 297.596H343.94V334.879H351.391V297.596Z" fill="#ABABC3"/>
<path d="M366.321 319.976H358.87V334.879H366.321V319.976Z" fill="#8888AA"/>
<path d="M366.321 312.525H358.87V319.976H366.321V312.525Z" fill="#8888AA"/>
<path d="M373.771 305.047H366.32V312.498H373.771V305.047Z" fill="#8888AA"/>
<path d="M373.771 334.879H366.32V349.782H373.771V334.879Z" fill="#8888AA"/>
<path d="M418.508 305.047H411.057V312.498H418.508V305.047Z" fill="#8888AA"/>
<path d="M366.321 305.047H358.87V312.498H366.321V305.047Z" fill="#C40851"/>
<path d="M440.889 290.144H433.438V297.596H440.889V290.144Z" fill="#DFDFE8"/>
<path d="M381.223 349.782H373.771V364.685H381.223V349.782Z" fill="#8888AA"/>
<path d="M373.771 364.711H366.32V379.614H373.771V364.711Z" fill="#8888AA"/>
<path d="M366.321 357.26H358.87V364.711H366.321V357.26Z" fill="#8888AA"/>
<path d="M358.869 342.331H351.417V349.782H358.869V342.331Z" fill="#8888AA"/>
<path d="M425.958 357.26H418.507V364.711H425.958V357.26Z" fill="#8888AA"/>
<path d="M433.41 342.331H425.959V349.782H433.41V342.331Z" fill="#8888AA"/>
<path d="M418.508 364.711H411.057V379.614H418.508V364.711Z" fill="#8888AA"/>
<path d="M381.223 379.614H373.771V387.065H381.223V379.614Z" fill="#8888AA"/>
<path d="M411.056 379.614H403.605V387.065H411.056V379.614Z" fill="#8888AA"/>
<path d="M403.605 387.065H381.224V394.517H403.605V387.065Z" fill="#8888AA"/>
<path d="M425.958 312.525H418.507V334.906H425.958V312.525Z" fill="#8888AA"/>
<path d="M440.889 297.596H433.438V334.879H440.889V297.596Z" fill="#ABABC3"/>
<path d="M388.676 282.693H381.224V297.596H388.676V282.693Z" fill="#ABABC3"/>
<path d="M381.223 387.065H373.771V394.517H381.223V387.065Z" fill="#07042D"/>
<path d="M373.771 379.614H366.32V387.065H373.771V379.614Z" fill="#07042D"/>
<path d="M373.772 282.693H358.87V290.144H373.772V282.693Z" fill="#07042D"/>
<path d="M358.843 290.144H343.94V297.596H358.843V290.144Z" fill="#07042D"/>
<path d="M396.154 267.763H388.702V275.215H396.154V267.763Z" fill="#07042D"/>
<path d="M411.056 387.065H403.605V394.517H411.056V387.065Z" fill="#07042D"/>
<path d="M388.674 275.241H373.771V282.693H388.674V275.241Z" fill="#07042D"/>
<path d="M358.869 349.782H351.417V364.685H358.869V349.782Z" fill="#07042D"/>
<path d="M366.321 364.711H358.87V379.614H366.321V364.711Z" fill="#07042D"/>
<path d="M351.391 334.879H343.94V349.782H351.391V334.879Z" fill="#07042D"/>
<path d="M403.605 394.543H381.224V401.995H403.605V394.543Z" fill="#07042D"/>
<path d="M448.34 297.596H440.888V334.879H448.34V297.596Z" fill="#07042D"/>
<path d="M411.083 290.144H425.985V282.693H411.083V290.144Z" fill="#07042D"/>
<path d="M425.985 297.596H440.888V290.144H425.985V297.596Z" fill="#07042D"/>
<path d="M433.41 349.782H425.959V364.685H433.41V349.782Z" fill="#07042D"/>
<path d="M425.958 364.711H418.507V379.614H425.958V364.711Z" fill="#07042D"/>
<path d="M433.437 349.809H440.888V334.906H433.437V349.809Z" fill="#07042D"/>
<path d="M418.508 379.614H411.057V387.065H418.508V379.614Z" fill="#07042D"/>
<path d="M396.154 282.666H411.057V275.215H396.154V282.666Z" fill="#07042D"/>
<path d="M396.154 290.144H388.702V297.596H396.154V290.144Z" fill="#C40851"/>
<path d="M425.958 305.047H418.507V312.498H425.958V305.047Z" fill="#C40851"/>
<path d="M373.771 349.782H366.32V357.233H373.771V349.782Z" fill="#C40851"/>
<path d="M388.676 319.976H381.224V327.428H388.676V319.976Z" fill="#E5E5EC"/>
<path d="M381.223 327.428H373.771V334.879H381.223V327.428Z" fill="#E5E5EC"/>
<path d="M396.154 312.525H388.702V319.976H396.154V312.525Z" fill="#E5E5EC"/>
<path d="M403.604 305.047H396.153V312.498H403.604V305.047Z" fill="#E5E5EC"/>
<path d="M396.154 334.879H388.702V342.331H396.154V334.879Z" fill="#E5E5EC"/>
<path d="M388.676 342.331H381.224V349.782H388.676V342.331Z" fill="#E5E5EC"/>
<path d="M403.604 327.428H396.153V334.879H403.604V327.428Z" fill="#E5E5EC"/>
<path d="M411.056 319.976H403.605V327.428H411.056V319.976Z" fill="#E5E5EC"/>
<path d="M418.508 312.525H411.057V319.976H418.508V312.525Z" fill="#E5E5EC"/>
<path d="M418.508 349.782H411.057V357.233H418.508V349.782Z" fill="#C40851"/>
<path d="M396.154 379.614H388.702V387.065H396.154V379.614Z" fill="#C40851"/>
<path d="M411.055 297.596H373.771V305.047H411.055V297.596Z" fill="#8888AA"/>
<path d="M388.676 364.711H381.224V372.163H388.676V364.711Z" fill="#8888AA"/>
<path d="M396.154 372.163H388.702V379.614H396.154V372.163Z" fill="#8888AA"/>
<path d="M403.604 364.711H396.153V372.163H403.604V364.711Z" fill="#8888AA"/>
<path d="M411.056 349.782H403.605V364.685H411.056V349.782Z" fill="#8888AA"/>
<path d="M418.508 334.879H411.057V349.782H418.508V334.879Z" fill="#8888AA"/>
<path d="M232.117 387.065V379.614H224.666V387.065H232.117Z" fill="#07042D"/>
<path d="M239.567 379.614V372.163H232.116V379.614H239.567Z" fill="#07042D"/>
<path d="M224.665 394.517V387.065H217.213V394.517H224.665Z" fill="#07042D"/>
<path d="M217.187 401.968V394.517H209.735V401.968H217.187Z" fill="#07042D"/>
<path d="M209.736 409.446V401.995H202.284V409.446H209.736Z" fill="#07042D"/>
<path d="M202.283 416.898V409.446H194.832V416.898H202.283Z" fill="#07042D"/>
<path d="M194.833 424.376V416.924H187.381V424.376H194.833Z" fill="#07042D"/>
<path d="M187.382 431.8V424.349H179.93V431.8H187.382Z" fill="#07042D"/>
<path d="M179.929 439.252V431.8H172.478V439.252H179.929Z" fill="#07042D"/>
<path d="M254.471 409.446V401.995H247.019V409.446H254.471Z" fill="#07042D"/>
<path d="M261.922 401.968V394.517H254.47V401.968H261.922Z" fill="#07042D"/>
<path d="M247.019 416.898V409.446H239.567V416.898H247.019Z" fill="#07042D"/>
<path d="M239.567 424.349V416.898H232.116V424.349H239.567Z" fill="#07042D"/>
<path d="M232.117 431.8V424.349H224.666V431.8H232.117Z" fill="#07042D"/>
<path d="M224.665 439.252V431.8H217.213V439.252H224.665Z" fill="#07042D"/>
<path d="M217.187 446.73V439.278H209.735V446.73H217.187Z" fill="#07042D"/>
<path d="M232.09 357.26H224.638V364.711H232.09V357.26Z" fill="#07042D"/>
<path d="M224.638 342.331H217.187V357.233H224.638V342.331Z" fill="#07042D"/>
<path d="M239.569 364.711H232.117V372.163H239.569V364.711Z" fill="#07042D"/>
<path d="M247.019 372.163H239.567V379.614H247.019V372.163Z" fill="#07042D"/>
<path d="M254.47 379.614H247.019V387.065H254.47V379.614Z" fill="#07042D"/>
<path d="M261.922 387.065H254.471V394.517H261.922V387.065Z" fill="#07042D"/>
<path d="M269.373 394.543H261.922V401.995H269.373V394.543Z" fill="#07042D"/>
<path d="M276.851 401.995H269.399V409.446H276.851V401.995Z" fill="#07042D"/>
<path d="M291.754 409.446H276.851V416.898H291.754V409.446Z" fill="#07042D"/>
<path d="M232.09 342.331H224.638V349.782H232.09V342.331Z" fill="#07042D"/>
<path d="M261.922 357.26H254.471V364.711H261.922V357.26Z" fill="#07042D"/>
<path d="M269.373 349.782H261.922V357.233H269.373V349.782Z" fill="#07042D"/>
<path d="M276.851 342.331H269.399V349.782H276.851V342.331Z" fill="#07042D"/>
<path d="M284.302 364.711H276.851V372.163H284.302V364.711Z" fill="#07042D"/>
<path d="M291.754 357.26H284.303V364.711H291.754V357.26Z" fill="#07042D"/>
<path d="M284.302 349.782H276.851V357.233H284.302V349.782Z" fill="#07042D"/>
<path d="M276.851 372.163H269.399V379.614H276.851V372.163Z" fill="#07042D"/>
<path d="M291.754 401.995H284.303V409.446H291.754V401.995Z" fill="#07042D"/>
<path d="M239.569 349.782H232.117V357.233H239.569V349.782Z" fill="#07042D"/>
<path d="M247.019 357.26H239.567V364.711H247.019V357.26Z" fill="#07042D"/>
<path d="M254.47 364.711H247.019V372.163H254.47V364.711Z" fill="#07042D"/>
<path d="M261.922 372.163H254.471V379.614H261.922V372.163Z" fill="#07042D"/>
<path d="M269.373 379.614H261.922V387.065H269.373V379.614Z" fill="#07042D"/>
<path d="M276.851 387.065H269.399V394.517H276.851V387.065Z" fill="#07042D"/>
<path d="M284.302 394.543H276.851V401.995H284.302V394.543Z" fill="#07042D"/>
<path d="M209.736 454.181V446.73H202.284V454.181H209.736Z" fill="#07042D"/>
<path d="M202.283 461.633V454.181H194.832V461.633H202.283Z" fill="#07042D"/>
<path d="M194.833 469.084V461.633H165V469.084H194.833Z" fill="#07042D"/>
<path d="M172.451 461.659V439.278H165V461.659H172.451Z" fill="#07042D"/>
<path d="M276.851 349.782H269.399V372.163H276.851V349.782Z" fill="#FF2968"/>
<path d="M261.922 364.711H254.471V372.163H261.922V364.711Z" fill="#FF2968"/>
<path d="M179.903 439.278H172.451V461.659H179.903V439.278Z" fill="#E5E5EC"/>
<path d="M254.47 387.065H247.019V401.968H254.47V387.065Z" fill="#ABABC3"/>
<path d="M209.735 416.898H202.283V424.349H209.735V416.898Z" fill="#ABABC3"/>
<path d="M209.735 431.8H202.283V446.703H209.735V431.8Z" fill="#ABABC3"/>
<path d="M202.284 439.278H194.833V454.181H202.284V439.278Z" fill="#ABABC3"/>
<path d="M194.833 446.73H187.382V454.181H194.833V446.73Z" fill="#ABABC3"/>
<path d="M187.355 439.278H179.903V446.73H187.355V439.278Z" fill="#ABABC3"/>
<path d="M194.833 431.8H187.382V439.252H194.833V431.8Z" fill="#ABABC3"/>
<path d="M202.284 424.349H194.833V431.8H202.284V424.349Z" fill="#ABABC3"/>
<path d="M217.187 401.995H209.736V439.278H217.187V401.995Z" fill="#ABABC3"/>
<path d="M224.638 394.543H217.187V431.827H224.638V394.543Z" fill="#ABABC3"/>
<path d="M232.09 387.065H224.638V424.349H232.09V387.065Z" fill="#ABABC3"/>
<path d="M239.569 379.614H232.117V416.898H239.569V379.614Z" fill="#ABABC3"/>
<path d="M247.019 379.614H239.567V409.446H247.019V379.614Z" fill="#ABABC3"/>
<path d="M247.02 394.543V387.092H239.569V394.543H247.02Z" fill="#60608D"/>
<path d="M232.117 357.233V349.782H224.665V357.233H232.117Z" fill="#FF2968"/>
<path d="M239.542 364.711V357.26H232.091V364.711H239.542Z" fill="#C40851"/>
<path d="M247.02 372.163V364.711H239.569V372.163H247.02Z" fill="#FF2968"/>
<path d="M254.471 379.614V372.163H247.019V379.614H254.471Z" fill="#C40851"/>
<path d="M261.949 387.065V379.614H254.497V387.065H261.949Z" fill="#FF2968"/>
<path d="M269.4 394.517V387.065H261.949V394.517H269.4Z" fill="#C40851"/>
<path d="M276.825 401.995V394.543H269.373V401.995H276.825Z" fill="#FF2968"/>
<path d="M269.374 379.614V357.233H261.922V379.614H269.374Z" fill="#C40851"/>
<path d="M284.302 364.711V357.26H276.851V364.711H284.302Z" fill="#C40851"/>
<path d="M284.302 409.446V401.995H276.851V409.446H284.302Z" fill="#C40851"/>
<path d="M239.542 401.995V394.543H232.091V401.995H239.542Z" fill="#60608D"/>
<path d="M232.089 409.42V401.968H224.638V409.42H232.089Z" fill="#60608D"/>
<path d="M224.638 416.898V409.446H217.187V416.898H224.638Z" fill="#60608D"/>
<path d="M217.187 424.349V416.898H209.735V424.349H217.187Z" fill="#60608D"/>
<path d="M209.735 431.8V424.349H202.284V431.8H209.735Z" fill="#60608D"/>
<path d="M202.284 439.278V431.827H194.833V439.278H202.284Z" fill="#60608D"/>
<path d="M194.806 446.73V439.278H187.354V446.73H194.806Z" fill="#60608D"/>
<path d="M187.354 454.155V446.703H179.903V454.155H187.354Z" fill="#60608D"/>
<path d="M194.832 454.181H172.451V461.633H194.832V454.181Z" fill="#E5E5EC"/>
<path d="M194.833 424.349H187.382V431.8H194.833V424.349Z" fill="#E5E5EC"/>
<path d="M187.355 431.8H179.903V439.252H187.355V431.8Z" fill="#E5E5EC"/>
<path d="M202.284 416.898H194.833V424.349H202.284V416.898Z" fill="#E5E5EC"/>
<path d="M224.638 394.543H217.187V401.995H224.638V394.543Z" fill="#E5E5EC"/>
<path d="M232.09 387.065H224.638V394.517H232.09V387.065Z" fill="#E5E5EC"/>
<path d="M239.569 379.614H232.117V387.065H239.569V379.614Z" fill="#E5E5EC"/>
<path d="M239.569 409.446H232.117V416.898H239.569V409.446Z" fill="#E5E5EC"/>
<path d="M209.735 409.446H202.283V416.898H209.735V409.446Z" fill="#E5E5EC"/>
<path d="M217.187 401.995H209.736V409.446H217.187V401.995Z" fill="#E5E5EC"/>
<path d="M291.754 357.26H299.206V297.622H291.754V357.26Z" fill="#353554"/>
<path d="M299.232 327.401H306.684V312.498H299.232V327.401Z" fill="#353554"/>
<path d="M284.303 357.26H291.755V327.428H284.303V357.26Z" fill="#353554"/>
<path d="M276.851 349.782H284.303V327.401H276.851V349.782Z" fill="#4C4C70"/>
<path d="M284.303 327.401H291.755V312.498H284.303V327.401Z" fill="#4C4C70"/>
<path d="M306.657 312.498H314.108V245.383H306.657V312.498Z" fill="#4C4C70"/>
<path d="M314.136 312.498H321.587V245.383H314.136V312.498Z" fill="#4C4C70"/>
<path d="M321.586 312.498H329.037V237.931H321.586V312.498Z" fill="#4C4C70"/>
<path d="M329.039 312.498H336.49V245.383H329.039V312.498Z" fill="#4C4C70"/>
<path d="M336.515 297.596H343.966V252.861H336.515V297.596Z" fill="#4C4C70"/>
<path d="M343.968 290.144H351.419V252.861H343.968V290.144Z" fill="#4C4C70"/>
<path d="M351.392 290.144H358.844V252.861H351.392V290.144Z" fill="#4C4C70"/>
<path d="M373.799 275.215H381.25V237.931H373.799V275.215Z" fill="#4C4C70"/>
<path d="M381.25 275.215H388.702V245.383H381.25V275.215Z" fill="#4C4C70"/>
<path d="M366.321 282.693H373.772V245.409H366.321V282.693Z" fill="#4C4C70"/>
<path d="M358.87 282.693H366.321V252.861H358.87V282.693Z" fill="#4C4C70"/>
<path d="M314.136 387.092H321.587V342.357H314.136V387.092Z" fill="#8888AA"/>
<path d="M306.657 387.065H314.108V334.879H306.657V387.065Z" fill="#ABABC3"/>
<path d="M314.136 342.331H321.587V327.428H314.136V342.331Z" fill="#ABABC3"/>
<path d="M343.942 334.879H336.49V349.782H343.942V334.879Z" fill="#4C4C70"/>
<path d="M306.657 349.782H299.206V357.233H306.657V349.782Z" fill="#353554"/>
<path d="M351.392 349.782H343.941V364.685H351.392V349.782Z" fill="#4C4C70"/>
<path d="M358.87 364.711H351.419V387.092H358.87V364.711Z" fill="#4C4C70"/>
<path d="M321.586 387.065H329.037V334.879H321.586V387.065Z" fill="#8888AA"/>
<path d="M329.039 387.065H336.49V319.95H329.039V387.065Z" fill="#8888AA"/>
<path d="M343.942 349.782H336.49V394.517H343.942V349.782Z" fill="#8888AA"/>
<path d="M351.392 364.711H343.941V387.092H351.392V364.711Z" fill="#8888AA"/>
<path d="M269.373 342.331H276.825V334.879H269.373V342.331Z" fill="#4C4C70"/>
<path d="M381.25 185.745V215.577H388.702V185.745H381.25Z" fill="#C40851"/>
<path d="M388.717 185.749L388.712 215.582L396.163 215.583L396.169 185.751L388.717 185.749Z" fill="#C40851"/>
<path d="M396.154 185.745V200.648H403.606V185.745H396.154Z" fill="#C40851"/>
<path d="M373.772 185.745H336.489V193.196H373.772V185.745Z" fill="#07042D"/>
<path d="M329.037 200.674H321.586V223.055H329.037V200.674Z" fill="#07042D"/>
<path d="M343.94 193.223H336.489V230.506H343.94V193.223Z" fill="#ABABC3"/>
<path d="M336.489 215.577H329.038V223.028H336.489V215.577Z" fill="#ABABC3"/>
<path d="M381.224 200.674H373.773V223.055H381.224V200.674Z" fill="#ABABC3"/>
<path d="M373.771 193.223H366.32V230.506H373.771V193.223Z" fill="#ABABC3"/>
<path d="M351.392 193.223H343.941V230.506H351.392V193.223Z" fill="#ABABC3"/>
<path d="M358.869 193.223H351.417V230.506H358.869V193.223Z" fill="#ABABC3"/>
<path d="M366.322 193.223H358.87V230.506H366.322V193.223Z" fill="#ABABC3"/>
<path d="M336.489 223.028H329.038V230.48H336.489V223.028Z" fill="#07042D"/>
<path d="M321.586 237.958H299.205V245.409H321.586V237.958Z" fill="#07042D"/>
<path d="M336.516 491.465H306.684V498.916H336.516V491.465Z" fill="#07042D"/>
<path d="M291.754 275.241H276.851V282.693H291.754V275.241Z" fill="#07042D"/>
<path d="M299.206 245.409H284.303V252.861H299.206V245.409Z" fill="#07042D"/>
<path d="M336.489 193.223H329.038V200.674H336.489V193.223Z" fill="#07042D"/>
<path d="M329.037 230.48H321.586V237.931H329.037V230.48Z" fill="#07042D"/>
<path d="M381.224 230.48H373.773V237.931H381.224V230.48Z" fill="#07042D"/>
<path d="M381.224 178.294H373.773V185.745H381.224V178.294Z" fill="#07042D"/>
<path d="M396.127 170.842H381.224V178.294H396.127V170.842Z" fill="#07042D"/>
<path d="M403.604 200.674H396.153V208.126H403.604V200.674Z" fill="#07042D"/>
<path d="M396.154 208.126H388.702V215.577H396.154V208.126Z" fill="#07042D"/>
<path d="M388.676 215.577H381.224V223.028H388.676V215.577Z" fill="#07042D"/>
<path d="M403.604 178.294H396.153V185.745H403.604V178.294Z" fill="#07042D"/>
<path d="M411.056 185.745H403.604V200.648H411.056V185.745Z" fill="#07042D"/>
<path d="M284.302 252.861H276.851V260.312H284.302V252.861Z" fill="#07042D"/>
<path d="M299.205 349.782H291.753V357.233H299.205V349.782Z" fill="#07042D"/>
<path d="M306.656 327.428H299.205V349.809H306.656V327.428Z" fill="#07042D"/>
<path d="M314.135 312.525H306.684V327.428H314.135V312.525Z" fill="#07042D"/>
<path d="M306.656 297.596H299.205V312.498H306.656V297.596Z" fill="#07042D"/>
<path d="M306.656 431.8H299.205V491.438H306.656V431.8Z" fill="#07042D"/>
<path d="M343.94 431.8H336.489V491.438H343.94V431.8Z" fill="#07042D"/>
<path d="M276.851 327.428H269.399V334.879H276.851V327.428Z" fill="#07042D"/>
<path d="M269.373 334.879H261.922V342.331H269.373V334.879Z" fill="#07042D"/>
<path d="M299.205 282.693H291.753V297.596H299.205V282.693Z" fill="#07042D"/>
<path d="M336.489 394.543H329.038V431.827H336.489V394.543Z" fill="#07042D"/>
<path d="M306.656 357.26H299.205V394.543H306.656V357.26Z" fill="#07042D"/>
<path d="M314.135 387.065H306.684V431.8H314.135V387.065Z" fill="#07042D"/>
<path d="M321.587 387.065H314.135V431.8H321.587V387.065Z" fill="#4C4C70"/>
<path d="M329.037 387.065H321.586V431.8H329.037V387.065Z" fill="#4C4C70"/>
<path d="M373.771 394.543H366.32V431.827H373.771V394.543Z" fill="#07042D"/>
<path d="M381.224 394.543H373.773V431.827H381.224V394.543Z" fill="#4C4C70"/>
<path d="M366.322 379.614H358.87V394.517H366.322V379.614Z" fill="#353554"/>
<path d="M343.834 387.065H314.135V394.517H343.834V387.065Z" fill="#353554"/>
<path d="M314.135 387.065H306.684V394.517H314.135V387.065Z" fill="#353554"/>
<path d="M373.771 387.065H366.32V394.517H373.771V387.065Z" fill="#4C4C70"/>
<path d="M388.676 401.995H381.224V431.827H388.676V401.995Z" fill="#4C4C70"/>
<path d="M396.154 401.995H388.702V431.827H396.154V401.995Z" fill="#07042D"/>
<path d="M358.844 387.065H343.941V394.517H358.844V387.065Z" fill="#07042D"/>
<path d="M343.94 394.543H336.489V401.995H343.94V394.543Z" fill="#07042D"/>
<path d="M366.322 394.543H358.87V401.995H366.322V394.543Z" fill="#07042D"/>
<path d="M291.754 297.596H284.303V312.498H291.754V297.596Z" fill="#07042D"/>
<path d="M284.302 312.525H276.851V327.428H284.302V312.525Z" fill="#07042D"/>
<path d="M373.771 223.028H366.32V230.48H373.771V223.028Z" fill="#07042D"/>
<path d="M381.224 193.223H373.773V223.055H381.224V193.223Z" fill="#07042D"/>
<path d="M358.87 208.126H329.038V215.577H358.87V208.126Z" fill="#07042D"/>
<path d="M373.773 230.48H329.038V237.931H373.773V230.48Z" fill="#8888AA"/>
<path d="M366.321 237.958H336.489V245.409H366.321V237.958Z" fill="#8888AA"/>
<path d="M366.321 245.409H336.489V252.861H366.321V245.409Z" fill="#353554"/>
<path d="M336.489 237.958H329.038V245.409H336.489V237.958Z" fill="#353554"/>
<path d="M314.135 245.409H306.684V260.312H314.135V245.409Z" fill="#353554"/>
<path d="M388.676 245.409H381.224V260.312H388.676V245.409Z" fill="#353554"/>
<path d="M321.587 260.312H314.135V275.215H321.587V260.312Z" fill="#353554"/>
<path d="M381.224 260.312H373.773V275.215H381.224V260.312Z" fill="#353554"/>
<path d="M329.037 275.241H321.586V282.693H329.037V275.241Z" fill="#353554"/>
<path d="M373.771 275.241H366.32V282.693H373.771V275.241Z" fill="#353554"/>
<path d="M336.489 282.693H329.038V290.144H336.489V282.693Z" fill="#353554"/>
<path d="M343.94 290.144H336.489V297.596H343.94V290.144Z" fill="#353554"/>
<path d="M373.771 237.958H366.32V245.409H373.771V237.958Z" fill="#353554"/>
<path d="M284.302 267.763H276.851V275.215H284.302V267.763Z" fill="#8888AA"/>
<path d="M284.302 260.312H276.851V267.763H284.302V260.312Z" fill="#E5E5EC"/>
<path d="M314.135 327.428H306.684V334.879H314.135V327.428Z" fill="#E5E5EC"/>
<path d="M306.656 245.409H299.205V252.861H306.656V245.409Z" fill="#E5E5EC"/>
<path d="M336.489 200.674H329.038V208.126H336.489V200.674Z" fill="#E5E5EC"/>
<path d="M351.392 193.223H336.489V200.674H351.392V193.223Z" fill="#E5E5EC"/>
<path d="M299.206 252.861H284.303V260.312H299.206V252.861Z" fill="#E5E5EC"/>
<path d="M425.958 260.312H418.507V267.763H425.958V260.312Z" fill="#ABABC3"/>
<path d="M403.604 245.409H396.153V252.861H403.604V245.409Z" fill="#ABABC3"/>
<path d="M418.507 252.861H403.604V260.312H418.507V252.861Z" fill="#ABABC3"/>
<path d="M291.754 260.312H284.303V275.215H291.754V260.312Z" fill="#8888AA"/>
<path d="M299.205 260.312H291.753V282.693H299.205V260.312Z" fill="#8888AA"/>
<path d="M306.656 252.861H299.205V282.693H306.656V252.861Z" fill="#8888AA"/>
<path d="M336.489 275.241H329.038V282.693H336.489V275.241Z" fill="#8888AA"/>
<path d="M343.94 282.693H336.489V290.144H343.94V282.693Z" fill="#8888AA"/>
<path d="M329.037 260.312H321.586V275.215H329.037V260.312Z" fill="#8888AA"/>
<path d="M321.587 245.409H314.135V260.312H321.587V245.409Z" fill="#8888AA"/>
<path d="M396.154 245.409H388.702V267.79H396.154V245.409Z" fill="#4C4C70"/>
<path d="M403.604 252.861H396.153V275.241H403.604V252.861Z" fill="#8888AA"/>
<path d="M418.507 260.312H411.056V282.693H418.507V260.312Z" fill="#8888AA"/>
<path d="M411.056 260.312H403.604V275.215H411.056V260.312Z" fill="#8888AA"/>
<path d="M425.958 267.763H418.507V275.215H425.958V267.763Z" fill="#8888AA"/>
<path d="M306.656 282.693H299.205V297.596H306.656V282.693Z" fill="#4C4C70"/>
<path d="M314.135 431.8H306.684V491.438H314.135V431.8Z" fill="#C7C7D7"/>
<path d="M329.037 431.8H321.586V491.438H329.037V431.8Z" fill="#4C4C70"/>
<path d="M321.587 431.8H314.135V491.438H321.587V431.8Z" fill="#8888AA"/>
<path d="M336.489 431.8H329.038V491.438H336.489V431.8Z" fill="#4C4C70"/>
<path d="M396.152 491.465H366.32V498.916H396.152V491.465Z" fill="#07042D"/>
<path d="M366.322 431.8H358.87V491.438H366.322V431.8Z" fill="#07042D"/>
<path d="M403.604 431.8H396.153V491.438H403.604V431.8Z" fill="#07042D"/>
<path d="M373.771 431.8H366.32V491.438H373.771V431.8Z" fill="#C7C7D7"/>
<path d="M388.676 431.8H381.224V491.438H388.676V431.8Z" fill="#4C4C70"/>
<path d="M381.224 431.8H373.773V491.438H381.224V431.8Z" fill="#8888AA"/>
<path d="M396.154 431.8H388.702V491.438H396.154V431.8Z" fill="#4C4C70"/>
<path d="M276.851 260.312H269.399V275.215H276.851V260.312Z" fill="#07042D"/>
<path d="M403.605 237.958H381.224V245.409H403.605V237.958Z" fill="#07042D"/>
<path d="M425.958 275.241H418.507V282.693H425.958V275.241Z" fill="#07042D"/>
<path d="M418.507 245.409H403.604V252.861H418.507V245.409Z" fill="#07042D"/>
<path d="M425.958 252.861H418.507V260.312H425.958V252.861Z" fill="#07042D"/>
<path d="M433.41 260.312H425.959V275.215H433.41V260.312Z" fill="#07042D"/>
<path d="M306.656 312.525H314.107V297.622H306.656V312.525Z" fill="#8888AA"/>
<path d="M314.108 319.95H336.489V312.498H314.108V319.95Z" fill="#8888AA"/>
<path d="M321.586 334.879H329.038V327.428H321.586V334.879Z" fill="#ABABC3"/>
<path d="M336.516 319.976H314.135V327.428H336.516V319.976Z" fill="#353554"/>
<path d="M396.127 178.294H381.224V185.745H396.127V178.294Z" fill="#FF2968"/>
</g>
<path d="M23 775V624.382L52 591H564L599 624.382V775H23Z" fill="#2B167D"/>
<path d="M564.015 79H52L23 55.2539V23H599V55.2539L564 79H564.015Z" fill="#2B167D"/>
<path d="M211.477 59H206.303V40.2336H216.442C217.319 40.2336 218.158 40.3509 218.957 40.5855C219.765 40.8201 220.477 41.1763 221.094 41.6541C221.711 42.1233 222.202 42.7184 222.567 43.4396C222.941 44.152 223.127 44.9904 223.127 45.9548C223.127 46.5629 223.04 47.1364 222.867 47.675C222.693 48.205 222.45 48.6915 222.137 49.1346C221.833 49.5777 221.472 49.9774 221.055 50.3336C220.638 50.6898 220.182 50.9895 219.687 51.2328C219.192 51.4761 218.666 51.6629 218.11 51.7932C217.563 51.9235 217.007 51.9887 216.442 51.9887H211.477V59ZM217.888 45.9548C217.888 44.7471 217.58 43.8001 216.963 43.1137C216.355 42.4187 215.434 42.0712 214.2 42.0712H211.477V50.2163H214.2C214.861 50.2163 215.421 50.112 215.881 49.9035C216.351 49.6863 216.733 49.3866 217.028 49.0043C217.324 48.622 217.541 48.1746 217.68 47.662C217.819 47.1407 217.888 46.5716 217.888 45.9548ZM229.813 59H225.408V37.0147H227.102L229.813 41.589V59ZM248.644 59H244.24V57.2016C243.718 57.914 243.088 58.444 242.35 58.7915C241.62 59.1303 240.816 59.2997 239.939 59.2997C238.792 59.2997 237.767 59.0956 236.863 58.6872C235.96 58.2789 235.195 57.7228 234.57 57.0191C233.944 56.3067 233.466 55.4726 233.136 54.5169C232.806 53.5612 232.641 52.536 232.641 51.4413C232.641 50.3466 232.806 49.3214 233.136 48.3657C233.466 47.41 233.944 46.5803 234.57 45.8766C235.195 45.1641 235.96 44.6038 236.863 44.1954C237.767 43.7871 238.792 43.5829 239.939 43.5829C240.521 43.5829 241.073 43.6698 241.594 43.8436C242.124 44.0173 242.606 44.2649 243.041 44.5864C243.484 44.8992 243.87 45.2814 244.2 45.7332C244.539 46.1763 244.804 46.6715 244.995 47.2189L246.95 43.9478H248.644V59ZM244.213 51.4413C244.213 51.0504 244.192 50.6377 244.148 50.2033C244.114 49.7689 244.048 49.3388 243.953 48.9131C243.857 48.4874 243.723 48.0834 243.549 47.7011C243.384 47.3101 243.167 46.9669 242.897 46.6715C242.637 46.3675 242.319 46.1285 241.946 45.9548C241.572 45.781 241.138 45.6941 240.643 45.6941C240.147 45.6941 239.717 45.7853 239.352 45.9678C238.988 46.1416 238.675 46.3805 238.414 46.6846C238.153 46.98 237.936 47.3231 237.763 47.7141C237.597 48.1051 237.467 48.5134 237.372 48.9391C237.276 49.3649 237.206 49.7949 237.163 50.2293C237.128 50.655 237.111 51.059 237.111 51.4413C237.111 51.8236 237.128 52.2319 237.163 52.6664C237.206 53.1008 237.276 53.5308 237.372 53.9565C237.467 54.3823 237.597 54.7906 237.763 55.1816C237.936 55.5725 238.153 55.9201 238.414 56.2241C238.675 56.5195 238.988 56.7585 239.352 56.9409C239.717 57.1147 240.147 57.2016 240.643 57.2016C241.094 57.2016 241.494 57.1103 241.842 56.9279C242.198 56.7367 242.506 56.4848 242.767 56.172C243.036 55.8592 243.262 55.503 243.445 55.1034C243.627 54.7037 243.775 54.291 243.888 53.8653C244.001 53.4396 244.083 53.0182 244.135 52.6012C244.187 52.1755 244.213 51.7888 244.213 51.4413ZM265.808 43.9478L260.334 57.1885C259.709 58.7003 259.009 60.1946 258.236 61.6716C257.472 63.1573 256.642 64.5821 255.747 65.9462L254.027 64.9036C254.244 64.5126 254.5 64.0608 254.796 63.5482C255.091 63.0356 255.382 62.5057 255.669 61.9583C255.955 61.411 256.22 60.8679 256.464 60.3293C256.707 59.7993 256.894 59.3128 257.024 58.8697L250.443 43.9478H254.848L259.318 54.126L262.758 43.9478H265.808ZM270.916 51.8584C271.455 51.98 271.994 52.0756 272.532 52.1451C273.071 52.2146 273.614 52.2493 274.161 52.2493C274.735 52.2493 275.265 52.1972 275.751 52.0929C276.247 51.98 276.672 51.7975 277.029 51.5456C277.393 51.2849 277.68 50.9418 277.889 50.516C278.097 50.0903 278.201 49.5603 278.201 48.9261C278.201 48.4135 278.132 47.9444 277.993 47.5186C277.854 47.0929 277.645 46.728 277.367 46.4239C277.098 46.1198 276.764 45.8853 276.364 45.7202C275.964 45.5464 275.499 45.4595 274.969 45.4595C274.474 45.4595 274.027 45.5508 273.627 45.7332C273.236 45.9157 272.889 46.1633 272.585 46.4761C272.289 46.7801 272.033 47.1364 271.816 47.5447C271.607 47.953 271.433 48.3788 271.294 48.8219C271.155 49.2649 271.055 49.7124 270.995 50.1642C270.934 50.616 270.903 51.0417 270.903 51.4413C270.903 51.5108 270.903 51.5803 270.903 51.6498C270.903 51.7193 270.908 51.7888 270.916 51.8584ZM281.772 48.887C281.772 49.5039 281.672 50.0556 281.473 50.5421C281.273 51.0199 280.999 51.4413 280.651 51.8062C280.313 52.1711 279.917 52.4796 279.466 52.7315C279.014 52.9835 278.532 53.192 278.019 53.3571C277.506 53.5134 276.976 53.6264 276.429 53.6959C275.89 53.7654 275.365 53.8002 274.852 53.8002C274.201 53.8002 273.558 53.7567 272.923 53.6698C272.289 53.5743 271.664 53.4266 271.047 53.2267C271.142 53.8002 271.294 54.3475 271.503 54.8688C271.711 55.3814 271.989 55.8332 272.337 56.2241C272.684 56.6064 273.11 56.9105 273.614 57.1364C274.127 57.3623 274.731 57.4752 275.426 57.4752C275.886 57.4752 276.325 57.4057 276.742 57.2667C277.159 57.1277 277.541 56.9322 277.889 56.6803C278.236 56.4283 278.54 56.1286 278.801 55.781C279.07 55.4335 279.287 55.0469 279.453 54.6212L281.355 55.3249C281.069 56.0113 280.673 56.6064 280.169 57.1103C279.674 57.6056 279.109 58.0182 278.475 58.3484C277.85 58.6699 277.181 58.9088 276.468 59.0652C275.764 59.2215 275.065 59.2997 274.37 59.2997C273.223 59.2997 272.163 59.1086 271.19 58.7263C270.217 58.3354 269.379 57.7923 268.675 57.0973C267.971 56.4022 267.419 55.5725 267.02 54.6081C266.62 53.6438 266.42 52.5882 266.42 51.4413C266.42 50.2945 266.62 49.2389 267.02 48.2745C267.419 47.3101 267.971 46.4804 268.675 45.7853C269.379 45.0903 270.217 44.5516 271.19 44.1694C272.163 43.7784 273.223 43.5829 274.37 43.5829C274.926 43.5829 275.495 43.622 276.077 43.7002C276.659 43.7784 277.224 43.9044 277.771 44.0781C278.319 44.2432 278.836 44.4604 279.322 44.7297C279.809 44.9991 280.23 45.3336 280.586 45.7332C280.951 46.1242 281.238 46.5803 281.446 47.1016C281.664 47.6229 281.772 48.218 281.772 48.887ZM297.32 45.2771L294.844 49.3822C294.739 49.0347 294.605 48.6437 294.44 48.2093C294.274 47.7749 294.07 47.3709 293.827 46.9973C293.584 46.6151 293.293 46.2979 292.954 46.046C292.615 45.7853 292.224 45.655 291.781 45.655C291.373 45.655 291.016 45.7593 290.712 45.9678C290.417 46.1763 290.165 46.45 289.956 46.7888C289.748 47.119 289.574 47.4969 289.435 47.9226C289.305 48.3397 289.201 48.7654 289.122 49.1998C289.053 49.6255 289.005 50.0382 288.979 50.4378C288.953 50.8288 288.94 51.1676 288.94 51.4544V59H284.522V43.9478H286.216L288.002 47.4535C288.245 46.8887 288.523 46.3718 288.836 45.9026C289.148 45.4248 289.509 45.0164 289.917 44.6776C290.326 44.3301 290.786 44.0608 291.299 43.8696C291.82 43.6785 292.407 43.5829 293.058 43.5829C293.397 43.5829 293.775 43.6133 294.192 43.6741C294.609 43.7263 295.017 43.8218 295.417 43.9608C295.817 44.0912 296.186 44.2649 296.525 44.4821C296.864 44.6993 297.129 44.9643 297.32 45.2771ZM323.475 45.8766C323.475 46.6498 323.371 47.3188 323.163 47.8835C322.954 48.4396 322.672 48.9174 322.315 49.3171C321.959 49.7167 321.538 50.0556 321.051 50.3336C320.573 50.6029 320.061 50.8418 319.514 51.0504C318.966 51.2589 318.397 51.4457 317.806 51.6107C317.224 51.7758 316.646 51.9496 316.073 52.132C315.5 52.3145 314.948 52.523 314.418 52.7576C313.888 52.9922 313.41 53.2832 312.984 53.6307C312.559 53.9696 312.194 54.3823 311.89 54.8688C311.586 55.3466 311.377 55.9244 311.264 56.6021H323.475V59H305.699C305.891 57.801 306.164 56.7671 306.52 55.8983C306.877 55.0208 307.289 54.2693 307.758 53.6438C308.228 53.0182 308.736 52.4969 309.283 52.0799C309.839 51.6542 310.408 51.298 310.99 51.0113C311.573 50.7159 312.159 50.4726 312.75 50.2815C313.341 50.0816 313.91 49.8905 314.457 49.708C315.004 49.5256 315.513 49.3345 315.982 49.1346C316.46 48.9261 316.872 48.6698 317.22 48.3657C317.576 48.0616 317.854 47.6924 318.054 47.258C318.254 46.8149 318.354 46.2675 318.354 45.6159C318.354 45.0251 318.254 44.5082 318.054 44.0651C317.854 43.622 317.58 43.2528 317.233 42.9574C316.885 42.662 316.473 42.4404 315.995 42.2927C315.526 42.145 315.022 42.0712 314.483 42.0712C313.918 42.0712 313.393 42.1754 312.906 42.3839C312.428 42.5925 311.994 42.8879 311.603 43.2701C311.221 43.6437 310.886 44.0955 310.599 44.6255C310.321 45.1555 310.109 45.7463 309.961 46.3979L305.96 44.1824C306.316 43.4526 306.82 42.8184 307.472 42.2797C308.132 41.741 308.862 41.2936 309.661 40.9374C310.46 40.5725 311.29 40.3031 312.15 40.1294C313.019 39.9469 313.84 39.8557 314.613 39.8557C315.361 39.8557 316.099 39.8861 316.829 39.9469C317.559 40.0077 318.249 40.1207 318.901 40.2858C319.561 40.4508 320.169 40.6767 320.725 40.9634C321.282 41.2501 321.764 41.6194 322.172 42.0712C322.58 42.5143 322.898 43.0486 323.123 43.6741C323.358 44.2997 323.475 45.0338 323.475 45.8766ZM336.938 59H334.54V40.2336H337.902L349.305 53.1225V40.2336H351.69V59H348.328L336.938 46.1242V59ZM370.522 59H366.117V57.2016C365.595 57.914 364.965 58.444 364.227 58.7915C363.497 59.1303 362.694 59.2997 361.816 59.2997C360.669 59.2997 359.644 59.0956 358.74 58.6872C357.837 58.2789 357.072 57.7228 356.447 57.0191C355.821 56.3067 355.343 55.4726 355.013 54.5169C354.683 53.5612 354.518 52.536 354.518 51.4413C354.518 50.3466 354.683 49.3214 355.013 48.3657C355.343 47.41 355.821 46.5803 356.447 45.8766C357.072 45.1641 357.837 44.6038 358.74 44.1954C359.644 43.7871 360.669 43.5829 361.816 43.5829C362.398 43.5829 362.95 43.6698 363.471 43.8436C364.001 44.0173 364.483 44.2649 364.918 44.5864C365.361 44.8992 365.747 45.2814 366.078 45.7332C366.416 46.1763 366.681 46.6715 366.873 47.2189L368.827 43.9478H370.522V59ZM366.091 51.4413C366.091 51.0504 366.069 50.6377 366.025 50.2033C365.991 49.7689 365.926 49.3388 365.83 48.9131C365.734 48.4874 365.6 48.0834 365.426 47.7011C365.261 47.3101 365.044 46.9669 364.774 46.6715C364.514 46.3675 364.197 46.1285 363.823 45.9548C363.449 45.781 363.015 45.6941 362.52 45.6941C362.025 45.6941 361.594 45.7853 361.23 45.9678C360.865 46.1416 360.552 46.3805 360.291 46.6846C360.031 46.98 359.813 47.3231 359.64 47.7141C359.475 48.1051 359.344 48.5134 359.249 48.9391C359.153 49.3649 359.084 49.7949 359.04 50.2293C359.005 50.655 358.988 51.059 358.988 51.4413C358.988 51.8236 359.005 52.2319 359.04 52.6664C359.084 53.1008 359.153 53.5308 359.249 53.9565C359.344 54.3823 359.475 54.7906 359.64 55.1816C359.813 55.5725 360.031 55.9201 360.291 56.2241C360.552 56.5195 360.865 56.7585 361.23 56.9409C361.594 57.1147 362.025 57.2016 362.52 57.2016C362.972 57.2016 363.371 57.1103 363.719 56.9279C364.075 56.7367 364.383 56.4848 364.644 56.172C364.913 55.8592 365.139 55.503 365.322 55.1034C365.504 54.7037 365.652 54.291 365.765 53.8653C365.878 53.4396 365.96 53.0182 366.012 52.6012C366.065 52.1755 366.091 51.7888 366.091 51.4413ZM397.498 50.2163C397.498 51.2502 397.377 52.3275 397.133 53.4483C396.89 54.5691 396.547 55.6638 396.104 56.7324C395.669 57.7923 395.144 58.7958 394.527 59.7428C393.91 60.6898 393.224 61.5109 392.468 62.2059L390.813 61.3067C391.065 60.8549 391.295 60.3467 391.503 59.7819C391.712 59.2172 391.903 58.6221 392.077 57.9965C392.251 57.371 392.403 56.7281 392.533 56.0678C392.663 55.4075 392.772 54.7515 392.859 54.0999C392.954 53.4396 393.024 52.801 393.067 52.1842C393.111 51.5673 393.132 50.9895 393.132 50.4509C393.132 50.1468 393.124 49.8166 393.106 49.4604C393.089 49.1042 393.05 48.748 392.989 48.3918C392.937 48.0356 392.854 47.6967 392.741 47.3753C392.628 47.0451 392.472 46.7541 392.272 46.5021C392.081 46.2415 391.838 46.0373 391.542 45.8896C391.256 45.7332 390.908 45.655 390.5 45.655C390.1 45.655 389.757 45.7636 389.47 45.9808C389.192 46.1893 388.953 46.463 388.754 46.8019C388.554 47.1407 388.393 47.523 388.271 47.9487C388.158 48.3744 388.072 48.8045 388.011 49.2389C387.95 49.6646 387.906 50.0729 387.88 50.4639C387.863 50.8549 387.854 51.185 387.854 51.4544V59H383.463V51.9887C383.463 51.6846 383.467 51.3197 383.476 50.894C383.484 50.4596 383.471 50.0078 383.436 49.5386C383.41 49.0695 383.354 48.6046 383.267 48.1442C383.189 47.675 383.059 47.258 382.876 46.8931C382.702 46.5282 382.463 46.2328 382.159 46.0069C381.855 45.7723 381.473 45.655 381.012 45.655C380.621 45.655 380.291 45.7636 380.022 45.9808C379.761 46.198 379.54 46.4804 379.357 46.8279C379.184 47.1668 379.045 47.5534 378.94 47.9878C378.845 48.4135 378.771 48.8436 378.719 49.278C378.675 49.7037 378.649 50.112 378.641 50.503C378.632 50.8853 378.628 51.2024 378.628 51.4544V59H374.21V43.9478H375.904L377.52 47.4535C377.885 46.2371 378.458 45.2901 379.24 44.6125C380.031 43.9261 381.078 43.5829 382.381 43.5829C383.554 43.5829 384.527 43.8262 385.3 44.3127C386.073 44.7992 386.681 45.5899 387.125 46.6846C387.377 46.2067 387.655 45.7767 387.959 45.3944C388.271 45.0121 388.615 44.6863 388.988 44.417C389.37 44.1476 389.792 43.9435 390.252 43.8045C390.713 43.6568 391.221 43.5829 391.777 43.5829C392.802 43.5829 393.675 43.7523 394.397 44.0912C395.126 44.4213 395.721 44.8818 396.182 45.4726C396.642 46.0634 396.977 46.7671 397.185 47.5838C397.394 48.3918 397.498 49.2693 397.498 50.2163ZM404.053 51.8584C404.592 51.98 405.131 52.0756 405.669 52.1451C406.208 52.2146 406.751 52.2493 407.298 52.2493C407.872 52.2493 408.402 52.1972 408.888 52.0929C409.384 51.98 409.809 51.7975 410.165 51.5456C410.53 51.2849 410.817 50.9418 411.026 50.516C411.234 50.0903 411.338 49.5603 411.338 48.9261C411.338 48.4135 411.269 47.9444 411.13 47.5186C410.991 47.0929 410.782 46.728 410.504 46.4239C410.235 46.1198 409.901 45.8853 409.501 45.7202C409.101 45.5464 408.636 45.4595 408.106 45.4595C407.611 45.4595 407.164 45.5508 406.764 45.7332C406.373 45.9157 406.026 46.1633 405.722 46.4761C405.426 46.7801 405.17 47.1364 404.953 47.5447C404.744 47.953 404.57 48.3788 404.431 48.8219C404.292 49.2649 404.192 49.7124 404.132 50.1642C404.071 50.616 404.04 51.0417 404.04 51.4413C404.04 51.5108 404.04 51.5803 404.04 51.6498C404.04 51.7193 404.045 51.7888 404.053 51.8584ZM414.909 48.887C414.909 49.5039 414.809 50.0556 414.609 50.5421C414.41 51.0199 414.136 51.4413 413.788 51.8062C413.45 52.1711 413.054 52.4796 412.603 52.7315C412.151 52.9835 411.669 53.192 411.156 53.3571C410.643 53.5134 410.113 53.6264 409.566 53.6959C409.027 53.7654 408.502 53.8002 407.989 53.8002C407.338 53.8002 406.695 53.7567 406.06 53.6698C405.426 53.5743 404.801 53.4266 404.184 53.2267C404.279 53.8002 404.431 54.3475 404.64 54.8688C404.848 55.3814 405.126 55.8332 405.474 56.2241C405.821 56.6064 406.247 56.9105 406.751 57.1364C407.264 57.3623 407.867 57.4752 408.563 57.4752C409.023 57.4752 409.462 57.4057 409.879 57.2667C410.296 57.1277 410.678 56.9322 411.026 56.6803C411.373 56.4283 411.677 56.1286 411.938 55.781C412.207 55.4335 412.424 55.0469 412.589 54.6212L414.492 55.3249C414.205 56.0113 413.81 56.6064 413.306 57.1103C412.811 57.6056 412.246 58.0182 411.612 58.3484C410.987 58.6699 410.318 58.9088 409.605 59.0652C408.901 59.2215 408.202 59.2997 407.507 59.2997C406.36 59.2997 405.3 59.1086 404.327 58.7263C403.354 58.3354 402.516 57.7923 401.812 57.0973C401.108 56.4022 400.556 55.5725 400.157 54.6081C399.757 53.6438 399.557 52.5882 399.557 51.4413C399.557 50.2945 399.757 49.2389 400.157 48.2745C400.556 47.3101 401.108 46.4804 401.812 45.7853C402.516 45.0903 403.354 44.5516 404.327 44.1694C405.3 43.7784 406.36 43.5829 407.507 43.5829C408.063 43.5829 408.632 43.622 409.214 43.7002C409.796 43.7784 410.361 43.9044 410.908 44.0781C411.456 44.2432 411.973 44.4604 412.459 44.7297C412.946 44.9991 413.367 45.3336 413.723 45.7332C414.088 46.1242 414.375 46.5803 414.583 47.1016C414.801 47.6229 414.909 48.218 414.909 48.887Z" fill="white"/>
<rect x="90" y="631" width="446" height="120" fill="#A3F9FF"/>
<path d="M141.087 650.637H138.727V660.092H141.087V650.637Z" fill="#FF2968"/>
<path d="M143.455 648.27H141.087V650.637V662.452H143.455V648.27Z" fill="#FF2968"/>
<path d="M141.087 657.724H138.727V664.812H141.087V657.724Z" fill="#C40851"/>
<path d="M169.444 657.724H167.084V664.812H169.444V657.724Z" fill="#C40851"/>
<path d="M164.717 662.452H162.357V669.539H164.717V662.452Z" fill="#C40851"/>
<path d="M162.357 664.812H159.997V671.899H162.357V664.812Z" fill="#C40851"/>
<path d="M167.084 660.084H164.724V667.172H167.084V660.084Z" fill="#C40851"/>
<path d="M159.989 667.179H157.629V674.267H159.989V667.179Z" fill="#C40851"/>
<path d="M157.629 669.539H155.27V676.627H157.629V669.539Z" fill="#C40851"/>
<path d="M143.447 660.084H141.087V667.172H143.447V660.084Z" fill="#C40851"/>
<path d="M145.815 662.452H143.455V669.539H145.815V662.452Z" fill="#C40851"/>
<path d="M148.174 664.812H145.814V671.899H148.174V664.812Z" fill="#C40851"/>
<path d="M150.542 667.179H148.182V674.267H150.542V667.179Z" fill="#C40851"/>
<path d="M152.902 669.539H150.542V676.627H152.902V669.539Z" fill="#C40851"/>
<path d="M155.262 671.899H152.902V678.986H155.262V671.899Z" fill="#C40851"/>
<path d="M145.815 648.27H143.455V662.452H145.815V648.27Z" fill="#FF2968"/>
<path d="M169.444 650.637H167.084V657.724H169.444V650.637Z" fill="#FF2968"/>
<path d="M171.804 655.357H169.444V657.717H171.804V655.357Z" fill="#C40851"/>
<path d="M148.174 648.27H145.814V664.812H148.174V648.27Z" fill="#FF2968"/>
<path d="M167.084 648.27H164.724V660.084H167.084V648.27Z" fill="#FF2968"/>
<path d="M150.542 650.637H148.182V667.179H150.542V650.637Z" fill="#FF2968"/>
<path d="M164.717 648.27H162.357V662.452H164.717V648.27Z" fill="#FF2968"/>
<path d="M157.629 652.997H155.27V669.539H157.629V652.997Z" fill="#FF2968"/>
<path d="M152.902 669.539V652.997V650.637H150.542V669.539H152.902Z" fill="#FF2968"/>
<path d="M162.357 664.812V648.27H159.997V650.637V664.812H162.357Z" fill="#FF2968"/>
<path d="M155.262 655.357H152.902V671.899H155.262V655.357Z" fill="#FF2968"/>
<path d="M159.989 650.637H157.629V667.179H159.989V650.637Z" fill="#FF2968"/>
<path d="M148.175 645.91H141.087V648.27H148.175V645.91Z" fill="#07042D"/>
<path d="M167.084 645.91H159.997V648.27H167.084V645.91Z" fill="#07042D"/>
<path d="M150.542 648.27H148.182V650.63H150.542V648.27Z" fill="#07042D"/>
<path d="M159.99 648.27H157.63V650.63H159.99V648.27Z" fill="#07042D"/>
<path d="M136.36 655.357H134V660.084H136.36V655.357Z" fill="#07042D"/>
<path d="M138.72 655.357H136.36V657.717H138.72V655.357Z" fill="#C40851"/>
<path d="M138.72 657.724H136.36V660.084H138.72V657.724Z" fill="#C40851"/>
<path d="M171.804 657.724H169.444V660.084H171.804V657.724Z" fill="#C40851"/>
<path d="M148.175 671.899H145.815V674.259H148.175V671.899Z" fill="#07042D"/>
<path d="M145.815 669.539H143.455V671.899H145.815V669.539Z" fill="#07042D"/>
<path d="M141.087 664.812H138.727V667.172H141.087V664.812Z" fill="#07042D"/>
<path d="M143.447 667.179H141.087V669.539H143.447V667.179Z" fill="#07042D"/>
<path d="M138.72 660.084H136.36V664.812H138.72V660.084Z" fill="#07042D"/>
<path d="M138.72 650.637H136.36V655.364H138.72V650.637Z" fill="#07042D"/>
<path d="M141.087 648.27H138.727V650.63H141.087V648.27Z" fill="#07042D"/>
<path d="M152.902 650.637H150.542V652.997H152.902V650.637Z" fill="#07042D"/>
<path d="M155.262 652.997H152.902V655.357H155.262V652.997Z" fill="#07042D"/>
<path d="M157.629 650.637H155.27V652.997H157.629V650.637Z" fill="#07042D"/>
<path d="M174.171 655.357H171.812V660.084H174.171V655.357Z" fill="#07042D"/>
<path d="M169.452 664.819H171.812V660.092H169.452V664.819Z" fill="#07042D"/>
<path d="M169.452 655.357H171.812V650.63H169.452V655.357Z" fill="#07042D"/>
<path d="M167.084 650.637H169.444V648.277H167.084V650.637Z" fill="#07042D"/>
<path d="M155.262 678.994H152.902V681.354H155.262V678.994Z" fill="#07042D"/>
<path d="M150.542 674.267H148.182V676.626H150.542V674.267Z" fill="#07042D"/>
<path d="M162.357 671.899H159.997V674.259H162.357V671.899Z" fill="#07042D"/>
<path d="M164.717 669.539H162.357V671.899H164.717V669.539Z" fill="#07042D"/>
<path d="M167.084 667.179H164.724V669.539H167.084V667.179Z" fill="#07042D"/>
<path d="M169.444 664.812H167.084V667.172H169.444V664.812Z" fill="#07042D"/>
<path d="M159.99 674.267H157.63V676.626H159.99V674.267Z" fill="#07042D"/>
<path d="M152.902 676.626H150.542V678.986H152.902V676.626Z" fill="#07042D"/>
<path d="M157.629 676.626H155.27V678.986H157.629V676.626Z" fill="#07042D"/>
<path d="M143.447 652.997H141.087V657.724H143.447V652.997Z" fill="#FFEEFF"/>
<path d="M145.815 650.637H143.455V652.997H145.815V650.637Z" fill="#FFEEFF"/>
<path d="M154.237 720.033L154.237 722.278L156.481 722.278L156.481 720.033L154.237 720.033Z" fill="#07042D"/>
<path d="M151.985 722.271L151.985 724.515L154.23 724.515L154.23 722.271L151.985 722.271Z" fill="#07042D"/>
<path d="M156.481 717.781L156.481 720.026L158.726 720.026L158.726 717.781L156.481 717.781Z" fill="#07042D"/>
<path d="M158.726 715.537L158.726 717.781L160.971 717.781L160.971 715.537L158.726 715.537Z" fill="#07042D"/>
<path d="M160.978 713.285L160.978 715.53L163.223 715.53L163.223 713.285L160.978 713.285Z" fill="#07042D"/>
<path d="M163.222 711.041L163.222 713.285L165.467 713.285L165.467 711.041L163.222 711.041Z" fill="#07042D"/>
<path d="M165.474 708.789L165.474 711.033L167.719 711.033L167.719 708.789L165.474 708.789Z" fill="#07042D"/>
<path d="M167.718 706.544L167.718 708.789L169.963 708.789L169.963 706.544L167.718 706.544Z" fill="#07042D"/>
<path d="M169.97 704.3L169.97 706.544L172.215 706.544L172.215 704.3L169.97 704.3Z" fill="#07042D"/>
<path d="M172.215 702.048L172.215 704.293L174.459 704.293L174.459 702.048L172.215 702.048Z" fill="#07042D"/>
<path d="M147.489 713.292L147.489 715.537L149.733 715.537L149.733 713.292L147.489 713.292Z" fill="#07042D"/>
<path d="M145.237 715.53L145.237 717.774L147.482 717.774L147.482 715.53L145.237 715.53Z" fill="#07042D"/>
<path d="M149.733 711.041L149.733 713.285L151.978 713.285L151.978 711.041L149.733 711.041Z" fill="#07042D"/>
<path d="M151.985 708.789L151.985 711.033L154.23 711.033L154.23 708.789L151.985 708.789Z" fill="#07042D"/>
<path d="M154.23 706.544L154.23 708.789L156.475 708.789L156.475 706.544L154.23 706.544Z" fill="#07042D"/>
<path d="M156.481 704.293L156.481 706.537L158.726 706.537L158.726 704.293L156.481 704.293Z" fill="#07042D"/>
<path d="M158.726 702.048L158.726 704.293L160.971 704.293L160.971 702.048L158.726 702.048Z" fill="#07042D"/>
<path d="M154.237 729.018L156.481 729.018L156.481 726.774L154.237 726.774L154.237 729.018Z" fill="#07042D"/>
<path d="M156.481 733.515L158.726 733.515L158.726 729.018L156.481 729.018L156.481 733.515Z" fill="#07042D"/>
<path d="M151.985 726.767L154.23 726.767L154.23 724.522L151.985 724.522L151.985 726.767Z" fill="#07042D"/>
<path d="M149.741 724.522L151.985 724.522L151.985 722.278L149.741 722.278L149.741 724.522Z" fill="#07042D"/>
<path d="M147.496 722.271L149.741 722.271L149.741 720.026L147.496 720.026L147.496 722.271Z" fill="#07042D"/>
<path d="M145.244 720.026L147.489 720.026L147.489 717.781L145.244 717.781L145.244 720.026Z" fill="#07042D"/>
<path d="M143 717.781L145.244 717.781L145.244 715.537L143 715.537L143 717.781Z" fill="#07042D"/>
<path d="M140.748 715.53L142.993 715.53L142.993 713.285L140.748 713.285L140.748 715.53Z" fill="#07042D"/>
<path d="M136.252 713.285L140.748 713.285L140.748 711.041L136.252 711.041L136.252 713.285Z" fill="#07042D"/>
<path d="M154.237 733.515L156.481 733.515L156.481 731.27L154.237 731.27L154.237 733.515Z" fill="#07042D"/>
<path d="M145.244 729.018L147.489 729.018L147.489 726.774L145.244 726.774L145.244 729.018Z" fill="#07042D"/>
<path d="M143 731.263L145.244 731.263L145.244 729.018L143 729.018L143 731.263Z" fill="#07042D"/>
<path d="M136.252 733.515L138.497 733.515L138.497 731.27L136.252 731.27L136.252 733.515Z" fill="#07042D"/>
<path d="M138.503 735.759L140.748 735.759L140.748 733.515L138.503 733.515L138.503 735.759Z" fill="#07042D"/>
<path d="M134.007 731.263L136.251 731.263L136.251 729.018L134.007 729.018L134.007 731.263Z" fill="#07042D"/>
<path d="M140.748 735.759L142.993 735.759L142.993 731.263L140.748 731.263L140.748 735.759Z" fill="#07042D"/>
<path d="M138.503 726.767L140.748 726.767L140.748 724.522L138.503 724.522L138.503 726.767Z" fill="#07042D"/>
<path d="M134 729.018L138.497 729.018L138.497 726.774L134 726.774L134 729.018Z" fill="#07042D"/>
<path d="M140.748 724.522L142.993 724.522L142.993 722.278L140.748 722.278L140.748 724.522Z" fill="#07042D"/>
<path d="M136.252 715.53L138.497 715.53L138.497 713.285L136.252 713.285L136.252 715.53Z" fill="#07042D"/>
<path d="M151.985 731.263L154.23 731.263L154.23 729.018L151.985 729.018L151.985 731.263Z" fill="#07042D"/>
<path d="M149.741 729.018L151.985 729.018L151.985 726.774L149.741 726.774L149.741 729.018Z" fill="#07042D"/>
<path d="M147.496 726.767L149.741 726.767L149.741 724.522L147.496 724.522L147.496 726.767Z" fill="#07042D"/>
<path d="M145.244 724.522L147.489 724.522L147.489 722.278L145.244 722.278L145.244 724.522Z" fill="#07042D"/>
<path d="M143 722.271L145.244 722.271L145.244 720.026L143 720.026L143 722.271Z" fill="#07042D"/>
<path d="M140.748 720.026L142.993 720.026L142.993 717.781L140.748 717.781L140.748 720.026Z" fill="#07042D"/>
<path d="M138.503 717.781L140.748 717.781L140.748 715.537L138.503 715.537L138.503 717.781Z" fill="#07042D"/>
<path d="M160.97 699.803L160.97 702.048L163.215 702.048L163.215 699.803L160.97 699.803Z" fill="#07042D"/>
<path d="M163.222 697.559L163.222 699.803L165.467 699.803L165.467 697.559L163.222 697.559Z" fill="#07042D"/>
<path d="M165.467 695.307L165.467 697.552L167.711 697.552L167.711 695.307L165.467 695.307Z" fill="#07042D"/>
<path d="M167.711 693.063L167.711 695.307L176.704 695.307L176.704 693.063L167.711 693.063Z" fill="#07042D"/>
<path d="M174.459 695.307L174.459 702.048L176.704 702.048L176.704 695.307L174.459 695.307Z" fill="#07042D"/>
<path d="M140.748 731.263L142.993 731.263L142.993 724.522L140.748 724.522L140.748 731.263Z" fill="#C9704F"/>
<path d="M145.244 726.767L147.489 726.767L147.489 724.522L145.244 724.522L145.244 726.767Z" fill="#C9704F"/>
<path d="M136.252 731.263L138.497 731.263L138.497 729.018L136.252 729.018L136.252 731.263Z" fill="#C9704F"/>
<path d="M172.215 702.048L174.459 702.048L174.459 695.307L172.215 695.307L172.215 702.048Z" fill="#E5E5EC"/>
<path d="M147.496 720.026L149.741 720.026L149.741 715.53L147.496 715.53L147.496 720.026Z" fill="#ABABC3"/>
<path d="M169.97 704.293L172.215 704.293L172.215 695.3L169.97 695.3L169.97 704.293Z" fill="#ABABC3"/>
<path d="M167.718 706.537L169.963 706.537L169.963 695.3L167.718 695.3L167.718 706.537Z" fill="#ABABC3"/>
<path d="M165.474 708.789L167.718 708.789L167.718 697.552L165.474 697.552L165.474 708.789Z" fill="#ABABC3"/>
<path d="M163.23 711.033L165.474 711.033L165.474 699.796L163.23 699.796L163.23 711.033Z" fill="#ABABC3"/>
<path d="M160.978 713.285L163.222 713.285L163.222 702.048L160.978 702.048L160.978 713.285Z" fill="#ABABC3"/>
<path d="M158.733 715.53L160.978 715.53L160.978 704.293L158.733 704.293L158.733 715.53Z" fill="#ABABC3"/>
<path d="M156.481 717.781L158.726 717.781L158.726 706.544L156.482 706.544L156.481 717.781Z" fill="#ABABC3"/>
<path d="M154.237 720.026L156.481 720.026L156.481 708.789L154.237 708.789L154.237 720.026Z" fill="#ABABC3"/>
<path d="M151.985 722.271L154.23 722.271L154.23 711.033L151.985 711.033L151.985 722.271Z" fill="#ABABC3"/>
<path d="M149.741 722.271L151.985 722.271L151.985 713.278L149.741 713.278L149.741 722.271Z" fill="#ABABC3"/>
<path d="M149.741 717.781L149.741 720.026L151.985 720.026L151.985 717.781L149.741 717.781Z" fill="#60608D"/>
<path d="M154.237 729.018L154.237 731.263L156.481 731.263L156.481 729.018L154.237 729.018Z" fill="#BE523D"/>
<path d="M151.985 726.767L151.985 729.011L154.23 729.011L154.23 726.767L151.985 726.767Z" fill="#AF3F27"/>
<path d="M149.741 724.522L149.741 726.767L151.985 726.767L151.985 724.522L149.741 724.522Z" fill="#BE523D"/>
<path d="M147.489 722.278L147.489 724.522L149.733 724.522L149.733 722.278L147.489 722.278Z" fill="#AF3F27"/>
<path d="M145.244 720.026L145.244 722.271L147.489 722.271L147.489 720.026L145.244 720.026Z" fill="#BE523D"/>
<path d="M142.993 717.781L142.993 720.026L145.237 720.026L145.237 717.781L142.993 717.781Z" fill="#AF3F27"/>
<path d="M140.741 715.53L140.741 717.774L142.986 717.774L142.986 715.53L140.741 715.53Z" fill="#BE523D"/>
<path d="M143 722.278L143 729.018L145.245 729.018L145.245 722.278L143 722.278Z" fill="#AF3F27"/>
<path d="M138.503 726.767L138.503 733.508L140.748 733.508L140.748 726.767L138.503 726.767Z" fill="#AF3F27"/>
<path d="M138.503 713.285L138.503 715.53L140.748 715.53L140.748 713.285L138.503 713.285Z" fill="#AF3F27"/>
<path d="M151.985 715.53L151.985 717.774L154.23 717.774L154.23 715.53L151.985 715.53Z" fill="#60608D"/>
<path d="M154.237 713.285L154.237 715.53L156.481 715.53L156.481 713.285L154.237 713.285Z" fill="#60608D"/>
<path d="M156.481 711.041L156.481 713.285L158.726 713.285L158.726 711.041L156.481 711.041Z" fill="#60608D"/>
<path d="M158.733 708.796L158.733 711.04L160.978 711.04L160.978 708.796L158.733 708.796Z" fill="#60608D"/>
<path d="M160.978 706.544L160.978 708.789L163.223 708.789L163.223 706.544L160.978 706.544Z" fill="#60608D"/>
<path d="M163.229 704.3L163.229 706.544L165.474 706.544L165.474 704.3L163.229 704.3Z" fill="#60608D"/>
<path d="M165.474 702.048L165.474 704.293L167.719 704.293L167.719 702.048L165.474 702.048Z" fill="#60608D"/>
<path d="M167.718 699.796L167.718 702.041L169.963 702.041L169.963 699.796L167.718 699.796Z" fill="#60608D"/>
<path d="M167.719 697.552L174.459 697.552L174.459 695.307L167.719 695.307L167.719 697.552Z" fill="#E5E5EC"/>
<path d="M165.474 708.789L167.718 708.789L167.718 706.544L165.474 706.544L165.474 708.789Z" fill="#E5E5EC"/>
<path d="M163.23 711.033L165.474 711.033L165.474 708.789L163.23 708.789L163.23 711.033Z" fill="#E5E5EC"/>
<path d="M167.718 706.537L169.963 706.537L169.963 704.293L167.718 704.293L167.718 706.537Z" fill="#E5E5EC"/>
<path d="M169.97 704.293L172.215 704.293L172.215 702.048L169.97 702.048L169.97 704.293Z" fill="#E5E5EC"/>
<path d="M156.481 717.781L158.726 717.781L158.726 715.537L156.481 715.537L156.481 717.781Z" fill="#E5E5EC"/>
<path d="M154.237 720.026L156.481 720.026L156.481 717.781L154.237 717.781L154.237 720.026Z" fill="#E5E5EC"/>
<path d="M151.985 722.271L154.23 722.271L154.23 720.026L151.985 720.026L151.985 722.271Z" fill="#E5E5EC"/>
<path d="M151.985 713.285L154.23 713.285L154.23 711.041L151.985 711.041L151.985 713.285Z" fill="#E5E5EC"/>
<path d="M160.978 713.285L163.222 713.285L163.222 711.041L160.978 711.041L160.978 713.285Z" fill="#E5E5EC"/>
<path d="M158.733 715.53L160.978 715.53L160.978 713.285L158.733 713.285L158.733 715.53Z" fill="#E5E5EC"/>
<path d="M393.455 666.624C393.455 667.739 393.265 668.716 392.886 669.555C392.518 670.395 392.018 671.113 391.385 671.711C390.764 672.309 390.034 672.803 389.195 673.194C388.367 673.585 387.494 673.895 386.574 674.125C385.654 674.355 384.717 674.516 383.763 674.608C382.808 674.7 381.9 674.746 381.038 674.746C380.015 674.746 378.905 674.626 377.71 674.384C376.514 674.154 375.353 673.804 374.226 673.332C373.099 672.849 372.076 672.251 371.156 671.539C370.236 670.826 369.541 669.986 369.069 669.021L375.226 666.106C375.226 666.9 375.387 667.647 375.709 668.348C376.042 669.038 376.479 669.642 377.02 670.159C377.56 670.676 378.175 671.084 378.865 671.383C379.566 671.682 380.291 671.832 381.038 671.832C381.751 671.832 382.446 671.711 383.125 671.47C383.803 671.217 384.401 670.86 384.918 670.4C385.447 669.94 385.872 669.394 386.194 668.762C386.516 668.118 386.677 667.405 386.677 666.624C386.677 665.761 386.528 665.003 386.229 664.347C385.941 663.692 385.539 663.151 385.022 662.726C384.516 662.289 383.918 661.962 383.228 661.743C382.55 661.525 381.82 661.415 381.038 661.415C379.221 661.415 377.652 661.49 376.33 661.64C375.008 661.778 373.915 661.933 373.053 662.105C372.041 662.312 371.196 662.542 370.518 662.795L373.105 649.412H391.403V652.586H378.744L377.52 658.639C378.026 658.593 378.566 658.558 379.141 658.535C379.727 658.501 380.36 658.484 381.038 658.484C382.567 658.484 383.935 658.604 385.142 658.846C386.361 659.087 387.43 659.415 388.35 659.829C389.27 660.231 390.052 660.703 390.695 661.243C391.339 661.783 391.862 662.358 392.265 662.968C392.679 663.565 392.978 664.18 393.162 664.813C393.357 665.434 393.455 666.037 393.455 666.624ZM420.979 661.795C420.979 663.312 420.806 664.686 420.461 665.917C420.117 667.135 419.639 668.227 419.03 669.193C418.432 670.147 417.731 670.975 416.926 671.677C416.121 672.378 415.259 672.958 414.339 673.418C413.419 673.867 412.465 674.2 411.476 674.419C410.488 674.637 409.51 674.746 408.545 674.746C407.567 674.746 406.584 674.626 405.596 674.384C404.607 674.154 403.658 673.804 402.75 673.332C401.842 672.849 400.991 672.251 400.198 671.539C399.416 670.826 398.732 669.992 398.146 669.038C397.571 668.072 397.117 666.986 396.783 665.779C396.45 664.571 396.283 663.243 396.283 661.795C396.283 660.266 396.45 658.886 396.783 657.656C397.128 656.426 397.594 655.328 398.18 654.362C398.766 653.396 399.456 652.568 400.25 651.879C401.043 651.177 401.894 650.602 402.802 650.154C403.71 649.706 404.653 649.372 405.63 649.154C406.607 648.935 407.579 648.826 408.545 648.826C409.579 648.826 410.608 648.935 411.632 649.154C412.655 649.372 413.626 649.706 414.546 650.154C415.466 650.602 416.317 651.177 417.099 651.879C417.892 652.568 418.57 653.396 419.134 654.362C419.708 655.328 420.157 656.426 420.479 657.656C420.812 658.886 420.979 660.266 420.979 661.795ZM414.184 661.795C414.184 661.036 414.144 660.26 414.063 659.467C413.994 658.673 413.874 657.903 413.701 657.156C413.54 656.408 413.316 655.707 413.029 655.052C412.753 654.396 412.402 653.827 411.977 653.344C411.563 652.85 411.068 652.465 410.493 652.189C409.93 651.902 409.281 651.758 408.545 651.758C407.866 651.758 407.257 651.902 406.717 652.189C406.188 652.465 405.716 652.844 405.303 653.327C404.9 653.81 404.555 654.379 404.268 655.035C403.992 655.69 403.762 656.391 403.578 657.139C403.405 657.874 403.279 658.645 403.199 659.449C403.118 660.243 403.078 661.025 403.078 661.795C403.078 662.554 403.118 663.33 403.199 664.123C403.279 664.916 403.405 665.687 403.578 666.434C403.762 667.17 403.992 667.865 404.268 668.521C404.555 669.176 404.9 669.751 405.303 670.245C405.716 670.728 406.188 671.113 406.717 671.401C407.257 671.688 407.866 671.832 408.545 671.832C409.189 671.832 409.775 671.688 410.304 671.401C410.844 671.102 411.321 670.705 411.735 670.211C412.161 669.705 412.523 669.124 412.822 668.469C413.132 667.802 413.385 667.101 413.58 666.365C413.787 665.618 413.937 664.853 414.029 664.071C414.132 663.289 414.184 662.531 414.184 661.795ZM449.02 661.795C449.02 663.312 448.848 664.686 448.503 665.917C448.158 667.135 447.681 668.227 447.071 669.193C446.474 670.147 445.772 670.975 444.967 671.677C444.163 672.378 443.3 672.958 442.381 673.418C441.461 673.867 440.507 674.2 439.518 674.419C438.529 674.637 437.552 674.746 436.586 674.746C435.609 674.746 434.626 674.626 433.637 674.384C432.648 674.154 431.7 673.804 430.792 673.332C429.883 672.849 429.032 672.251 428.239 671.539C427.457 670.826 426.773 669.992 426.187 669.038C425.612 668.072 425.158 666.986 424.825 665.779C424.491 664.571 424.324 663.243 424.324 661.795C424.324 660.266 424.491 658.886 424.825 657.656C425.169 656.426 425.635 655.328 426.221 654.362C426.808 653.396 427.498 652.568 428.291 651.879C429.084 651.177 429.935 650.602 430.843 650.154C431.752 649.706 432.694 649.372 433.672 649.154C434.649 648.935 435.62 648.826 436.586 648.826C437.621 648.826 438.65 648.935 439.673 649.154C440.696 649.372 441.668 649.706 442.588 650.154C443.507 650.602 444.358 651.177 445.14 651.879C445.933 652.568 446.612 653.396 447.175 654.362C447.75 655.328 448.198 656.426 448.52 657.656C448.853 658.886 449.02 660.266 449.02 661.795ZM442.225 661.795C442.225 661.036 442.185 660.26 442.105 659.467C442.036 658.673 441.915 657.903 441.743 657.156C441.582 656.408 441.357 655.707 441.07 655.052C440.794 654.396 440.443 653.827 440.018 653.344C439.604 652.85 439.11 652.465 438.535 652.189C437.971 651.902 437.322 651.758 436.586 651.758C435.908 651.758 435.298 651.902 434.758 652.189C434.229 652.465 433.758 652.844 433.344 653.327C432.941 653.81 432.597 654.379 432.309 655.035C432.033 655.69 431.803 656.391 431.619 657.139C431.447 657.874 431.32 658.645 431.24 659.449C431.159 660.243 431.119 661.025 431.119 661.795C431.119 662.554 431.159 663.33 431.24 664.123C431.32 664.916 431.447 665.687 431.619 666.434C431.803 667.17 432.033 667.865 432.309 668.521C432.597 669.176 432.941 669.751 433.344 670.245C433.758 670.728 434.229 671.113 434.758 671.401C435.298 671.688 435.908 671.832 436.586 671.832C437.23 671.832 437.816 671.688 438.345 671.401C438.885 671.102 439.363 670.705 439.777 670.211C440.202 669.705 440.564 669.124 440.863 668.469C441.173 667.802 441.426 667.101 441.622 666.365C441.829 665.618 441.978 664.853 442.07 664.071C442.174 663.289 442.225 662.531 442.225 661.795ZM477.062 661.795C477.062 663.312 476.889 664.686 476.544 665.917C476.199 667.135 475.722 668.227 475.113 669.193C474.515 670.147 473.814 670.975 473.009 671.677C472.204 672.378 471.342 672.958 470.422 673.418C469.502 673.867 468.548 674.2 467.559 674.419C466.57 674.637 465.593 674.746 464.627 674.746C463.65 674.746 462.667 674.626 461.678 674.384C460.69 674.154 459.741 673.804 458.833 673.332C457.925 672.849 457.074 672.251 456.281 671.539C455.499 670.826 454.815 669.992 454.228 669.038C453.653 668.072 453.199 666.986 452.866 665.779C452.533 664.571 452.366 663.243 452.366 661.795C452.366 660.266 452.533 658.886 452.866 657.656C453.211 656.426 453.676 655.328 454.263 654.362C454.849 653.396 455.539 652.568 456.332 651.879C457.126 651.177 457.976 650.602 458.885 650.154C459.793 649.706 460.736 649.372 461.713 649.154C462.69 648.935 463.662 648.826 464.627 648.826C465.662 648.826 466.691 648.935 467.714 649.154C468.738 649.372 469.709 649.706 470.629 650.154C471.549 650.602 472.399 651.177 473.181 651.879C473.975 652.568 474.653 653.396 475.216 654.362C475.791 655.328 476.239 656.426 476.561 657.656C476.895 658.886 477.062 660.266 477.062 661.795ZM470.267 661.795C470.267 661.036 470.227 660.26 470.146 659.467C470.077 658.673 469.956 657.903 469.784 657.156C469.623 656.408 469.399 655.707 469.111 655.052C468.835 654.396 468.485 653.827 468.059 653.344C467.645 652.85 467.151 652.465 466.576 652.189C466.013 651.902 465.363 651.758 464.627 651.758C463.949 651.758 463.34 651.902 462.799 652.189C462.271 652.465 461.799 652.844 461.385 653.327C460.983 653.81 460.638 654.379 460.351 655.035C460.075 655.69 459.845 656.391 459.661 657.139C459.488 657.874 459.362 658.645 459.281 659.449C459.201 660.243 459.161 661.025 459.161 661.795C459.161 662.554 459.201 663.33 459.281 664.123C459.362 664.916 459.488 665.687 459.661 666.434C459.845 667.17 460.075 667.865 460.351 668.521C460.638 669.176 460.983 669.751 461.385 670.245C461.799 670.728 462.271 671.113 462.799 671.401C463.34 671.688 463.949 671.832 464.627 671.832C465.271 671.832 465.858 671.688 466.386 671.401C466.927 671.102 467.404 670.705 467.818 670.211C468.243 669.705 468.605 669.124 468.904 668.469C469.215 667.802 469.468 667.101 469.663 666.365C469.87 665.618 470.02 664.853 470.112 664.071C470.215 663.289 470.267 662.531 470.267 661.795ZM505.103 661.795C505.103 663.312 504.93 664.686 504.586 665.917C504.241 667.135 503.763 668.227 503.154 669.193C502.556 670.147 501.855 670.975 501.05 671.677C500.245 672.378 499.383 672.958 498.463 673.418C497.544 673.867 496.589 674.2 495.601 674.419C494.612 674.637 493.635 674.746 492.669 674.746C491.692 674.746 490.709 674.626 489.72 674.384C488.731 674.154 487.783 673.804 486.874 673.332C485.966 672.849 485.115 672.251 484.322 671.539C483.54 670.826 482.856 669.992 482.27 669.038C481.695 668.072 481.241 666.986 480.907 665.779C480.574 664.571 480.407 663.243 480.407 661.795C480.407 660.266 480.574 658.886 480.907 657.656C481.252 656.426 481.718 655.328 482.304 654.362C482.891 653.396 483.58 652.568 484.374 651.879C485.167 651.177 486.018 650.602 486.926 650.154C487.834 649.706 488.777 649.372 489.754 649.154C490.732 648.935 491.703 648.826 492.669 648.826C493.704 648.826 494.733 648.935 495.756 649.154C496.779 649.372 497.751 649.706 498.67 650.154C499.59 650.602 500.441 651.177 501.223 651.879C502.016 652.568 502.694 653.396 503.258 654.362C503.832 655.328 504.281 656.426 504.603 657.656C504.936 658.886 505.103 660.266 505.103 661.795ZM498.308 661.795C498.308 661.036 498.268 660.26 498.187 659.467C498.118 658.673 497.998 657.903 497.825 657.156C497.664 656.408 497.44 655.707 497.153 655.052C496.877 654.396 496.526 653.827 496.101 653.344C495.687 652.85 495.192 652.465 494.618 652.189C494.054 651.902 493.405 651.758 492.669 651.758C491.99 651.758 491.381 651.902 490.841 652.189C490.312 652.465 489.841 652.844 489.427 653.327C489.024 653.81 488.679 654.379 488.392 655.035C488.116 655.69 487.886 656.391 487.702 657.139C487.53 657.874 487.403 658.645 487.323 659.449C487.242 660.243 487.202 661.025 487.202 661.795C487.202 662.554 487.242 663.33 487.323 664.123C487.403 664.916 487.53 665.687 487.702 666.434C487.886 667.17 488.116 667.865 488.392 668.521C488.679 669.176 489.024 669.751 489.427 670.245C489.841 670.728 490.312 671.113 490.841 671.401C491.381 671.688 491.99 671.832 492.669 671.832C493.313 671.832 493.899 671.688 494.428 671.401C494.968 671.102 495.445 670.705 495.859 670.211C496.285 669.705 496.647 669.124 496.946 668.469C497.256 667.802 497.509 667.101 497.705 666.365C497.911 665.618 498.061 664.853 498.153 664.071C498.256 663.289 498.308 662.531 498.308 661.795Z" fill="#2B167D"/>
<path d="M366.138 728.401H352.669V725.245H355.98V706.723H352.669V703.567H362.827V725.245H366.138V728.401ZM393.144 715.949C393.144 717.467 392.972 718.841 392.627 720.071C392.282 721.29 391.805 722.382 391.196 723.348C390.598 724.302 389.897 725.13 389.092 725.831C388.287 726.532 387.425 727.113 386.505 727.573C385.585 728.021 384.631 728.355 383.642 728.573C382.653 728.791 381.676 728.901 380.71 728.901C379.733 728.901 378.75 728.78 377.761 728.539C376.773 728.309 375.824 727.958 374.916 727.487C374.008 727.004 373.157 726.406 372.363 725.693C371.582 724.98 370.898 724.147 370.311 723.192C369.736 722.227 369.282 721.14 368.949 719.933C368.615 718.726 368.449 717.398 368.449 715.949C368.449 714.42 368.615 713.04 368.949 711.81C369.294 710.58 369.759 709.482 370.346 708.516C370.932 707.551 371.622 706.723 372.415 706.033C373.209 705.332 374.059 704.757 374.968 704.308C375.876 703.86 376.819 703.527 377.796 703.308C378.773 703.09 379.745 702.981 380.71 702.981C381.745 702.981 382.774 703.09 383.797 703.308C384.821 703.527 385.792 703.86 386.712 704.308C387.632 704.757 388.482 705.332 389.264 706.033C390.057 706.723 390.736 707.551 391.299 708.516C391.874 709.482 392.322 710.58 392.644 711.81C392.978 713.04 393.144 714.42 393.144 715.949ZM386.35 715.949C386.35 715.19 386.309 714.414 386.229 713.621C386.16 712.828 386.039 712.057 385.867 711.31C385.706 710.563 385.482 709.862 385.194 709.206C384.918 708.551 384.568 707.982 384.142 707.499C383.728 707.004 383.234 706.619 382.659 706.343C382.096 706.056 381.446 705.912 380.71 705.912C380.032 705.912 379.423 706.056 378.882 706.343C378.353 706.619 377.882 706.999 377.468 707.482C377.066 707.964 376.721 708.534 376.433 709.189C376.158 709.844 375.928 710.546 375.744 711.293C375.571 712.029 375.445 712.799 375.364 713.604C375.284 714.397 375.243 715.179 375.243 715.949C375.243 716.708 375.284 717.484 375.364 718.277C375.445 719.071 375.571 719.841 375.744 720.588C375.928 721.324 376.158 722.02 376.433 722.675C376.721 723.33 377.066 723.905 377.468 724.4C377.882 724.882 378.353 725.268 378.882 725.555C379.423 725.842 380.032 725.986 380.71 725.986C381.354 725.986 381.941 725.842 382.469 725.555C383.01 725.256 383.487 724.859 383.901 724.365C384.326 723.859 384.688 723.279 384.987 722.623C385.298 721.956 385.551 721.255 385.746 720.519C385.953 719.772 386.102 719.007 386.194 718.226C386.298 717.444 386.35 716.685 386.35 715.949ZM421.186 715.949C421.186 717.467 421.013 718.841 420.668 720.071C420.324 721.29 419.846 722.382 419.237 723.348C418.639 724.302 417.938 725.13 417.133 725.831C416.328 726.532 415.466 727.113 414.546 727.573C413.626 728.021 412.672 728.355 411.683 728.573C410.695 728.791 409.717 728.901 408.752 728.901C407.774 728.901 406.791 728.78 405.803 728.539C404.814 728.309 403.865 727.958 402.957 727.487C402.049 727.004 401.198 726.406 400.405 725.693C399.623 724.98 398.939 724.147 398.353 723.192C397.778 722.227 397.324 721.14 396.99 719.933C396.657 718.726 396.49 717.398 396.49 715.949C396.49 714.42 396.657 713.04 396.99 711.81C397.335 710.58 397.801 709.482 398.387 708.516C398.973 707.551 399.663 706.723 400.457 706.033C401.25 705.332 402.101 704.757 403.009 704.308C403.917 703.86 404.86 703.527 405.837 703.308C406.814 703.09 407.786 702.981 408.752 702.981C409.786 702.981 410.815 703.09 411.839 703.308C412.862 703.527 413.833 703.86 414.753 704.308C415.673 704.757 416.524 705.332 417.306 706.033C418.099 706.723 418.777 707.551 419.341 708.516C419.915 709.482 420.364 710.58 420.686 711.81C421.019 713.04 421.186 714.42 421.186 715.949ZM414.391 715.949C414.391 715.19 414.351 714.414 414.27 713.621C414.201 712.828 414.081 712.057 413.908 711.31C413.747 710.563 413.523 709.862 413.236 709.206C412.96 708.551 412.609 707.982 412.184 707.499C411.77 707.004 411.275 706.619 410.7 706.343C410.137 706.056 409.488 705.912 408.752 705.912C408.073 705.912 407.464 706.056 406.924 706.343C406.395 706.619 405.923 706.999 405.51 707.482C405.107 707.964 404.762 708.534 404.475 709.189C404.199 709.844 403.969 710.546 403.785 711.293C403.613 712.029 403.486 712.799 403.406 713.604C403.325 714.397 403.285 715.179 403.285 715.949C403.285 716.708 403.325 717.484 403.406 718.277C403.486 719.071 403.613 719.841 403.785 720.588C403.969 721.324 404.199 722.02 404.475 722.675C404.762 723.33 405.107 723.905 405.51 724.4C405.923 724.882 406.395 725.268 406.924 725.555C407.464 725.842 408.073 725.986 408.752 725.986C409.396 725.986 409.982 725.842 410.511 725.555C411.051 725.256 411.528 724.859 411.942 724.365C412.368 723.859 412.73 723.279 413.029 722.623C413.339 721.956 413.592 721.255 413.787 720.519C413.994 719.772 414.144 719.007 414.236 718.226C414.339 717.444 414.391 716.685 414.391 715.949ZM449.227 715.949C449.227 717.467 449.055 718.841 448.71 720.071C448.365 721.29 447.888 722.382 447.278 723.348C446.681 724.302 445.979 725.13 445.174 725.831C444.37 726.532 443.507 727.113 442.588 727.573C441.668 728.021 440.714 728.355 439.725 728.573C438.736 728.791 437.759 728.901 436.793 728.901C435.816 728.901 434.833 728.78 433.844 728.539C432.855 728.309 431.907 727.958 430.999 727.487C430.09 727.004 429.24 726.406 428.446 725.693C427.664 724.98 426.98 724.147 426.394 723.192C425.819 722.227 425.365 721.14 425.032 719.933C424.698 718.726 424.531 717.398 424.531 715.949C424.531 714.42 424.698 713.04 425.032 711.81C425.376 710.58 425.842 709.482 426.428 708.516C427.015 707.551 427.705 706.723 428.498 706.033C429.291 705.332 430.142 704.757 431.05 704.308C431.959 703.86 432.901 703.527 433.879 703.308C434.856 703.09 435.827 702.981 436.793 702.981C437.828 702.981 438.857 703.09 439.88 703.308C440.903 703.527 441.875 703.86 442.795 704.308C443.714 704.757 444.565 705.332 445.347 706.033C446.14 706.723 446.819 707.551 447.382 708.516C447.957 709.482 448.405 710.58 448.727 711.81C449.06 713.04 449.227 714.42 449.227 715.949ZM442.432 715.949C442.432 715.19 442.392 714.414 442.312 713.621C442.243 712.828 442.122 712.057 441.95 711.31C441.789 710.563 441.564 709.862 441.277 709.206C441.001 708.551 440.65 707.982 440.225 707.499C439.811 707.004 439.317 706.619 438.742 706.343C438.178 706.056 437.529 705.912 436.793 705.912C436.115 705.912 435.505 706.056 434.965 706.343C434.436 706.619 433.965 706.999 433.551 707.482C433.149 707.964 432.804 708.534 432.516 709.189C432.24 709.844 432.01 710.546 431.826 711.293C431.654 712.029 431.527 712.799 431.447 713.604C431.366 714.397 431.326 715.179 431.326 715.949C431.326 716.708 431.366 717.484 431.447 718.277C431.527 719.071 431.654 719.841 431.826 720.588C432.01 721.324 432.24 722.02 432.516 722.675C432.804 723.33 433.149 723.905 433.551 724.4C433.965 724.882 434.436 725.268 434.965 725.555C435.505 725.842 436.115 725.986 436.793 725.986C437.437 725.986 438.023 725.842 438.552 725.555C439.093 725.256 439.57 724.859 439.984 724.365C440.409 723.859 440.771 723.279 441.07 722.623C441.38 721.956 441.633 721.255 441.829 720.519C442.036 719.772 442.185 719.007 442.277 718.226C442.381 717.444 442.432 716.685 442.432 715.949ZM477.269 715.949C477.269 717.467 477.096 718.841 476.751 720.071C476.406 721.29 475.929 722.382 475.32 723.348C474.722 724.302 474.021 725.13 473.216 725.831C472.411 726.532 471.549 727.113 470.629 727.573C469.709 728.021 468.755 728.355 467.766 728.573C466.777 728.791 465.8 728.901 464.834 728.901C463.857 728.901 462.874 728.78 461.885 728.539C460.897 728.309 459.948 727.958 459.04 727.487C458.132 727.004 457.281 726.406 456.488 725.693C455.706 724.98 455.022 724.147 454.435 723.192C453.861 722.227 453.406 721.14 453.073 719.933C452.74 718.726 452.573 717.398 452.573 715.949C452.573 714.42 452.74 713.04 453.073 711.81C453.418 710.58 453.884 709.482 454.47 708.516C455.056 707.551 455.746 706.723 456.539 706.033C457.333 705.332 458.183 704.757 459.092 704.308C460 703.86 460.943 703.527 461.92 703.308C462.897 703.09 463.869 702.981 464.834 702.981C465.869 702.981 466.898 703.09 467.921 703.308C468.945 703.527 469.916 703.86 470.836 704.308C471.756 704.757 472.606 705.332 473.388 706.033C474.182 706.723 474.86 707.551 475.423 708.516C475.998 709.482 476.447 710.58 476.768 711.81C477.102 713.04 477.269 714.42 477.269 715.949ZM470.474 715.949C470.474 715.19 470.434 714.414 470.353 713.621C470.284 712.828 470.163 712.057 469.991 711.31C469.83 710.563 469.606 709.862 469.318 709.206C469.042 708.551 468.692 707.982 468.266 707.499C467.852 707.004 467.358 706.619 466.783 706.343C466.22 706.056 465.57 705.912 464.834 705.912C464.156 705.912 463.547 706.056 463.006 706.343C462.478 706.619 462.006 706.999 461.592 707.482C461.19 707.964 460.845 708.534 460.558 709.189C460.282 709.844 460.052 710.546 459.868 711.293C459.695 712.029 459.569 712.799 459.488 713.604C459.408 714.397 459.368 715.179 459.368 715.949C459.368 716.708 459.408 717.484 459.488 718.277C459.569 719.071 459.695 719.841 459.868 720.588C460.052 721.324 460.282 722.02 460.558 722.675C460.845 723.33 461.19 723.905 461.592 724.4C462.006 724.882 462.478 725.268 463.006 725.555C463.547 725.842 464.156 725.986 464.834 725.986C465.478 725.986 466.065 725.842 466.594 725.555C467.134 725.256 467.611 724.859 468.025 724.365C468.45 723.859 468.812 723.279 469.111 722.623C469.422 721.956 469.675 721.255 469.87 720.519C470.077 719.772 470.227 719.007 470.319 718.226C470.422 717.444 470.474 716.685 470.474 715.949ZM505.31 715.949C505.31 717.467 505.137 718.841 504.793 720.071C504.448 721.29 503.971 722.382 503.361 723.348C502.763 724.302 502.062 725.13 501.257 725.831C500.452 726.532 499.59 727.113 498.67 727.573C497.751 728.021 496.796 728.355 495.808 728.573C494.819 728.791 493.842 728.901 492.876 728.901C491.899 728.901 490.916 728.78 489.927 728.539C488.938 728.309 487.99 727.958 487.081 727.487C486.173 727.004 485.322 726.406 484.529 725.693C483.747 724.98 483.063 724.147 482.477 723.192C481.902 722.227 481.448 721.14 481.114 719.933C480.781 718.726 480.614 717.398 480.614 715.949C480.614 714.42 480.781 713.04 481.114 711.81C481.459 710.58 481.925 709.482 482.511 708.516C483.098 707.551 483.787 706.723 484.581 706.033C485.374 705.332 486.225 704.757 487.133 704.308C488.041 703.86 488.984 703.527 489.961 703.308C490.939 703.09 491.91 702.981 492.876 702.981C493.911 702.981 494.94 703.09 495.963 703.308C496.986 703.527 497.958 703.86 498.877 704.308C499.797 704.757 500.648 705.332 501.43 706.033C502.223 706.723 502.901 707.551 503.465 708.516C504.039 709.482 504.488 710.58 504.81 711.81C505.143 713.04 505.31 714.42 505.31 715.949ZM498.515 715.949C498.515 715.19 498.475 714.414 498.394 713.621C498.325 712.828 498.205 712.057 498.032 711.31C497.871 710.563 497.647 709.862 497.36 709.206C497.084 708.551 496.733 707.982 496.308 707.499C495.894 707.004 495.399 706.619 494.825 706.343C494.261 706.056 493.612 705.912 492.876 705.912C492.198 705.912 491.588 706.056 491.048 706.343C490.519 706.619 490.048 706.999 489.634 707.482C489.231 707.964 488.886 708.534 488.599 709.189C488.323 709.844 488.093 710.546 487.909 711.293C487.737 712.029 487.61 712.799 487.53 713.604C487.449 714.397 487.409 715.179 487.409 715.949C487.409 716.708 487.449 717.484 487.53 718.277C487.61 719.071 487.737 719.841 487.909 720.588C488.093 721.324 488.323 722.02 488.599 722.675C488.886 723.33 489.231 723.905 489.634 724.4C490.048 724.882 490.519 725.268 491.048 725.555C491.588 725.842 492.198 725.986 492.876 725.986C493.52 725.986 494.106 725.842 494.635 725.555C495.175 725.256 495.652 724.859 496.066 724.365C496.492 723.859 496.854 723.279 497.153 722.623C497.463 721.956 497.716 721.255 497.912 720.519C498.118 719.772 498.268 719.007 498.36 718.226C498.463 717.444 498.515 716.685 498.515 715.949Z" fill="#2B167D"/>
<defs>
<clipPath id="clip0_472_1678">
<rect width="283.339" height="328.074" fill="white" transform="translate(165 170.842)"/>
</clipPath>
</defs>
</svg>
