<svg width="340" height="159" viewBox="0 0 340 159" fill="none" xmlns="http://www.w3.org/2000/svg">
<rect x="5" y="4.4835" width="328.986" height="149.539" rx="10.2541" fill="white"/>
<path d="M68.1369 71.1165H60V62.9797H68.1369V71.1165ZM84.4107 103.691H60V95.5541H88.4925V103.691H84.4107ZM92.5476 62.9797H68.1369V54.8428H96.6294V62.9797H92.5476ZM88.4657 79.2534H68.11V71.1165H88.4657V79.2534ZM88.4657 95.5272V79.2534H96.6026V95.5272H88.4657Z" fill="#D55CFF"/>
<path d="M121.067 103.664H116.985V62.9525H100.711V54.8156H141.422V62.9525H125.149V103.664H121.067Z" fill="#D55CFF"/>
<path d="M178.051 103.664H173.969V79.2531H153.614V103.664H145.477V62.9525H153.614V71.0894H173.969V62.9525H182.106V103.664H178.025H178.051ZM173.969 62.9525H153.614V54.8156H173.969V62.9525Z" fill="#D55CFF"/>
<path d="M190.27 103.664H186.188V54.8156H222.817V62.9525H230.954V71.0894H222.817V62.9525H194.325V71.0894H222.817V79.2263H218.736V87.3632H226.872V95.5H218.736V87.3632H210.599V79.2263H194.325V103.637H190.243L190.27 103.664ZM230.981 103.664H226.899V95.5269H235.036V103.664H230.954H230.981Z" fill="#D55CFF"/>
<path d="M259.474 103.664H255.392V62.9525H239.119V54.8156H279.83V62.9525H263.556V103.664H259.474Z" fill="#D55CFF"/>
<path d="M327.222 158.482H12.9475C6.27105 158.482 0.819397 153.055 0.819397 146.354V12.1281C0.819397 5.45165 6.24704 0 12.9475 0H327.222C333.899 0 339.35 5.42764 339.35 12.1281V146.378C339.35 153.055 333.923 158.506 327.222 158.506V158.482ZM12.9475 8.06941C10.714 8.06941 8.91282 9.87062 8.91282 12.1041V146.354C8.91282 148.588 10.714 150.389 12.9475 150.389H327.222C329.456 150.389 331.257 148.588 331.257 146.354V12.1281C331.257 9.89463 329.456 8.09342 327.222 8.09342H12.9475V8.06941Z" fill="#D55CFF"/>
<path d="M28.6539 130.48H17.8947V141.239H28.6539V130.48Z" fill="#B7DFCD"/>
<path d="M24.8823 128.438H21.6402V143.28H24.8823V128.438Z" fill="#85D0CB"/>
<path d="M30.6949 137.468V134.226H15.853V137.468H30.6949Z" fill="#85D0CB"/>
<path d="M26.0117 132.978H20.488V138.501H26.0117V132.978Z" fill="white"/>
<path d="M28.6539 14.3137H17.8947V25.0729H28.6539V14.3137Z" fill="#B7DFCD"/>
<path d="M24.8823 12.2483H21.6402V27.0902H24.8823V12.2483Z" fill="#85D0CB"/>
<path d="M30.695 21.3027V18.0605H15.853V21.3027H30.695Z" fill="#85D0CB"/>
<path d="M26.0118 16.8114H20.4881V22.3351H26.0118V16.8114Z" fill="white"/>
<path d="M324.628 130.48H313.869V141.239H324.628V130.48Z" fill="#B7DFCD"/>
<path d="M320.858 128.438H317.616V143.28H320.858V128.438Z" fill="#85D0CB"/>
<path d="M326.669 137.492V134.25H311.827V137.492H326.669Z" fill="#85D0CB"/>
<path d="M321.986 132.978H316.462V138.501H321.986V132.978Z" fill="white"/>
<path d="M324.629 14.3136H313.869V25.0729H324.629V14.3136Z" fill="#B7DFCD"/>
<path d="M320.858 12.2483H317.616V27.0902H320.858V12.2483Z" fill="#85D0CB"/>
<path d="M326.67 21.3027V18.0605H311.828V21.3027H326.67Z" fill="#85D0CB"/>
<path d="M321.986 16.8114H316.463V22.3351H321.986V16.8114Z" fill="white"/>
</svg>
